G04 #@! TF.GenerationSoftware,KiCad,Pcbnew,(6.0.2-0)*
G04 #@! TF.CreationDate,2022-04-17T22:51:48-04:00*
G04 #@! TF.ProjectId,Cryologger AWS,4372796f-6c6f-4676-9765-72204157532e,rev?*
G04 #@! TF.SameCoordinates,Original*
G04 #@! TF.FileFunction,Legend,Bot*
G04 #@! TF.FilePolarity,Positive*
%FSLAX46Y46*%
G04 Gerber Fmt 4.6, Leading zero omitted, Abs format (unit mm)*
G04 Created by KiCad (PCBNEW (6.0.2-0)) date 2022-04-17 22:51:48*
%MOMM*%
%LPD*%
G01*
G04 APERTURE LIST*
G04 Aperture macros list*
%AMRoundRect*
0 Rectangle with rounded corners*
0 $1 Rounding radius*
0 $2 $3 $4 $5 $6 $7 $8 $9 X,Y pos of 4 corners*
0 Add a 4 corners polygon primitive as box body*
4,1,4,$2,$3,$4,$5,$6,$7,$8,$9,$2,$3,0*
0 Add four circle primitives for the rounded corners*
1,1,$1+$1,$2,$3*
1,1,$1+$1,$4,$5*
1,1,$1+$1,$6,$7*
1,1,$1+$1,$8,$9*
0 Add four rect primitives between the rounded corners*
20,1,$1+$1,$2,$3,$4,$5,0*
20,1,$1+$1,$4,$5,$6,$7,0*
20,1,$1+$1,$6,$7,$8,$9,0*
20,1,$1+$1,$8,$9,$2,$3,0*%
G04 Aperture macros list end*
%ADD10C,0.100000*%
%ADD11C,0.300000*%
%ADD12C,1.524000*%
%ADD13C,6.000000*%
%ADD14C,1.778000*%
%ADD15C,2.540000*%
%ADD16C,3.810000*%
%ADD17RoundRect,0.200000X-0.200000X-0.450000X0.200000X-0.450000X0.200000X0.450000X-0.200000X0.450000X0*%
%ADD18O,0.800000X1.300000*%
%ADD19O,1.600000X1.600000*%
%ADD20C,1.600000*%
%ADD21C,4.999990*%
%ADD22RoundRect,0.249999X-0.790001X-1.550001X0.790001X-1.550001X0.790001X1.550001X-0.790001X1.550001X0*%
%ADD23O,2.080000X3.600000*%
G04 APERTURE END LIST*
D10*
X121920000Y-109855000D02*
X98425000Y-109855000D01*
X98425000Y-109855000D02*
X98425000Y-95250000D01*
X98425000Y-95250000D02*
X121920000Y-95250000D01*
X121920000Y-95250000D02*
X121920000Y-109855000D01*
G36*
X121920000Y-109855000D02*
G01*
X98425000Y-109855000D01*
X98425000Y-95250000D01*
X121920000Y-95250000D01*
X121920000Y-109855000D01*
G37*
X121920000Y-109855000D02*
X98425000Y-109855000D01*
X98425000Y-95250000D01*
X121920000Y-95250000D01*
X121920000Y-109855000D01*
D11*
X121780714Y-75715714D02*
X121852142Y-75787142D01*
X122066428Y-75858571D01*
X122209285Y-75858571D01*
X122423571Y-75787142D01*
X122566428Y-75644285D01*
X122637857Y-75501428D01*
X122709285Y-75215714D01*
X122709285Y-75001428D01*
X122637857Y-74715714D01*
X122566428Y-74572857D01*
X122423571Y-74430000D01*
X122209285Y-74358571D01*
X122066428Y-74358571D01*
X121852142Y-74430000D01*
X121780714Y-74501428D01*
X120923571Y-75858571D02*
X121066428Y-75787142D01*
X121137857Y-75715714D01*
X121209285Y-75572857D01*
X121209285Y-75144285D01*
X121137857Y-75001428D01*
X121066428Y-74930000D01*
X120923571Y-74858571D01*
X120709285Y-74858571D01*
X120566428Y-74930000D01*
X120495000Y-75001428D01*
X120423571Y-75144285D01*
X120423571Y-75572857D01*
X120495000Y-75715714D01*
X120566428Y-75787142D01*
X120709285Y-75858571D01*
X120923571Y-75858571D01*
X119780714Y-74858571D02*
X119780714Y-75858571D01*
X119780714Y-75001428D02*
X119709285Y-74930000D01*
X119566428Y-74858571D01*
X119352142Y-74858571D01*
X119209285Y-74930000D01*
X119137857Y-75072857D01*
X119137857Y-75858571D01*
X118637857Y-74858571D02*
X118066428Y-74858571D01*
X118423571Y-74358571D02*
X118423571Y-75644285D01*
X118352142Y-75787142D01*
X118209285Y-75858571D01*
X118066428Y-75858571D01*
X116923571Y-75858571D02*
X116923571Y-75072857D01*
X116995000Y-74930000D01*
X117137857Y-74858571D01*
X117423571Y-74858571D01*
X117566428Y-74930000D01*
X116923571Y-75787142D02*
X117066428Y-75858571D01*
X117423571Y-75858571D01*
X117566428Y-75787142D01*
X117637857Y-75644285D01*
X117637857Y-75501428D01*
X117566428Y-75358571D01*
X117423571Y-75287142D01*
X117066428Y-75287142D01*
X116923571Y-75215714D01*
X115566428Y-75787142D02*
X115709285Y-75858571D01*
X115995000Y-75858571D01*
X116137857Y-75787142D01*
X116209285Y-75715714D01*
X116280714Y-75572857D01*
X116280714Y-75144285D01*
X116209285Y-75001428D01*
X116137857Y-74930000D01*
X115995000Y-74858571D01*
X115709285Y-74858571D01*
X115566428Y-74930000D01*
X115137857Y-74858571D02*
X114566428Y-74858571D01*
X114923571Y-74358571D02*
X114923571Y-75644285D01*
X114852142Y-75787142D01*
X114709285Y-75858571D01*
X114566428Y-75858571D01*
X112923571Y-75858571D02*
X112923571Y-74858571D01*
X112923571Y-74358571D02*
X112995000Y-74430000D01*
X112923571Y-74501428D01*
X112852142Y-74430000D01*
X112923571Y-74358571D01*
X112923571Y-74501428D01*
X112423571Y-74858571D02*
X111852142Y-74858571D01*
X112209285Y-75858571D02*
X112209285Y-74572857D01*
X112137857Y-74430000D01*
X111995000Y-74358571D01*
X111852142Y-74358571D01*
X110423571Y-74858571D02*
X109852142Y-74858571D01*
X110209285Y-75858571D02*
X110209285Y-74572857D01*
X110137857Y-74430000D01*
X109995000Y-74358571D01*
X109852142Y-74358571D01*
X109137857Y-75858571D02*
X109280714Y-75787142D01*
X109352142Y-75715714D01*
X109423571Y-75572857D01*
X109423571Y-75144285D01*
X109352142Y-75001428D01*
X109280714Y-74930000D01*
X109137857Y-74858571D01*
X108923571Y-74858571D01*
X108780714Y-74930000D01*
X108709285Y-75001428D01*
X108637857Y-75144285D01*
X108637857Y-75572857D01*
X108709285Y-75715714D01*
X108780714Y-75787142D01*
X108923571Y-75858571D01*
X109137857Y-75858571D01*
X107352142Y-74858571D02*
X107352142Y-75858571D01*
X107995000Y-74858571D02*
X107995000Y-75644285D01*
X107923571Y-75787142D01*
X107780714Y-75858571D01*
X107566428Y-75858571D01*
X107423571Y-75787142D01*
X107352142Y-75715714D01*
X106637857Y-74858571D02*
X106637857Y-75858571D01*
X106637857Y-75001428D02*
X106566428Y-74930000D01*
X106423571Y-74858571D01*
X106209285Y-74858571D01*
X106066428Y-74930000D01*
X105995000Y-75072857D01*
X105995000Y-75858571D01*
X104637857Y-75858571D02*
X104637857Y-74358571D01*
X104637857Y-75787142D02*
X104780714Y-75858571D01*
X105066428Y-75858571D01*
X105209285Y-75787142D01*
X105280714Y-75715714D01*
X105352142Y-75572857D01*
X105352142Y-75144285D01*
X105280714Y-75001428D01*
X105209285Y-74930000D01*
X105066428Y-74858571D01*
X104780714Y-74858571D01*
X104637857Y-74930000D01*
X103923571Y-75715714D02*
X103852142Y-75787142D01*
X103923571Y-75858571D01*
X103995000Y-75787142D01*
X103923571Y-75715714D01*
X103923571Y-75858571D01*
X103923571Y-74930000D02*
X103852142Y-75001428D01*
X103923571Y-75072857D01*
X103995000Y-75001428D01*
X103923571Y-74930000D01*
X103923571Y-75072857D01*
X122709285Y-77845000D02*
X121995000Y-77845000D01*
X122852142Y-78273571D02*
X122352142Y-76773571D01*
X121852142Y-78273571D01*
X120709285Y-78273571D02*
X120709285Y-76773571D01*
X120709285Y-78202142D02*
X120852142Y-78273571D01*
X121137857Y-78273571D01*
X121280714Y-78202142D01*
X121352142Y-78130714D01*
X121423571Y-77987857D01*
X121423571Y-77559285D01*
X121352142Y-77416428D01*
X121280714Y-77345000D01*
X121137857Y-77273571D01*
X120852142Y-77273571D01*
X120709285Y-77345000D01*
X119352142Y-78273571D02*
X119352142Y-77487857D01*
X119423571Y-77345000D01*
X119566428Y-77273571D01*
X119852142Y-77273571D01*
X119995000Y-77345000D01*
X119352142Y-78202142D02*
X119495000Y-78273571D01*
X119852142Y-78273571D01*
X119995000Y-78202142D01*
X120066428Y-78059285D01*
X120066428Y-77916428D01*
X119995000Y-77773571D01*
X119852142Y-77702142D01*
X119495000Y-77702142D01*
X119352142Y-77630714D01*
X118637857Y-78273571D02*
X118637857Y-77273571D01*
X118637857Y-77416428D02*
X118566428Y-77345000D01*
X118423571Y-77273571D01*
X118209285Y-77273571D01*
X118066428Y-77345000D01*
X117995000Y-77487857D01*
X117995000Y-78273571D01*
X117995000Y-77487857D02*
X117923571Y-77345000D01*
X117780714Y-77273571D01*
X117566428Y-77273571D01*
X117423571Y-77345000D01*
X117352142Y-77487857D01*
X117352142Y-78273571D01*
X114709285Y-76845000D02*
X114852142Y-76773571D01*
X115066428Y-76773571D01*
X115280714Y-76845000D01*
X115423571Y-76987857D01*
X115495000Y-77130714D01*
X115566428Y-77416428D01*
X115566428Y-77630714D01*
X115495000Y-77916428D01*
X115423571Y-78059285D01*
X115280714Y-78202142D01*
X115066428Y-78273571D01*
X114923571Y-78273571D01*
X114709285Y-78202142D01*
X114637857Y-78130714D01*
X114637857Y-77630714D01*
X114923571Y-77630714D01*
X113352142Y-78273571D02*
X113352142Y-77487857D01*
X113423571Y-77345000D01*
X113566428Y-77273571D01*
X113852142Y-77273571D01*
X113995000Y-77345000D01*
X113352142Y-78202142D02*
X113495000Y-78273571D01*
X113852142Y-78273571D01*
X113995000Y-78202142D01*
X114066428Y-78059285D01*
X114066428Y-77916428D01*
X113995000Y-77773571D01*
X113852142Y-77702142D01*
X113495000Y-77702142D01*
X113352142Y-77630714D01*
X112637857Y-78273571D02*
X112637857Y-77273571D01*
X112637857Y-77559285D02*
X112566428Y-77416428D01*
X112495000Y-77345000D01*
X112352142Y-77273571D01*
X112209285Y-77273571D01*
X111709285Y-78273571D02*
X111709285Y-76773571D01*
X111709285Y-77345000D02*
X111566428Y-77273571D01*
X111280714Y-77273571D01*
X111137857Y-77345000D01*
X111066428Y-77416428D01*
X110995000Y-77559285D01*
X110995000Y-77987857D01*
X111066428Y-78130714D01*
X111137857Y-78202142D01*
X111280714Y-78273571D01*
X111566428Y-78273571D01*
X111709285Y-78202142D01*
X110137857Y-78273571D02*
X110280714Y-78202142D01*
X110352142Y-78130714D01*
X110423571Y-77987857D01*
X110423571Y-77559285D01*
X110352142Y-77416428D01*
X110280714Y-77345000D01*
X110137857Y-77273571D01*
X109923571Y-77273571D01*
X109780714Y-77345000D01*
X109709285Y-77416428D01*
X109637857Y-77559285D01*
X109637857Y-77987857D01*
X109709285Y-78130714D01*
X109780714Y-78202142D01*
X109923571Y-78273571D01*
X110137857Y-78273571D01*
X121780714Y-80545714D02*
X121852142Y-80617142D01*
X122066428Y-80688571D01*
X122209285Y-80688571D01*
X122423571Y-80617142D01*
X122566428Y-80474285D01*
X122637857Y-80331428D01*
X122709285Y-80045714D01*
X122709285Y-79831428D01*
X122637857Y-79545714D01*
X122566428Y-79402857D01*
X122423571Y-79260000D01*
X122209285Y-79188571D01*
X122066428Y-79188571D01*
X121852142Y-79260000D01*
X121780714Y-79331428D01*
X120495000Y-80688571D02*
X120495000Y-79902857D01*
X120566428Y-79760000D01*
X120709285Y-79688571D01*
X120995000Y-79688571D01*
X121137857Y-79760000D01*
X120495000Y-80617142D02*
X120637857Y-80688571D01*
X120995000Y-80688571D01*
X121137857Y-80617142D01*
X121209285Y-80474285D01*
X121209285Y-80331428D01*
X121137857Y-80188571D01*
X120995000Y-80117142D01*
X120637857Y-80117142D01*
X120495000Y-80045714D01*
X119780714Y-80688571D02*
X119780714Y-79688571D01*
X119780714Y-79974285D02*
X119709285Y-79831428D01*
X119637857Y-79760000D01*
X119495000Y-79688571D01*
X119352142Y-79688571D01*
X118637857Y-80688571D02*
X118780714Y-80617142D01*
X118852142Y-80474285D01*
X118852142Y-79188571D01*
X117495000Y-80617142D02*
X117637857Y-80688571D01*
X117923571Y-80688571D01*
X118066428Y-80617142D01*
X118137857Y-80474285D01*
X118137857Y-79902857D01*
X118066428Y-79760000D01*
X117923571Y-79688571D01*
X117637857Y-79688571D01*
X117495000Y-79760000D01*
X117423571Y-79902857D01*
X117423571Y-80045714D01*
X118137857Y-80188571D01*
X116995000Y-79688571D02*
X116423571Y-79688571D01*
X116780714Y-79188571D02*
X116780714Y-80474285D01*
X116709285Y-80617142D01*
X116566428Y-80688571D01*
X116423571Y-80688571D01*
X115709285Y-80688571D02*
X115852142Y-80617142D01*
X115923571Y-80545714D01*
X115995000Y-80402857D01*
X115995000Y-79974285D01*
X115923571Y-79831428D01*
X115852142Y-79760000D01*
X115709285Y-79688571D01*
X115495000Y-79688571D01*
X115352142Y-79760000D01*
X115280714Y-79831428D01*
X115209285Y-79974285D01*
X115209285Y-80402857D01*
X115280714Y-80545714D01*
X115352142Y-80617142D01*
X115495000Y-80688571D01*
X115709285Y-80688571D01*
X114566428Y-79688571D02*
X114566428Y-80688571D01*
X114566428Y-79831428D02*
X114495000Y-79760000D01*
X114352142Y-79688571D01*
X114137857Y-79688571D01*
X113995000Y-79760000D01*
X113923571Y-79902857D01*
X113923571Y-80688571D01*
X112066428Y-79188571D02*
X112066428Y-80402857D01*
X111995000Y-80545714D01*
X111923571Y-80617142D01*
X111780714Y-80688571D01*
X111495000Y-80688571D01*
X111352142Y-80617142D01*
X111280714Y-80545714D01*
X111209285Y-80402857D01*
X111209285Y-79188571D01*
X110495000Y-79688571D02*
X110495000Y-80688571D01*
X110495000Y-79831428D02*
X110423571Y-79760000D01*
X110280714Y-79688571D01*
X110066428Y-79688571D01*
X109923571Y-79760000D01*
X109852142Y-79902857D01*
X109852142Y-80688571D01*
X109137857Y-80688571D02*
X109137857Y-79688571D01*
X109137857Y-79188571D02*
X109209285Y-79260000D01*
X109137857Y-79331428D01*
X109066428Y-79260000D01*
X109137857Y-79188571D01*
X109137857Y-79331428D01*
X108566428Y-79688571D02*
X108209285Y-80688571D01*
X107852142Y-79688571D01*
X106709285Y-80617142D02*
X106852142Y-80688571D01*
X107137857Y-80688571D01*
X107280714Y-80617142D01*
X107352142Y-80474285D01*
X107352142Y-79902857D01*
X107280714Y-79760000D01*
X107137857Y-79688571D01*
X106852142Y-79688571D01*
X106709285Y-79760000D01*
X106637857Y-79902857D01*
X106637857Y-80045714D01*
X107352142Y-80188571D01*
X105995000Y-80688571D02*
X105995000Y-79688571D01*
X105995000Y-79974285D02*
X105923571Y-79831428D01*
X105852142Y-79760000D01*
X105709285Y-79688571D01*
X105566428Y-79688571D01*
X105137857Y-80617142D02*
X104995000Y-80688571D01*
X104709285Y-80688571D01*
X104566428Y-80617142D01*
X104495000Y-80474285D01*
X104495000Y-80402857D01*
X104566428Y-80260000D01*
X104709285Y-80188571D01*
X104923571Y-80188571D01*
X105066428Y-80117142D01*
X105137857Y-79974285D01*
X105137857Y-79902857D01*
X105066428Y-79760000D01*
X104923571Y-79688571D01*
X104709285Y-79688571D01*
X104566428Y-79760000D01*
X103852142Y-80688571D02*
X103852142Y-79688571D01*
X103852142Y-79188571D02*
X103923571Y-79260000D01*
X103852142Y-79331428D01*
X103780714Y-79260000D01*
X103852142Y-79188571D01*
X103852142Y-79331428D01*
X103352142Y-79688571D02*
X102780714Y-79688571D01*
X103137857Y-79188571D02*
X103137857Y-80474285D01*
X103066428Y-80617142D01*
X102923571Y-80688571D01*
X102780714Y-80688571D01*
X102423571Y-79688571D02*
X102066428Y-80688571D01*
X101709285Y-79688571D02*
X102066428Y-80688571D01*
X102209285Y-81045714D01*
X102280714Y-81117142D01*
X102423571Y-81188571D01*
X122352142Y-81603571D02*
X122066428Y-81603571D01*
X121923571Y-81675000D01*
X121780714Y-81817857D01*
X121709285Y-82103571D01*
X121709285Y-82603571D01*
X121780714Y-82889285D01*
X121923571Y-83032142D01*
X122066428Y-83103571D01*
X122352142Y-83103571D01*
X122495000Y-83032142D01*
X122637857Y-82889285D01*
X122709285Y-82603571D01*
X122709285Y-82103571D01*
X122637857Y-81817857D01*
X122495000Y-81675000D01*
X122352142Y-81603571D01*
X121280714Y-82103571D02*
X120709285Y-82103571D01*
X121066428Y-81603571D02*
X121066428Y-82889285D01*
X120995000Y-83032142D01*
X120852142Y-83103571D01*
X120709285Y-83103571D01*
X120423571Y-82103571D02*
X119852142Y-82103571D01*
X120209285Y-81603571D02*
X120209285Y-82889285D01*
X120137857Y-83032142D01*
X119995000Y-83103571D01*
X119852142Y-83103571D01*
X118709285Y-83103571D02*
X118709285Y-82317857D01*
X118780714Y-82175000D01*
X118923571Y-82103571D01*
X119209285Y-82103571D01*
X119352142Y-82175000D01*
X118709285Y-83032142D02*
X118852142Y-83103571D01*
X119209285Y-83103571D01*
X119352142Y-83032142D01*
X119423571Y-82889285D01*
X119423571Y-82746428D01*
X119352142Y-82603571D01*
X119209285Y-82532142D01*
X118852142Y-82532142D01*
X118709285Y-82460714D01*
X118137857Y-82103571D02*
X117852142Y-83103571D01*
X117566428Y-82389285D01*
X117280714Y-83103571D01*
X116995000Y-82103571D01*
X115780714Y-83103571D02*
X115780714Y-82317857D01*
X115852142Y-82175000D01*
X115995000Y-82103571D01*
X116280714Y-82103571D01*
X116423571Y-82175000D01*
X115780714Y-83032142D02*
X115923571Y-83103571D01*
X116280714Y-83103571D01*
X116423571Y-83032142D01*
X116495000Y-82889285D01*
X116495000Y-82746428D01*
X116423571Y-82603571D01*
X116280714Y-82532142D01*
X115923571Y-82532142D01*
X115780714Y-82460714D01*
X114995000Y-83032142D02*
X114995000Y-83103571D01*
X115066428Y-83246428D01*
X115137857Y-83317857D01*
X112923571Y-81603571D02*
X112637857Y-81603571D01*
X112495000Y-81675000D01*
X112352142Y-81817857D01*
X112280714Y-82103571D01*
X112280714Y-82603571D01*
X112352142Y-82889285D01*
X112495000Y-83032142D01*
X112637857Y-83103571D01*
X112923571Y-83103571D01*
X113066428Y-83032142D01*
X113209285Y-82889285D01*
X113280714Y-82603571D01*
X113280714Y-82103571D01*
X113209285Y-81817857D01*
X113066428Y-81675000D01*
X112923571Y-81603571D01*
X111637857Y-82103571D02*
X111637857Y-83103571D01*
X111637857Y-82246428D02*
X111566428Y-82175000D01*
X111423571Y-82103571D01*
X111209285Y-82103571D01*
X111066428Y-82175000D01*
X110995000Y-82317857D01*
X110995000Y-83103571D01*
X110495000Y-82103571D02*
X109923571Y-82103571D01*
X110280714Y-81603571D02*
X110280714Y-82889285D01*
X110209285Y-83032142D01*
X110066428Y-83103571D01*
X109923571Y-83103571D01*
X108780714Y-83103571D02*
X108780714Y-82317857D01*
X108852142Y-82175000D01*
X108995000Y-82103571D01*
X109280714Y-82103571D01*
X109423571Y-82175000D01*
X108780714Y-83032142D02*
X108923571Y-83103571D01*
X109280714Y-83103571D01*
X109423571Y-83032142D01*
X109495000Y-82889285D01*
X109495000Y-82746428D01*
X109423571Y-82603571D01*
X109280714Y-82532142D01*
X108923571Y-82532142D01*
X108780714Y-82460714D01*
X108066428Y-83103571D02*
X108066428Y-82103571D01*
X108066428Y-82389285D02*
X107995000Y-82246428D01*
X107923571Y-82175000D01*
X107780714Y-82103571D01*
X107637857Y-82103571D01*
X107137857Y-83103571D02*
X107137857Y-82103571D01*
X107137857Y-81603571D02*
X107209285Y-81675000D01*
X107137857Y-81746428D01*
X107066428Y-81675000D01*
X107137857Y-81603571D01*
X107137857Y-81746428D01*
X106209285Y-83103571D02*
X106352142Y-83032142D01*
X106423571Y-82960714D01*
X106495000Y-82817857D01*
X106495000Y-82389285D01*
X106423571Y-82246428D01*
X106352142Y-82175000D01*
X106209285Y-82103571D01*
X105995000Y-82103571D01*
X105852142Y-82175000D01*
X105780714Y-82246428D01*
X105709285Y-82389285D01*
X105709285Y-82817857D01*
X105780714Y-82960714D01*
X105852142Y-83032142D01*
X105995000Y-83103571D01*
X106209285Y-83103571D01*
X104995000Y-83032142D02*
X104995000Y-83103571D01*
X105066428Y-83246428D01*
X105137857Y-83317857D01*
X102352142Y-82960714D02*
X102423571Y-83032142D01*
X102637857Y-83103571D01*
X102780714Y-83103571D01*
X102995000Y-83032142D01*
X103137857Y-82889285D01*
X103209285Y-82746428D01*
X103280714Y-82460714D01*
X103280714Y-82246428D01*
X103209285Y-81960714D01*
X103137857Y-81817857D01*
X102995000Y-81675000D01*
X102780714Y-81603571D01*
X102637857Y-81603571D01*
X102423571Y-81675000D01*
X102352142Y-81746428D01*
X101066428Y-83103571D02*
X101066428Y-82317857D01*
X101137857Y-82175000D01*
X101280714Y-82103571D01*
X101566428Y-82103571D01*
X101709285Y-82175000D01*
X101066428Y-83032142D02*
X101209285Y-83103571D01*
X101566428Y-83103571D01*
X101709285Y-83032142D01*
X101780714Y-82889285D01*
X101780714Y-82746428D01*
X101709285Y-82603571D01*
X101566428Y-82532142D01*
X101209285Y-82532142D01*
X101066428Y-82460714D01*
X100352142Y-82103571D02*
X100352142Y-83103571D01*
X100352142Y-82246428D02*
X100280714Y-82175000D01*
X100137857Y-82103571D01*
X99923571Y-82103571D01*
X99780714Y-82175000D01*
X99709285Y-82317857D01*
X99709285Y-83103571D01*
X98352142Y-83103571D02*
X98352142Y-82317857D01*
X98423571Y-82175000D01*
X98566428Y-82103571D01*
X98852142Y-82103571D01*
X98995000Y-82175000D01*
X98352142Y-83032142D02*
X98495000Y-83103571D01*
X98852142Y-83103571D01*
X98995000Y-83032142D01*
X99066428Y-82889285D01*
X99066428Y-82746428D01*
X98995000Y-82603571D01*
X98852142Y-82532142D01*
X98495000Y-82532142D01*
X98352142Y-82460714D01*
X96995000Y-83103571D02*
X96995000Y-81603571D01*
X96995000Y-83032142D02*
X97137857Y-83103571D01*
X97423571Y-83103571D01*
X97566428Y-83032142D01*
X97637857Y-82960714D01*
X97709285Y-82817857D01*
X97709285Y-82389285D01*
X97637857Y-82246428D01*
X97566428Y-82175000D01*
X97423571Y-82103571D01*
X97137857Y-82103571D01*
X96995000Y-82175000D01*
X95637857Y-83103571D02*
X95637857Y-82317857D01*
X95709285Y-82175000D01*
X95852142Y-82103571D01*
X96137857Y-82103571D01*
X96280714Y-82175000D01*
X95637857Y-83032142D02*
X95780714Y-83103571D01*
X96137857Y-83103571D01*
X96280714Y-83032142D01*
X96352142Y-82889285D01*
X96352142Y-82746428D01*
X96280714Y-82603571D01*
X96137857Y-82532142D01*
X95780714Y-82532142D01*
X95637857Y-82460714D01*
X121995000Y-85518571D02*
X121995000Y-84732857D01*
X122066428Y-84590000D01*
X122209285Y-84518571D01*
X122495000Y-84518571D01*
X122637857Y-84590000D01*
X121995000Y-85447142D02*
X122137857Y-85518571D01*
X122495000Y-85518571D01*
X122637857Y-85447142D01*
X122709285Y-85304285D01*
X122709285Y-85161428D01*
X122637857Y-85018571D01*
X122495000Y-84947142D01*
X122137857Y-84947142D01*
X121995000Y-84875714D01*
X120637857Y-85518571D02*
X120637857Y-84018571D01*
X120637857Y-85447142D02*
X120780714Y-85518571D01*
X121066428Y-85518571D01*
X121209285Y-85447142D01*
X121280714Y-85375714D01*
X121352142Y-85232857D01*
X121352142Y-84804285D01*
X121280714Y-84661428D01*
X121209285Y-84590000D01*
X121066428Y-84518571D01*
X120780714Y-84518571D01*
X120637857Y-84590000D01*
X119280714Y-85518571D02*
X119280714Y-84732857D01*
X119352142Y-84590000D01*
X119495000Y-84518571D01*
X119780714Y-84518571D01*
X119923571Y-84590000D01*
X119280714Y-85447142D02*
X119423571Y-85518571D01*
X119780714Y-85518571D01*
X119923571Y-85447142D01*
X119995000Y-85304285D01*
X119995000Y-85161428D01*
X119923571Y-85018571D01*
X119780714Y-84947142D01*
X119423571Y-84947142D01*
X119280714Y-84875714D01*
X118566428Y-85518571D02*
X118566428Y-84518571D01*
X118566428Y-84661428D02*
X118495000Y-84590000D01*
X118352142Y-84518571D01*
X118137857Y-84518571D01*
X117995000Y-84590000D01*
X117923571Y-84732857D01*
X117923571Y-85518571D01*
X117923571Y-84732857D02*
X117852142Y-84590000D01*
X117709285Y-84518571D01*
X117495000Y-84518571D01*
X117352142Y-84590000D01*
X117280714Y-84732857D01*
X117280714Y-85518571D01*
X116566428Y-85375714D02*
X116495000Y-85447142D01*
X116566428Y-85518571D01*
X116637857Y-85447142D01*
X116566428Y-85375714D01*
X116566428Y-85518571D01*
X115209285Y-84518571D02*
X115209285Y-85732857D01*
X115280714Y-85875714D01*
X115352142Y-85947142D01*
X115495000Y-86018571D01*
X115709285Y-86018571D01*
X115852142Y-85947142D01*
X115209285Y-85447142D02*
X115352142Y-85518571D01*
X115637857Y-85518571D01*
X115780714Y-85447142D01*
X115852142Y-85375714D01*
X115923571Y-85232857D01*
X115923571Y-84804285D01*
X115852142Y-84661428D01*
X115780714Y-84590000D01*
X115637857Y-84518571D01*
X115352142Y-84518571D01*
X115209285Y-84590000D01*
X113852142Y-85518571D02*
X113852142Y-84732857D01*
X113923571Y-84590000D01*
X114066428Y-84518571D01*
X114352142Y-84518571D01*
X114495000Y-84590000D01*
X113852142Y-85447142D02*
X113995000Y-85518571D01*
X114352142Y-85518571D01*
X114495000Y-85447142D01*
X114566428Y-85304285D01*
X114566428Y-85161428D01*
X114495000Y-85018571D01*
X114352142Y-84947142D01*
X113995000Y-84947142D01*
X113852142Y-84875714D01*
X113137857Y-85518571D02*
X113137857Y-84518571D01*
X113137857Y-84804285D02*
X113066428Y-84661428D01*
X112995000Y-84590000D01*
X112852142Y-84518571D01*
X112709285Y-84518571D01*
X112209285Y-85518571D02*
X112209285Y-84018571D01*
X112209285Y-84590000D02*
X112066428Y-84518571D01*
X111780714Y-84518571D01*
X111637857Y-84590000D01*
X111566428Y-84661428D01*
X111495000Y-84804285D01*
X111495000Y-85232857D01*
X111566428Y-85375714D01*
X111637857Y-85447142D01*
X111780714Y-85518571D01*
X112066428Y-85518571D01*
X112209285Y-85447142D01*
X110637857Y-85518571D02*
X110780714Y-85447142D01*
X110852142Y-85375714D01*
X110923571Y-85232857D01*
X110923571Y-84804285D01*
X110852142Y-84661428D01*
X110780714Y-84590000D01*
X110637857Y-84518571D01*
X110423571Y-84518571D01*
X110280714Y-84590000D01*
X110209285Y-84661428D01*
X110137857Y-84804285D01*
X110137857Y-85232857D01*
X110209285Y-85375714D01*
X110280714Y-85447142D01*
X110423571Y-85518571D01*
X110637857Y-85518571D01*
X108566428Y-84804285D02*
X108637857Y-84732857D01*
X108780714Y-84661428D01*
X108923571Y-84661428D01*
X109066428Y-84732857D01*
X109137857Y-84804285D01*
X109209285Y-84947142D01*
X109209285Y-85090000D01*
X109137857Y-85232857D01*
X109066428Y-85304285D01*
X108923571Y-85375714D01*
X108780714Y-85375714D01*
X108637857Y-85304285D01*
X108566428Y-85232857D01*
X108566428Y-84661428D02*
X108566428Y-85232857D01*
X108495000Y-85304285D01*
X108423571Y-85304285D01*
X108280714Y-85232857D01*
X108209285Y-85090000D01*
X108209285Y-84732857D01*
X108352142Y-84518571D01*
X108566428Y-84375714D01*
X108852142Y-84304285D01*
X109137857Y-84375714D01*
X109352142Y-84518571D01*
X109495000Y-84732857D01*
X109566428Y-85018571D01*
X109495000Y-85304285D01*
X109352142Y-85518571D01*
X109137857Y-85661428D01*
X108852142Y-85732857D01*
X108566428Y-85661428D01*
X108352142Y-85518571D01*
X106923571Y-85447142D02*
X107066428Y-85518571D01*
X107352142Y-85518571D01*
X107495000Y-85447142D01*
X107566428Y-85375714D01*
X107637857Y-85232857D01*
X107637857Y-84804285D01*
X107566428Y-84661428D01*
X107495000Y-84590000D01*
X107352142Y-84518571D01*
X107066428Y-84518571D01*
X106923571Y-84590000D01*
X105637857Y-85518571D02*
X105637857Y-84732857D01*
X105709285Y-84590000D01*
X105852142Y-84518571D01*
X106137857Y-84518571D01*
X106280714Y-84590000D01*
X105637857Y-85447142D02*
X105780714Y-85518571D01*
X106137857Y-85518571D01*
X106280714Y-85447142D01*
X106352142Y-85304285D01*
X106352142Y-85161428D01*
X106280714Y-85018571D01*
X106137857Y-84947142D01*
X105780714Y-84947142D01*
X105637857Y-84875714D01*
X104923571Y-85518571D02*
X104923571Y-84518571D01*
X104923571Y-84804285D02*
X104852142Y-84661428D01*
X104780714Y-84590000D01*
X104637857Y-84518571D01*
X104495000Y-84518571D01*
X103780714Y-85518571D02*
X103923571Y-85447142D01*
X103995000Y-85304285D01*
X103995000Y-84018571D01*
X102637857Y-85447142D02*
X102780714Y-85518571D01*
X103066428Y-85518571D01*
X103209285Y-85447142D01*
X103280714Y-85304285D01*
X103280714Y-84732857D01*
X103209285Y-84590000D01*
X103066428Y-84518571D01*
X102780714Y-84518571D01*
X102637857Y-84590000D01*
X102566428Y-84732857D01*
X102566428Y-84875714D01*
X103280714Y-85018571D01*
X102137857Y-84518571D02*
X101566428Y-84518571D01*
X101923571Y-84018571D02*
X101923571Y-85304285D01*
X101852142Y-85447142D01*
X101709285Y-85518571D01*
X101566428Y-85518571D01*
X100852142Y-85518571D02*
X100995000Y-85447142D01*
X101066428Y-85375714D01*
X101137857Y-85232857D01*
X101137857Y-84804285D01*
X101066428Y-84661428D01*
X100995000Y-84590000D01*
X100852142Y-84518571D01*
X100637857Y-84518571D01*
X100495000Y-84590000D01*
X100423571Y-84661428D01*
X100352142Y-84804285D01*
X100352142Y-85232857D01*
X100423571Y-85375714D01*
X100495000Y-85447142D01*
X100637857Y-85518571D01*
X100852142Y-85518571D01*
X99709285Y-84518571D02*
X99709285Y-85518571D01*
X99709285Y-84661428D02*
X99637857Y-84590000D01*
X99495000Y-84518571D01*
X99280714Y-84518571D01*
X99137857Y-84590000D01*
X99066428Y-84732857D01*
X99066428Y-85518571D01*
X98352142Y-85375714D02*
X98280714Y-85447142D01*
X98352142Y-85518571D01*
X98423571Y-85447142D01*
X98352142Y-85375714D01*
X98352142Y-85518571D01*
X96995000Y-85447142D02*
X97137857Y-85518571D01*
X97423571Y-85518571D01*
X97566428Y-85447142D01*
X97637857Y-85375714D01*
X97709285Y-85232857D01*
X97709285Y-84804285D01*
X97637857Y-84661428D01*
X97566428Y-84590000D01*
X97423571Y-84518571D01*
X97137857Y-84518571D01*
X96995000Y-84590000D01*
X95709285Y-85518571D02*
X95709285Y-84732857D01*
X95780714Y-84590000D01*
X95923571Y-84518571D01*
X96209285Y-84518571D01*
X96352142Y-84590000D01*
X95709285Y-85447142D02*
X95852142Y-85518571D01*
X96209285Y-85518571D01*
X96352142Y-85447142D01*
X96423571Y-85304285D01*
X96423571Y-85161428D01*
X96352142Y-85018571D01*
X96209285Y-84947142D01*
X95852142Y-84947142D01*
X95709285Y-84875714D01*
X121367857Y-94658571D02*
X121367857Y-93158571D01*
X120653571Y-94658571D02*
X120653571Y-93158571D01*
X120296428Y-93158571D01*
X120082142Y-93230000D01*
X119939285Y-93372857D01*
X119867857Y-93515714D01*
X119796428Y-93801428D01*
X119796428Y-94015714D01*
X119867857Y-94301428D01*
X119939285Y-94444285D01*
X120082142Y-94587142D01*
X120296428Y-94658571D01*
X120653571Y-94658571D01*
X119153571Y-94515714D02*
X119082142Y-94587142D01*
X119153571Y-94658571D01*
X119225000Y-94587142D01*
X119153571Y-94515714D01*
X119153571Y-94658571D01*
X119153571Y-93730000D02*
X119082142Y-93801428D01*
X119153571Y-93872857D01*
X119225000Y-93801428D01*
X119153571Y-93730000D01*
X119153571Y-93872857D01*
%LPC*%
D12*
X210820000Y-104140000D03*
X213360000Y-104140000D03*
X215900000Y-104140000D03*
X218440000Y-104140000D03*
X210820000Y-93980000D03*
X213360000Y-93980000D03*
X215900000Y-93980000D03*
X218440000Y-93980000D03*
X218440000Y-83820000D03*
X215900000Y-83820000D03*
X213360000Y-83820000D03*
X210820000Y-83820000D03*
D13*
X91440000Y-60960000D03*
D14*
X177800000Y-107950000D03*
X180340000Y-107950000D03*
X177800000Y-105410000D03*
X180340000Y-105410000D03*
X180340000Y-102870000D03*
X177800000Y-102870000D03*
X177800000Y-100330000D03*
X180340000Y-100330000D03*
X180340000Y-97790000D03*
X177800000Y-97790000D03*
X180340000Y-95250000D03*
X177800000Y-95250000D03*
X177800000Y-92710000D03*
X180340000Y-92710000D03*
X177800000Y-90170000D03*
X180340000Y-90170000D03*
X180340000Y-87630000D03*
X177800000Y-87630000D03*
X180340000Y-85090000D03*
X177800000Y-85090000D03*
X180340000Y-82550000D03*
X177800000Y-82550000D03*
X180340000Y-80010000D03*
X177800000Y-80010000D03*
X160020000Y-107950000D03*
X162560000Y-107950000D03*
X160020000Y-105410000D03*
X162560000Y-105410000D03*
X160020000Y-102870000D03*
X162560000Y-102870000D03*
X162560000Y-100330000D03*
X160020000Y-100330000D03*
X162560000Y-97790000D03*
X160020000Y-97790000D03*
X162560000Y-95250000D03*
X160020000Y-95250000D03*
X160020000Y-92710000D03*
X162560000Y-92710000D03*
X162560000Y-90170000D03*
X160020000Y-90170000D03*
X162560000Y-87630000D03*
X160020000Y-87630000D03*
X162560000Y-85090000D03*
X160020000Y-85090000D03*
X160020000Y-82550000D03*
X162560000Y-82550000D03*
X162560000Y-80010000D03*
X160020000Y-80010000D03*
X162560000Y-77470000D03*
X160020000Y-77470000D03*
X160020000Y-74930000D03*
X162560000Y-74930000D03*
X162560000Y-72390000D03*
X160020000Y-72390000D03*
X162560000Y-69850000D03*
X160020000Y-69850000D03*
D15*
X161290000Y-111760000D03*
D16*
X179070000Y-66040000D03*
X161290000Y-66040000D03*
D15*
X179070000Y-111760000D03*
D13*
X218440000Y-135890000D03*
X218440000Y-60960000D03*
D14*
X203200000Y-107950000D03*
X205740000Y-107950000D03*
X203200000Y-105410000D03*
X205740000Y-105410000D03*
X203200000Y-102870000D03*
X205740000Y-102870000D03*
X205740000Y-100330000D03*
X203200000Y-100330000D03*
X203200000Y-97790000D03*
X205740000Y-97790000D03*
X205740000Y-95250000D03*
X203200000Y-95250000D03*
X203200000Y-92710000D03*
X205740000Y-92710000D03*
X203200000Y-90170000D03*
X205740000Y-90170000D03*
X205740000Y-87630000D03*
X203200000Y-87630000D03*
X205740000Y-85090000D03*
X203200000Y-85090000D03*
X203200000Y-82550000D03*
X205740000Y-82550000D03*
X203200000Y-80010000D03*
X205740000Y-80010000D03*
X185420000Y-107950000D03*
X187960000Y-107950000D03*
X185420000Y-105410000D03*
X187960000Y-105410000D03*
X185420000Y-102870000D03*
X187960000Y-102870000D03*
X185420000Y-100330000D03*
X187960000Y-100330000D03*
X187960000Y-97790000D03*
X185420000Y-97790000D03*
X187960000Y-95250000D03*
X185420000Y-95250000D03*
X185420000Y-92710000D03*
X187960000Y-92710000D03*
X185420000Y-90170000D03*
X187960000Y-90170000D03*
X185420000Y-87630000D03*
X187960000Y-87630000D03*
X187960000Y-85090000D03*
X185420000Y-85090000D03*
X187960000Y-82550000D03*
X185420000Y-82550000D03*
X187960000Y-80010000D03*
X185420000Y-80010000D03*
X187960000Y-77470000D03*
X185420000Y-77470000D03*
X187960000Y-74930000D03*
X185420000Y-74930000D03*
X185420000Y-72390000D03*
X187960000Y-72390000D03*
X185420000Y-69850000D03*
X187960000Y-69850000D03*
D16*
X204470000Y-66040000D03*
D15*
X204470000Y-111760000D03*
D16*
X186690000Y-66040000D03*
D15*
X186690000Y-111760000D03*
D17*
X121285000Y-115570000D03*
D18*
X122535000Y-115570000D03*
X123785000Y-115570000D03*
X125035000Y-115570000D03*
X126285000Y-115570000D03*
X127535000Y-115570000D03*
X128785000Y-115570000D03*
X130035000Y-115570000D03*
X131285000Y-115570000D03*
X132535000Y-115570000D03*
D14*
X140970000Y-99060000D03*
X140970000Y-101600000D03*
X140970000Y-104140000D03*
X140970000Y-106680000D03*
X153670000Y-96520000D03*
X153670000Y-99060000D03*
X153670000Y-101600000D03*
X153670000Y-104140000D03*
X153670000Y-106680000D03*
X153670000Y-109220000D03*
D16*
X140970000Y-113030000D03*
X153670000Y-113030000D03*
X140970000Y-92710000D03*
X153670000Y-92710000D03*
D13*
X91440000Y-135890000D03*
D19*
X215900000Y-67925000D03*
D20*
X215900000Y-78085000D03*
X219075000Y-74275000D03*
X219075000Y-71775000D03*
D21*
X132380000Y-69550000D03*
X132380000Y-108250000D03*
D19*
X212725000Y-78085000D03*
D20*
X212725000Y-67925000D03*
D14*
X153670000Y-67310000D03*
X153670000Y-69850000D03*
X153670000Y-72390000D03*
X153670000Y-74930000D03*
X153670000Y-77470000D03*
X153670000Y-80010000D03*
X153670000Y-82550000D03*
D16*
X140970000Y-64770000D03*
D15*
X153670000Y-85090000D03*
D16*
X140970000Y-85090000D03*
D15*
X153670000Y-64770000D03*
D22*
X203200000Y-129191500D03*
D23*
X208280000Y-129191500D03*
D20*
X181610000Y-121285000D03*
D19*
X191770000Y-121285000D03*
D20*
X181610000Y-118110000D03*
D19*
X191770000Y-118110000D03*
D22*
X152400000Y-129191500D03*
D23*
X157480000Y-129191500D03*
X162560000Y-129191500D03*
X167640000Y-129191500D03*
X142240000Y-129191500D03*
X137160000Y-129191500D03*
X132080000Y-129191500D03*
D22*
X127000000Y-129191500D03*
D12*
X207010000Y-119380000D03*
X209550000Y-119380000D03*
X212090000Y-119380000D03*
X217170000Y-119380000D03*
X214630000Y-119380000D03*
X219710000Y-119380000D03*
D22*
X177800000Y-129191500D03*
D23*
X182880000Y-129191500D03*
X187960000Y-129191500D03*
X193040000Y-129191500D03*
M02*
