G04 #@! TF.GenerationSoftware,KiCad,Pcbnew,(6.0.5-0)*
G04 #@! TF.CreationDate,2022-06-17T11:18:34-04:00*
G04 #@! TF.ProjectId,Cryologger AWS,4372796f-6c6f-4676-9765-72204157532e,rev?*
G04 #@! TF.SameCoordinates,Original*
G04 #@! TF.FileFunction,Soldermask,Bot*
G04 #@! TF.FilePolarity,Negative*
%FSLAX46Y46*%
G04 Gerber Fmt 4.6, Leading zero omitted, Abs format (unit mm)*
G04 Created by KiCad (PCBNEW (6.0.5-0)) date 2022-06-17 11:18:34*
%MOMM*%
%LPD*%
G01*
G04 APERTURE LIST*
G04 Aperture macros list*
%AMRoundRect*
0 Rectangle with rounded corners*
0 $1 Rounding radius*
0 $2 $3 $4 $5 $6 $7 $8 $9 X,Y pos of 4 corners*
0 Add a 4 corners polygon primitive as box body*
4,1,4,$2,$3,$4,$5,$6,$7,$8,$9,$2,$3,0*
0 Add four circle primitives for the rounded corners*
1,1,$1+$1,$2,$3*
1,1,$1+$1,$4,$5*
1,1,$1+$1,$6,$7*
1,1,$1+$1,$8,$9*
0 Add four rect primitives between the rounded corners*
20,1,$1+$1,$2,$3,$4,$5,0*
20,1,$1+$1,$4,$5,$6,$7,0*
20,1,$1+$1,$6,$7,$8,$9,0*
20,1,$1+$1,$8,$9,$2,$3,0*%
G04 Aperture macros list end*
%ADD10C,2.000000*%
%ADD11C,1.524000*%
%ADD12C,3.810000*%
%ADD13C,1.778000*%
%ADD14C,4.999990*%
%ADD15C,2.540000*%
%ADD16C,6.000000*%
%ADD17RoundRect,0.200000X-0.200000X-0.450000X0.200000X-0.450000X0.200000X0.450000X-0.200000X0.450000X0*%
%ADD18O,0.800000X1.300000*%
%ADD19C,1.600000*%
%ADD20O,1.600000X1.600000*%
%ADD21RoundRect,0.249999X-0.790001X-1.550001X0.790001X-1.550001X0.790001X1.550001X-0.790001X1.550001X0*%
%ADD22O,2.080000X3.600000*%
G04 APERTURE END LIST*
D10*
X118110000Y-124460000D03*
X123190000Y-124460000D03*
X128270000Y-124460000D03*
X133350000Y-124460000D03*
X138430000Y-124460000D03*
X143510000Y-124460000D03*
X148590000Y-124460000D03*
X153670000Y-124460000D03*
X158750000Y-124460000D03*
X163830000Y-124460000D03*
X168910000Y-124460000D03*
X173990000Y-124460000D03*
X179070000Y-124460000D03*
X184150000Y-124460000D03*
X189230000Y-124460000D03*
X194310000Y-124460000D03*
D11*
X213360000Y-116840000D03*
X213360000Y-111760000D03*
X213360000Y-114300000D03*
X213360000Y-109220000D03*
X213360000Y-106680000D03*
X213360000Y-104140000D03*
X218440000Y-93980000D03*
X215900000Y-93980000D03*
X213360000Y-93980000D03*
X210820000Y-93980000D03*
X210820000Y-83820000D03*
X213360000Y-83820000D03*
X215900000Y-83820000D03*
X218440000Y-83820000D03*
D12*
X140970000Y-113030000D03*
X140970000Y-92710000D03*
X153670000Y-113030000D03*
X153670000Y-92710000D03*
D13*
X153670000Y-109220000D03*
X153670000Y-106680000D03*
X153670000Y-104140000D03*
X153670000Y-101600000D03*
X153670000Y-99060000D03*
X153670000Y-96520000D03*
X140970000Y-106680000D03*
X140970000Y-104140000D03*
X140970000Y-101600000D03*
X140970000Y-99060000D03*
D14*
X132380000Y-108250000D03*
X132380000Y-69550000D03*
D13*
X153670000Y-67310000D03*
X153670000Y-69850000D03*
X153670000Y-72390000D03*
X153670000Y-74930000D03*
X153670000Y-77470000D03*
X153670000Y-80010000D03*
X153670000Y-82550000D03*
D15*
X153670000Y-85090000D03*
D12*
X140970000Y-64770000D03*
X140970000Y-85090000D03*
D15*
X153670000Y-64770000D03*
D16*
X91440000Y-60960000D03*
D13*
X177800000Y-107950000D03*
X180340000Y-107950000D03*
X177800000Y-105410000D03*
X180340000Y-105410000D03*
X180340000Y-102870000D03*
X177800000Y-102870000D03*
X177800000Y-100330000D03*
X180340000Y-100330000D03*
X180340000Y-97790000D03*
X177800000Y-97790000D03*
X180340000Y-95250000D03*
X177800000Y-95250000D03*
X177800000Y-92710000D03*
X180340000Y-92710000D03*
X177800000Y-90170000D03*
X180340000Y-90170000D03*
X180340000Y-87630000D03*
X177800000Y-87630000D03*
X180340000Y-85090000D03*
X177800000Y-85090000D03*
X180340000Y-82550000D03*
X177800000Y-82550000D03*
X180340000Y-80010000D03*
X177800000Y-80010000D03*
X160020000Y-107950000D03*
X162560000Y-107950000D03*
X160020000Y-105410000D03*
X162560000Y-105410000D03*
X160020000Y-102870000D03*
X162560000Y-102870000D03*
X162560000Y-100330000D03*
X160020000Y-100330000D03*
X162560000Y-97790000D03*
X160020000Y-97790000D03*
X162560000Y-95250000D03*
X160020000Y-95250000D03*
X160020000Y-92710000D03*
X162560000Y-92710000D03*
X162560000Y-90170000D03*
X160020000Y-90170000D03*
X162560000Y-87630000D03*
X160020000Y-87630000D03*
X162560000Y-85090000D03*
X160020000Y-85090000D03*
X160020000Y-82550000D03*
X162560000Y-82550000D03*
X162560000Y-80010000D03*
X160020000Y-80010000D03*
X162560000Y-77470000D03*
X160020000Y-77470000D03*
X160020000Y-74930000D03*
X162560000Y-74930000D03*
X162560000Y-72390000D03*
X160020000Y-72390000D03*
X162560000Y-69850000D03*
X160020000Y-69850000D03*
D15*
X161290000Y-111760000D03*
D12*
X179070000Y-66040000D03*
X161290000Y-66040000D03*
D15*
X179070000Y-111760000D03*
D16*
X218440000Y-135890000D03*
X218440000Y-60960000D03*
D13*
X203200000Y-107950000D03*
X205740000Y-107950000D03*
X203200000Y-105410000D03*
X205740000Y-105410000D03*
X203200000Y-102870000D03*
X205740000Y-102870000D03*
X205740000Y-100330000D03*
X203200000Y-100330000D03*
X203200000Y-97790000D03*
X205740000Y-97790000D03*
X205740000Y-95250000D03*
X203200000Y-95250000D03*
X203200000Y-92710000D03*
X205740000Y-92710000D03*
X203200000Y-90170000D03*
X205740000Y-90170000D03*
X205740000Y-87630000D03*
X203200000Y-87630000D03*
X205740000Y-85090000D03*
X203200000Y-85090000D03*
X203200000Y-82550000D03*
X205740000Y-82550000D03*
X203200000Y-80010000D03*
X205740000Y-80010000D03*
X185420000Y-107950000D03*
X187960000Y-107950000D03*
X185420000Y-105410000D03*
X187960000Y-105410000D03*
X185420000Y-102870000D03*
X187960000Y-102870000D03*
X185420000Y-100330000D03*
X187960000Y-100330000D03*
X187960000Y-97790000D03*
X185420000Y-97790000D03*
X187960000Y-95250000D03*
X185420000Y-95250000D03*
X185420000Y-92710000D03*
X187960000Y-92710000D03*
X185420000Y-90170000D03*
X187960000Y-90170000D03*
X185420000Y-87630000D03*
X187960000Y-87630000D03*
X187960000Y-85090000D03*
X185420000Y-85090000D03*
X187960000Y-82550000D03*
X185420000Y-82550000D03*
X187960000Y-80010000D03*
X185420000Y-80010000D03*
X187960000Y-77470000D03*
X185420000Y-77470000D03*
X187960000Y-74930000D03*
X185420000Y-74930000D03*
X185420000Y-72390000D03*
X187960000Y-72390000D03*
X185420000Y-69850000D03*
X187960000Y-69850000D03*
D12*
X204470000Y-66040000D03*
D15*
X204470000Y-111760000D03*
D12*
X186690000Y-66040000D03*
D15*
X186690000Y-111760000D03*
D17*
X121285000Y-115570000D03*
D18*
X122535000Y-115570000D03*
X123785000Y-115570000D03*
X125035000Y-115570000D03*
X126285000Y-115570000D03*
X127535000Y-115570000D03*
X128785000Y-115570000D03*
X130035000Y-115570000D03*
X131285000Y-115570000D03*
X132535000Y-115570000D03*
D16*
X91440000Y-135890000D03*
D19*
X215900000Y-78085000D03*
D20*
X215900000Y-67925000D03*
D19*
X219075000Y-71775000D03*
X219075000Y-74275000D03*
X212725000Y-67925000D03*
D20*
X212725000Y-78085000D03*
D21*
X204470000Y-129191500D03*
D22*
X209550000Y-129191500D03*
D21*
X118110000Y-129191500D03*
D22*
X123190000Y-129191500D03*
X128270000Y-129191500D03*
X133350000Y-129191500D03*
X138430000Y-129191500D03*
X143510000Y-129191500D03*
X148590000Y-129191500D03*
X153670000Y-129191500D03*
X158750000Y-129191500D03*
X163830000Y-129191500D03*
X168910000Y-129191500D03*
X173990000Y-129191500D03*
X179070000Y-129191500D03*
X184150000Y-129191500D03*
X189230000Y-129191500D03*
X194310000Y-129191500D03*
M02*
