%FSLAX45Y45*%
G04 Gerber Fmt 4.5, Leading zero omitted, Abs format (unit mm)*
G04 Created by KiCad (PCBNEW (6.0.2-0)) date 2022-04-17 22:51:51*
%MOMM*%
%LPD*%
G01*
G04 APERTURE LIST*
%TA.AperFunction,Profile*%
%ADD10C,0.050000*%
%TD*%
%ADD11C,0.200000*%
%ADD12C,0.040000*%
%ADD13C,0.050000*%
%ADD14C,0.076200*%
%ADD15C,0.080000*%
%ADD16C,0.100000*%
%ADD17C,0.101600*%
%ADD18C,0.140000*%
%ADD19C,0.250000*%
%ADD20C,0.254000*%
%ADD21C,0.300000*%
G04 APERTURE END LIST*
D10*
X8763000Y-13589000D02*
X8763000Y-6096000D01*
X8763000Y-13589000D02*
G75*
G03*
X9144000Y-13970000I381000J0D01*
G01*
X22225000Y-6096000D02*
X22225000Y-13589000D01*
X9144000Y-13970000D02*
X21844000Y-13970000D01*
X9144000Y-5715000D02*
X21844000Y-5715000D01*
X22225000Y-6096000D02*
G75*
G03*
X21844000Y-5715000I-381000J0D01*
G01*
X21844000Y-13970000D02*
G75*
G03*
X22225000Y-13589000I0J381000D01*
G01*
X9144000Y-5715000D02*
G75*
G03*
X8763000Y-6096000I0J-381000D01*
G01*
D11*
D12*
X9124000Y-6711000D02*
X9164000Y-6751000D01*
X9164000Y-6711000D02*
X9124000Y-6751000D01*
X9124000Y-8870000D02*
X9164000Y-8910000D01*
X9164000Y-8870000D02*
X9124000Y-8910000D01*
X9124000Y-11029000D02*
X9164000Y-11069000D01*
X9164000Y-11029000D02*
X9124000Y-11069000D01*
X10267000Y-7854000D02*
X10307000Y-7894000D01*
X10307000Y-7854000D02*
X10267000Y-7894000D01*
X10267000Y-9886000D02*
X10307000Y-9926000D01*
X10307000Y-9886000D02*
X10267000Y-9926000D01*
X10457500Y-13569000D02*
X10497500Y-13609000D01*
X10497500Y-13569000D02*
X10457500Y-13609000D01*
X11283000Y-6711000D02*
X11323000Y-6751000D01*
X11323000Y-6711000D02*
X11283000Y-6751000D01*
X11283000Y-8870000D02*
X11323000Y-8910000D01*
X11323000Y-8870000D02*
X11283000Y-8910000D01*
X11283000Y-11029000D02*
X11323000Y-11069000D01*
X11323000Y-11029000D02*
X11283000Y-11069000D01*
X11981500Y-12553000D02*
X12021500Y-12593000D01*
X12021500Y-12553000D02*
X11981500Y-12593000D01*
X12299000Y-7854000D02*
X12339000Y-7894000D01*
X12339000Y-7854000D02*
X12299000Y-7894000D01*
X12299000Y-10013000D02*
X12339000Y-10053000D01*
X12339000Y-10013000D02*
X12299000Y-10053000D01*
X13442000Y-8870000D02*
X13482000Y-8910000D01*
X13482000Y-8870000D02*
X13442000Y-8910000D01*
X13442000Y-12870500D02*
X13482000Y-12910500D01*
X13482000Y-12870500D02*
X13442000Y-12910500D01*
X13442000Y-13442000D02*
X13482000Y-13482000D01*
X13482000Y-13442000D02*
X13442000Y-13482000D01*
X13950000Y-7473000D02*
X13990000Y-7513000D01*
X13990000Y-7473000D02*
X13950000Y-7513000D01*
X13950000Y-11981500D02*
X13990000Y-12021500D01*
X13990000Y-11981500D02*
X13950000Y-12021500D01*
X14712000Y-6584000D02*
X14752000Y-6624000D01*
X14752000Y-6584000D02*
X14712000Y-6624000D01*
X14712000Y-7473000D02*
X14752000Y-7513000D01*
X14752000Y-7473000D02*
X14712000Y-7513000D01*
X14712000Y-8362000D02*
X14752000Y-8402000D01*
X14752000Y-8362000D02*
X14712000Y-8402000D01*
X14712000Y-9505000D02*
X14752000Y-9545000D01*
X14752000Y-9505000D02*
X14712000Y-9545000D01*
X14712000Y-10267000D02*
X14752000Y-10307000D01*
X14752000Y-10267000D02*
X14712000Y-10307000D01*
X14712000Y-11029000D02*
X14752000Y-11069000D01*
X14752000Y-11029000D02*
X14712000Y-11069000D01*
X14712000Y-12527600D02*
X14752000Y-12567600D01*
X14752000Y-12527600D02*
X14712000Y-12567600D01*
X15601000Y-10013000D02*
X15641000Y-10053000D01*
X15641000Y-10013000D02*
X15601000Y-10053000D01*
X15601000Y-11968800D02*
X15641000Y-12008800D01*
X15641000Y-11968800D02*
X15601000Y-12008800D01*
X15982000Y-12870500D02*
X16022000Y-12910500D01*
X16022000Y-12870500D02*
X15982000Y-12910500D01*
X15982000Y-13442000D02*
X16022000Y-13482000D01*
X16022000Y-13442000D02*
X15982000Y-13482000D01*
X16998000Y-6584000D02*
X17038000Y-6624000D01*
X17038000Y-6584000D02*
X16998000Y-6624000D01*
X16998000Y-7600000D02*
X17038000Y-7640000D01*
X17038000Y-7600000D02*
X16998000Y-7640000D01*
X16998000Y-8489000D02*
X17038000Y-8529000D01*
X17038000Y-8489000D02*
X16998000Y-8529000D01*
X16998000Y-9251000D02*
X17038000Y-9291000D01*
X17038000Y-9251000D02*
X16998000Y-9291000D01*
X16998000Y-10013000D02*
X17038000Y-10053000D01*
X17038000Y-10013000D02*
X16998000Y-10053000D01*
X16998000Y-11156000D02*
X17038000Y-11196000D01*
X17038000Y-11156000D02*
X16998000Y-11196000D01*
X16998000Y-11981500D02*
X17038000Y-12021500D01*
X17038000Y-11981500D02*
X16998000Y-12021500D01*
X17125000Y-10521000D02*
X17165000Y-10561000D01*
X17165000Y-10521000D02*
X17125000Y-10561000D01*
X17302800Y-10775000D02*
X17342800Y-10815000D01*
X17342800Y-10775000D02*
X17302800Y-10815000D01*
X18242600Y-10775000D02*
X18282600Y-10815000D01*
X18282600Y-10775000D02*
X18242600Y-10815000D01*
X18249485Y-11393230D02*
X18289485Y-11433230D01*
X18289485Y-11393230D02*
X18249485Y-11433230D01*
X18268000Y-7981000D02*
X18308000Y-8021000D01*
X18308000Y-7981000D02*
X18268000Y-8021000D01*
X18268000Y-10013000D02*
X18308000Y-10053000D01*
X18308000Y-10013000D02*
X18268000Y-10053000D01*
X18522000Y-12870500D02*
X18562000Y-12910500D01*
X18562000Y-12870500D02*
X18522000Y-12910500D01*
X18522000Y-13442000D02*
X18562000Y-13482000D01*
X18562000Y-13442000D02*
X18522000Y-13482000D01*
X19220500Y-11346500D02*
X19260500Y-11386500D01*
X19260500Y-11346500D02*
X19220500Y-11386500D01*
X19284000Y-8743000D02*
X19324000Y-8783000D01*
X19324000Y-8743000D02*
X19284000Y-8783000D01*
X19284000Y-8997000D02*
X19324000Y-9037000D01*
X19324000Y-8997000D02*
X19284000Y-9037000D01*
X19284000Y-9251000D02*
X19324000Y-9291000D01*
X19324000Y-9251000D02*
X19284000Y-9291000D01*
X19284000Y-9505000D02*
X19324000Y-9545000D01*
X19324000Y-9505000D02*
X19284000Y-9545000D01*
X19347500Y-11219500D02*
X19387500Y-11259500D01*
X19387500Y-11219500D02*
X19347500Y-11259500D01*
X19474500Y-11346500D02*
X19514500Y-11386500D01*
X19514500Y-11346500D02*
X19474500Y-11386500D01*
X19538000Y-6584000D02*
X19578000Y-6624000D01*
X19578000Y-6584000D02*
X19538000Y-6624000D01*
X19538000Y-7600000D02*
X19578000Y-7640000D01*
X19578000Y-7600000D02*
X19538000Y-7640000D01*
X19538000Y-8235000D02*
X19578000Y-8275000D01*
X19578000Y-8235000D02*
X19538000Y-8275000D01*
X19538000Y-8489000D02*
X19578000Y-8529000D01*
X19578000Y-8489000D02*
X19538000Y-8529000D01*
X19601500Y-11219500D02*
X19641500Y-11259500D01*
X19641500Y-11219500D02*
X19601500Y-11259500D01*
X19728500Y-11346500D02*
X19768500Y-11386500D01*
X19768500Y-11346500D02*
X19728500Y-11386500D01*
X19792000Y-12108500D02*
X19832000Y-12148500D01*
X19832000Y-12108500D02*
X19792000Y-12148500D01*
X19982500Y-10013000D02*
X20022500Y-10053000D01*
X20022500Y-10013000D02*
X19982500Y-10053000D01*
X19982500Y-10267000D02*
X20022500Y-10307000D01*
X20022500Y-10267000D02*
X19982500Y-10307000D01*
X20554000Y-13442000D02*
X20594000Y-13482000D01*
X20594000Y-13442000D02*
X20554000Y-13482000D01*
X20871500Y-7282500D02*
X20911500Y-7322500D01*
X20911500Y-7282500D02*
X20871500Y-7322500D01*
X21189000Y-8806500D02*
X21229000Y-8846500D01*
X21229000Y-8806500D02*
X21189000Y-8846500D01*
X21189000Y-9759000D02*
X21229000Y-9799000D01*
X21229000Y-9759000D02*
X21189000Y-9799000D01*
X21697000Y-12616500D02*
X21737000Y-12656500D01*
X21737000Y-12616500D02*
X21697000Y-12656500D01*
X21824000Y-11219500D02*
X21864000Y-11259500D01*
X21864000Y-11219500D02*
X21824000Y-11259500D01*
X21887500Y-7790500D02*
X21927500Y-7830500D01*
X21927500Y-7790500D02*
X21887500Y-7830500D01*
D13*
X12153500Y-11557000D02*
G75*
G03*
X12153500Y-11557000I-25000J0D01*
G01*
X12278500Y-11557000D02*
G75*
G03*
X12278500Y-11557000I-25000J0D01*
G01*
X12403500Y-11557000D02*
G75*
G03*
X12403500Y-11557000I-25000J0D01*
G01*
X12528500Y-11557000D02*
G75*
G03*
X12528500Y-11557000I-25000J0D01*
G01*
X12653500Y-11557000D02*
G75*
G03*
X12653500Y-11557000I-25000J0D01*
G01*
X12778500Y-11557000D02*
G75*
G03*
X12778500Y-11557000I-25000J0D01*
G01*
X12903500Y-11557000D02*
G75*
G03*
X12903500Y-11557000I-25000J0D01*
G01*
X13028500Y-11557000D02*
G75*
G03*
X13028500Y-11557000I-25000J0D01*
G01*
X13153500Y-11557000D02*
G75*
G03*
X13153500Y-11557000I-25000J0D01*
G01*
X13278500Y-11557000D02*
G75*
G03*
X13278500Y-11557000I-25000J0D01*
G01*
D14*
X20701000Y-11899900D02*
X20701000Y-11976100D01*
X20662900Y-11938000D02*
X20739100Y-11938000D01*
X20955000Y-11899900D02*
X20955000Y-11976100D01*
X20916900Y-11938000D02*
X20993100Y-11938000D01*
X21082000Y-8343900D02*
X21082000Y-8420100D01*
X21043900Y-8382000D02*
X21120100Y-8382000D01*
X21082000Y-9359900D02*
X21082000Y-9436100D01*
X21043900Y-9398000D02*
X21120100Y-9398000D01*
X21082000Y-10375900D02*
X21082000Y-10452100D01*
X21043900Y-10414000D02*
X21120100Y-10414000D01*
X21209000Y-11899900D02*
X21209000Y-11976100D01*
X21170900Y-11938000D02*
X21247100Y-11938000D01*
X21336000Y-8343900D02*
X21336000Y-8420100D01*
X21297900Y-8382000D02*
X21374100Y-8382000D01*
X21336000Y-9359900D02*
X21336000Y-9436100D01*
X21297900Y-9398000D02*
X21374100Y-9398000D01*
X21336000Y-10375900D02*
X21336000Y-10452100D01*
X21297900Y-10414000D02*
X21374100Y-10414000D01*
X21463000Y-11899900D02*
X21463000Y-11976100D01*
X21424900Y-11938000D02*
X21501100Y-11938000D01*
X21590000Y-8343900D02*
X21590000Y-8420100D01*
X21551900Y-8382000D02*
X21628100Y-8382000D01*
X21590000Y-9359900D02*
X21590000Y-9436100D01*
X21551900Y-9398000D02*
X21628100Y-9398000D01*
X21590000Y-10375900D02*
X21590000Y-10452100D01*
X21551900Y-10414000D02*
X21628100Y-10414000D01*
X21717000Y-11899900D02*
X21717000Y-11976100D01*
X21678900Y-11938000D02*
X21755100Y-11938000D01*
X21844000Y-8343900D02*
X21844000Y-8420100D01*
X21805900Y-8382000D02*
X21882100Y-8382000D01*
X21844000Y-9359900D02*
X21844000Y-9436100D01*
X21805900Y-9398000D02*
X21882100Y-9398000D01*
X21844000Y-10375900D02*
X21844000Y-10452100D01*
X21805900Y-10414000D02*
X21882100Y-10414000D01*
X21971000Y-11899900D02*
X21971000Y-11976100D01*
X21932900Y-11938000D02*
X22009100Y-11938000D01*
D15*
X18189285Y-11839284D02*
X18189285Y-11782715D01*
X18132716Y-11782715D01*
X18132716Y-11839284D01*
X18189285Y-11839284D01*
X18189285Y-12156784D02*
X18189285Y-12100215D01*
X18132716Y-12100215D01*
X18132716Y-12156784D01*
X18189285Y-12156784D01*
X19205285Y-11839284D02*
X19205285Y-11782715D01*
X19148716Y-11782715D01*
X19148716Y-11839284D01*
X19205285Y-11839284D01*
X19205285Y-12156784D02*
X19205285Y-12100215D01*
X19148716Y-12100215D01*
X19148716Y-12156784D01*
X19205285Y-12156784D01*
X21300785Y-6820784D02*
X21300785Y-6764215D01*
X21244216Y-6764215D01*
X21244216Y-6820784D01*
X21300785Y-6820784D01*
X21300785Y-7836784D02*
X21300785Y-7780215D01*
X21244216Y-7780215D01*
X21244216Y-7836784D01*
X21300785Y-7836784D01*
X21618285Y-6820784D02*
X21618285Y-6764215D01*
X21561716Y-6764215D01*
X21561716Y-6820784D01*
X21618285Y-6820784D01*
X21618285Y-7836784D02*
X21618285Y-7780215D01*
X21561716Y-7780215D01*
X21561716Y-7836784D01*
X21618285Y-7836784D01*
X21935785Y-7205784D02*
X21935785Y-7149215D01*
X21879216Y-7149215D01*
X21879216Y-7205784D01*
X21935785Y-7205784D01*
X21935785Y-7455784D02*
X21935785Y-7399215D01*
X21879216Y-7399215D01*
X21879216Y-7455784D01*
X21935785Y-7455784D01*
D16*
X16002000Y-7289000D02*
X16052000Y-7239000D01*
X16002000Y-7189000D01*
X15952000Y-7239000D01*
X16002000Y-7289000D01*
X16002000Y-7543000D02*
X16052000Y-7493000D01*
X16002000Y-7443000D01*
X15952000Y-7493000D01*
X16002000Y-7543000D01*
X16002000Y-7797000D02*
X16052000Y-7747000D01*
X16002000Y-7697000D01*
X15952000Y-7747000D01*
X16002000Y-7797000D01*
X16002000Y-8051000D02*
X16052000Y-8001000D01*
X16002000Y-7951000D01*
X15952000Y-8001000D01*
X16002000Y-8051000D01*
X16002000Y-8305000D02*
X16052000Y-8255000D01*
X16002000Y-8205000D01*
X15952000Y-8255000D01*
X16002000Y-8305000D01*
X16002000Y-8559000D02*
X16052000Y-8509000D01*
X16002000Y-8459000D01*
X15952000Y-8509000D01*
X16002000Y-8559000D01*
X16002000Y-8813000D02*
X16052000Y-8763000D01*
X16002000Y-8713000D01*
X15952000Y-8763000D01*
X16002000Y-8813000D01*
X16002000Y-9067000D02*
X16052000Y-9017000D01*
X16002000Y-8967000D01*
X15952000Y-9017000D01*
X16002000Y-9067000D01*
X16002000Y-9321000D02*
X16052000Y-9271000D01*
X16002000Y-9221000D01*
X15952000Y-9271000D01*
X16002000Y-9321000D01*
X16002000Y-9575000D02*
X16052000Y-9525000D01*
X16002000Y-9475000D01*
X15952000Y-9525000D01*
X16002000Y-9575000D01*
X16002000Y-9829000D02*
X16052000Y-9779000D01*
X16002000Y-9729000D01*
X15952000Y-9779000D01*
X16002000Y-9829000D01*
X16002000Y-10083000D02*
X16052000Y-10033000D01*
X16002000Y-9983000D01*
X15952000Y-10033000D01*
X16002000Y-10083000D01*
X16002000Y-10337000D02*
X16052000Y-10287000D01*
X16002000Y-10237000D01*
X15952000Y-10287000D01*
X16002000Y-10337000D01*
X16002000Y-10591000D02*
X16052000Y-10541000D01*
X16002000Y-10491000D01*
X15952000Y-10541000D01*
X16002000Y-10591000D01*
X16002000Y-10845000D02*
X16052000Y-10795000D01*
X16002000Y-10745000D01*
X15952000Y-10795000D01*
X16002000Y-10845000D01*
X16256000Y-7289000D02*
X16306000Y-7239000D01*
X16256000Y-7189000D01*
X16206000Y-7239000D01*
X16256000Y-7289000D01*
X16256000Y-7543000D02*
X16306000Y-7493000D01*
X16256000Y-7443000D01*
X16206000Y-7493000D01*
X16256000Y-7543000D01*
X16256000Y-7797000D02*
X16306000Y-7747000D01*
X16256000Y-7697000D01*
X16206000Y-7747000D01*
X16256000Y-7797000D01*
X16256000Y-8051000D02*
X16306000Y-8001000D01*
X16256000Y-7951000D01*
X16206000Y-8001000D01*
X16256000Y-8051000D01*
X16256000Y-8305000D02*
X16306000Y-8255000D01*
X16256000Y-8205000D01*
X16206000Y-8255000D01*
X16256000Y-8305000D01*
X16256000Y-8559000D02*
X16306000Y-8509000D01*
X16256000Y-8459000D01*
X16206000Y-8509000D01*
X16256000Y-8559000D01*
X16256000Y-8813000D02*
X16306000Y-8763000D01*
X16256000Y-8713000D01*
X16206000Y-8763000D01*
X16256000Y-8813000D01*
X16256000Y-9067000D02*
X16306000Y-9017000D01*
X16256000Y-8967000D01*
X16206000Y-9017000D01*
X16256000Y-9067000D01*
X16256000Y-9321000D02*
X16306000Y-9271000D01*
X16256000Y-9221000D01*
X16206000Y-9271000D01*
X16256000Y-9321000D01*
X16256000Y-9575000D02*
X16306000Y-9525000D01*
X16256000Y-9475000D01*
X16206000Y-9525000D01*
X16256000Y-9575000D01*
X16256000Y-9829000D02*
X16306000Y-9779000D01*
X16256000Y-9729000D01*
X16206000Y-9779000D01*
X16256000Y-9829000D01*
X16256000Y-10083000D02*
X16306000Y-10033000D01*
X16256000Y-9983000D01*
X16206000Y-10033000D01*
X16256000Y-10083000D01*
X16256000Y-10337000D02*
X16306000Y-10287000D01*
X16256000Y-10237000D01*
X16206000Y-10287000D01*
X16256000Y-10337000D01*
X16256000Y-10591000D02*
X16306000Y-10541000D01*
X16256000Y-10491000D01*
X16206000Y-10541000D01*
X16256000Y-10591000D01*
X16256000Y-10845000D02*
X16306000Y-10795000D01*
X16256000Y-10745000D01*
X16206000Y-10795000D01*
X16256000Y-10845000D01*
X17780000Y-8051000D02*
X17830000Y-8001000D01*
X17780000Y-7951000D01*
X17730000Y-8001000D01*
X17780000Y-8051000D01*
X17780000Y-8305000D02*
X17830000Y-8255000D01*
X17780000Y-8205000D01*
X17730000Y-8255000D01*
X17780000Y-8305000D01*
X17780000Y-8559000D02*
X17830000Y-8509000D01*
X17780000Y-8459000D01*
X17730000Y-8509000D01*
X17780000Y-8559000D01*
X17780000Y-8813000D02*
X17830000Y-8763000D01*
X17780000Y-8713000D01*
X17730000Y-8763000D01*
X17780000Y-8813000D01*
X17780000Y-9067000D02*
X17830000Y-9017000D01*
X17780000Y-8967000D01*
X17730000Y-9017000D01*
X17780000Y-9067000D01*
X17780000Y-9321000D02*
X17830000Y-9271000D01*
X17780000Y-9221000D01*
X17730000Y-9271000D01*
X17780000Y-9321000D01*
X17780000Y-9575000D02*
X17830000Y-9525000D01*
X17780000Y-9475000D01*
X17730000Y-9525000D01*
X17780000Y-9575000D01*
X17780000Y-9829000D02*
X17830000Y-9779000D01*
X17780000Y-9729000D01*
X17730000Y-9779000D01*
X17780000Y-9829000D01*
X17780000Y-10083000D02*
X17830000Y-10033000D01*
X17780000Y-9983000D01*
X17730000Y-10033000D01*
X17780000Y-10083000D01*
X17780000Y-10337000D02*
X17830000Y-10287000D01*
X17780000Y-10237000D01*
X17730000Y-10287000D01*
X17780000Y-10337000D01*
X17780000Y-10591000D02*
X17830000Y-10541000D01*
X17780000Y-10491000D01*
X17730000Y-10541000D01*
X17780000Y-10591000D01*
X17780000Y-10845000D02*
X17830000Y-10795000D01*
X17780000Y-10745000D01*
X17730000Y-10795000D01*
X17780000Y-10845000D01*
X18034000Y-8051000D02*
X18084000Y-8001000D01*
X18034000Y-7951000D01*
X17984000Y-8001000D01*
X18034000Y-8051000D01*
X18034000Y-8305000D02*
X18084000Y-8255000D01*
X18034000Y-8205000D01*
X17984000Y-8255000D01*
X18034000Y-8305000D01*
X18034000Y-8559000D02*
X18084000Y-8509000D01*
X18034000Y-8459000D01*
X17984000Y-8509000D01*
X18034000Y-8559000D01*
X18034000Y-8813000D02*
X18084000Y-8763000D01*
X18034000Y-8713000D01*
X17984000Y-8763000D01*
X18034000Y-8813000D01*
X18034000Y-9067000D02*
X18084000Y-9017000D01*
X18034000Y-8967000D01*
X17984000Y-9017000D01*
X18034000Y-9067000D01*
X18034000Y-9321000D02*
X18084000Y-9271000D01*
X18034000Y-9221000D01*
X17984000Y-9271000D01*
X18034000Y-9321000D01*
X18034000Y-9575000D02*
X18084000Y-9525000D01*
X18034000Y-9475000D01*
X17984000Y-9525000D01*
X18034000Y-9575000D01*
X18034000Y-9829000D02*
X18084000Y-9779000D01*
X18034000Y-9729000D01*
X17984000Y-9779000D01*
X18034000Y-9829000D01*
X18034000Y-10083000D02*
X18084000Y-10033000D01*
X18034000Y-9983000D01*
X17984000Y-10033000D01*
X18034000Y-10083000D01*
X18034000Y-10337000D02*
X18084000Y-10287000D01*
X18034000Y-10237000D01*
X17984000Y-10287000D01*
X18034000Y-10337000D01*
X18034000Y-10591000D02*
X18084000Y-10541000D01*
X18034000Y-10491000D01*
X17984000Y-10541000D01*
X18034000Y-10591000D01*
X18034000Y-10845000D02*
X18084000Y-10795000D01*
X18034000Y-10745000D01*
X17984000Y-10795000D01*
X18034000Y-10845000D01*
X18542000Y-7289000D02*
X18592000Y-7239000D01*
X18542000Y-7189000D01*
X18492000Y-7239000D01*
X18542000Y-7289000D01*
X18542000Y-7543000D02*
X18592000Y-7493000D01*
X18542000Y-7443000D01*
X18492000Y-7493000D01*
X18542000Y-7543000D01*
X18542000Y-7797000D02*
X18592000Y-7747000D01*
X18542000Y-7697000D01*
X18492000Y-7747000D01*
X18542000Y-7797000D01*
X18542000Y-8051000D02*
X18592000Y-8001000D01*
X18542000Y-7951000D01*
X18492000Y-8001000D01*
X18542000Y-8051000D01*
X18542000Y-8305000D02*
X18592000Y-8255000D01*
X18542000Y-8205000D01*
X18492000Y-8255000D01*
X18542000Y-8305000D01*
X18542000Y-8559000D02*
X18592000Y-8509000D01*
X18542000Y-8459000D01*
X18492000Y-8509000D01*
X18542000Y-8559000D01*
X18542000Y-8813000D02*
X18592000Y-8763000D01*
X18542000Y-8713000D01*
X18492000Y-8763000D01*
X18542000Y-8813000D01*
X18542000Y-9067000D02*
X18592000Y-9017000D01*
X18542000Y-8967000D01*
X18492000Y-9017000D01*
X18542000Y-9067000D01*
X18542000Y-9321000D02*
X18592000Y-9271000D01*
X18542000Y-9221000D01*
X18492000Y-9271000D01*
X18542000Y-9321000D01*
X18542000Y-9575000D02*
X18592000Y-9525000D01*
X18542000Y-9475000D01*
X18492000Y-9525000D01*
X18542000Y-9575000D01*
X18542000Y-9829000D02*
X18592000Y-9779000D01*
X18542000Y-9729000D01*
X18492000Y-9779000D01*
X18542000Y-9829000D01*
X18542000Y-10083000D02*
X18592000Y-10033000D01*
X18542000Y-9983000D01*
X18492000Y-10033000D01*
X18542000Y-10083000D01*
X18542000Y-10337000D02*
X18592000Y-10287000D01*
X18542000Y-10237000D01*
X18492000Y-10287000D01*
X18542000Y-10337000D01*
X18542000Y-10591000D02*
X18592000Y-10541000D01*
X18542000Y-10491000D01*
X18492000Y-10541000D01*
X18542000Y-10591000D01*
X18542000Y-10845000D02*
X18592000Y-10795000D01*
X18542000Y-10745000D01*
X18492000Y-10795000D01*
X18542000Y-10845000D01*
X18796000Y-7289000D02*
X18846000Y-7239000D01*
X18796000Y-7189000D01*
X18746000Y-7239000D01*
X18796000Y-7289000D01*
X18796000Y-7543000D02*
X18846000Y-7493000D01*
X18796000Y-7443000D01*
X18746000Y-7493000D01*
X18796000Y-7543000D01*
X18796000Y-7797000D02*
X18846000Y-7747000D01*
X18796000Y-7697000D01*
X18746000Y-7747000D01*
X18796000Y-7797000D01*
X18796000Y-8051000D02*
X18846000Y-8001000D01*
X18796000Y-7951000D01*
X18746000Y-8001000D01*
X18796000Y-8051000D01*
X18796000Y-8305000D02*
X18846000Y-8255000D01*
X18796000Y-8205000D01*
X18746000Y-8255000D01*
X18796000Y-8305000D01*
X18796000Y-8559000D02*
X18846000Y-8509000D01*
X18796000Y-8459000D01*
X18746000Y-8509000D01*
X18796000Y-8559000D01*
X18796000Y-8813000D02*
X18846000Y-8763000D01*
X18796000Y-8713000D01*
X18746000Y-8763000D01*
X18796000Y-8813000D01*
X18796000Y-9067000D02*
X18846000Y-9017000D01*
X18796000Y-8967000D01*
X18746000Y-9017000D01*
X18796000Y-9067000D01*
X18796000Y-9321000D02*
X18846000Y-9271000D01*
X18796000Y-9221000D01*
X18746000Y-9271000D01*
X18796000Y-9321000D01*
X18796000Y-9575000D02*
X18846000Y-9525000D01*
X18796000Y-9475000D01*
X18746000Y-9525000D01*
X18796000Y-9575000D01*
X18796000Y-9829000D02*
X18846000Y-9779000D01*
X18796000Y-9729000D01*
X18746000Y-9779000D01*
X18796000Y-9829000D01*
X18796000Y-10083000D02*
X18846000Y-10033000D01*
X18796000Y-9983000D01*
X18746000Y-10033000D01*
X18796000Y-10083000D01*
X18796000Y-10337000D02*
X18846000Y-10287000D01*
X18796000Y-10237000D01*
X18746000Y-10287000D01*
X18796000Y-10337000D01*
X18796000Y-10591000D02*
X18846000Y-10541000D01*
X18796000Y-10491000D01*
X18746000Y-10541000D01*
X18796000Y-10591000D01*
X18796000Y-10845000D02*
X18846000Y-10795000D01*
X18796000Y-10745000D01*
X18746000Y-10795000D01*
X18796000Y-10845000D01*
X20320000Y-8051000D02*
X20370000Y-8001000D01*
X20320000Y-7951000D01*
X20270000Y-8001000D01*
X20320000Y-8051000D01*
X20320000Y-8305000D02*
X20370000Y-8255000D01*
X20320000Y-8205000D01*
X20270000Y-8255000D01*
X20320000Y-8305000D01*
X20320000Y-8559000D02*
X20370000Y-8509000D01*
X20320000Y-8459000D01*
X20270000Y-8509000D01*
X20320000Y-8559000D01*
X20320000Y-8813000D02*
X20370000Y-8763000D01*
X20320000Y-8713000D01*
X20270000Y-8763000D01*
X20320000Y-8813000D01*
X20320000Y-9067000D02*
X20370000Y-9017000D01*
X20320000Y-8967000D01*
X20270000Y-9017000D01*
X20320000Y-9067000D01*
X20320000Y-9321000D02*
X20370000Y-9271000D01*
X20320000Y-9221000D01*
X20270000Y-9271000D01*
X20320000Y-9321000D01*
X20320000Y-9575000D02*
X20370000Y-9525000D01*
X20320000Y-9475000D01*
X20270000Y-9525000D01*
X20320000Y-9575000D01*
X20320000Y-9829000D02*
X20370000Y-9779000D01*
X20320000Y-9729000D01*
X20270000Y-9779000D01*
X20320000Y-9829000D01*
X20320000Y-10083000D02*
X20370000Y-10033000D01*
X20320000Y-9983000D01*
X20270000Y-10033000D01*
X20320000Y-10083000D01*
X20320000Y-10337000D02*
X20370000Y-10287000D01*
X20320000Y-10237000D01*
X20270000Y-10287000D01*
X20320000Y-10337000D01*
X20320000Y-10591000D02*
X20370000Y-10541000D01*
X20320000Y-10491000D01*
X20270000Y-10541000D01*
X20320000Y-10591000D01*
X20320000Y-10845000D02*
X20370000Y-10795000D01*
X20320000Y-10745000D01*
X20270000Y-10795000D01*
X20320000Y-10845000D01*
X20574000Y-8051000D02*
X20624000Y-8001000D01*
X20574000Y-7951000D01*
X20524000Y-8001000D01*
X20574000Y-8051000D01*
X20574000Y-8305000D02*
X20624000Y-8255000D01*
X20574000Y-8205000D01*
X20524000Y-8255000D01*
X20574000Y-8305000D01*
X20574000Y-8559000D02*
X20624000Y-8509000D01*
X20574000Y-8459000D01*
X20524000Y-8509000D01*
X20574000Y-8559000D01*
X20574000Y-8813000D02*
X20624000Y-8763000D01*
X20574000Y-8713000D01*
X20524000Y-8763000D01*
X20574000Y-8813000D01*
X20574000Y-9067000D02*
X20624000Y-9017000D01*
X20574000Y-8967000D01*
X20524000Y-9017000D01*
X20574000Y-9067000D01*
X20574000Y-9321000D02*
X20624000Y-9271000D01*
X20574000Y-9221000D01*
X20524000Y-9271000D01*
X20574000Y-9321000D01*
X20574000Y-9575000D02*
X20624000Y-9525000D01*
X20574000Y-9475000D01*
X20524000Y-9525000D01*
X20574000Y-9575000D01*
X20574000Y-9829000D02*
X20624000Y-9779000D01*
X20574000Y-9729000D01*
X20524000Y-9779000D01*
X20574000Y-9829000D01*
X20574000Y-10083000D02*
X20624000Y-10033000D01*
X20574000Y-9983000D01*
X20524000Y-10033000D01*
X20574000Y-10083000D01*
X20574000Y-10337000D02*
X20624000Y-10287000D01*
X20574000Y-10237000D01*
X20524000Y-10287000D01*
X20574000Y-10337000D01*
X20574000Y-10591000D02*
X20624000Y-10541000D01*
X20574000Y-10491000D01*
X20524000Y-10541000D01*
X20574000Y-10591000D01*
X20574000Y-10845000D02*
X20624000Y-10795000D01*
X20574000Y-10745000D01*
X20524000Y-10795000D01*
X20574000Y-10845000D01*
D17*
X14046200Y-9855200D02*
X14147800Y-9956800D01*
X14147800Y-9855200D02*
X14046200Y-9956800D01*
X14147800Y-9906000D02*
G75*
G03*
X14147800Y-9906000I-50800J0D01*
G01*
X14046200Y-10109200D02*
X14147800Y-10210800D01*
X14147800Y-10109200D02*
X14046200Y-10210800D01*
X14147800Y-10160000D02*
G75*
G03*
X14147800Y-10160000I-50800J0D01*
G01*
X14046200Y-10363200D02*
X14147800Y-10464800D01*
X14147800Y-10363200D02*
X14046200Y-10464800D01*
X14147800Y-10414000D02*
G75*
G03*
X14147800Y-10414000I-50800J0D01*
G01*
X14046200Y-10617200D02*
X14147800Y-10718800D01*
X14147800Y-10617200D02*
X14046200Y-10718800D01*
X14147800Y-10668000D02*
G75*
G03*
X14147800Y-10668000I-50800J0D01*
G01*
X15316200Y-6680200D02*
X15417800Y-6781800D01*
X15417800Y-6680200D02*
X15316200Y-6781800D01*
X15417800Y-6731000D02*
G75*
G03*
X15417800Y-6731000I-50800J0D01*
G01*
X15316200Y-6934200D02*
X15417800Y-7035800D01*
X15417800Y-6934200D02*
X15316200Y-7035800D01*
X15417800Y-6985000D02*
G75*
G03*
X15417800Y-6985000I-50800J0D01*
G01*
X15316200Y-7188200D02*
X15417800Y-7289800D01*
X15417800Y-7188200D02*
X15316200Y-7289800D01*
X15417800Y-7239000D02*
G75*
G03*
X15417800Y-7239000I-50800J0D01*
G01*
X15316200Y-7442200D02*
X15417800Y-7543800D01*
X15417800Y-7442200D02*
X15316200Y-7543800D01*
X15417800Y-7493000D02*
G75*
G03*
X15417800Y-7493000I-50800J0D01*
G01*
X15316200Y-7696200D02*
X15417800Y-7797800D01*
X15417800Y-7696200D02*
X15316200Y-7797800D01*
X15417800Y-7747000D02*
G75*
G03*
X15417800Y-7747000I-50800J0D01*
G01*
X15316200Y-7950200D02*
X15417800Y-8051800D01*
X15417800Y-7950200D02*
X15316200Y-8051800D01*
X15417800Y-8001000D02*
G75*
G03*
X15417800Y-8001000I-50800J0D01*
G01*
X15316200Y-8204200D02*
X15417800Y-8305800D01*
X15417800Y-8204200D02*
X15316200Y-8305800D01*
X15417800Y-8255000D02*
G75*
G03*
X15417800Y-8255000I-50800J0D01*
G01*
X15316200Y-9601200D02*
X15417800Y-9702800D01*
X15417800Y-9601200D02*
X15316200Y-9702800D01*
X15417800Y-9652000D02*
G75*
G03*
X15417800Y-9652000I-50800J0D01*
G01*
X15316200Y-9855200D02*
X15417800Y-9956800D01*
X15417800Y-9855200D02*
X15316200Y-9956800D01*
X15417800Y-9906000D02*
G75*
G03*
X15417800Y-9906000I-50800J0D01*
G01*
X15316200Y-10109200D02*
X15417800Y-10210800D01*
X15417800Y-10109200D02*
X15316200Y-10210800D01*
X15417800Y-10160000D02*
G75*
G03*
X15417800Y-10160000I-50800J0D01*
G01*
X15316200Y-10363200D02*
X15417800Y-10464800D01*
X15417800Y-10363200D02*
X15316200Y-10464800D01*
X15417800Y-10414000D02*
G75*
G03*
X15417800Y-10414000I-50800J0D01*
G01*
X15316200Y-10617200D02*
X15417800Y-10718800D01*
X15417800Y-10617200D02*
X15316200Y-10718800D01*
X15417800Y-10668000D02*
G75*
G03*
X15417800Y-10668000I-50800J0D01*
G01*
X15316200Y-10871200D02*
X15417800Y-10972800D01*
X15417800Y-10871200D02*
X15316200Y-10972800D01*
X15417800Y-10922000D02*
G75*
G03*
X15417800Y-10922000I-50800J0D01*
G01*
X15951200Y-6934200D02*
X16052800Y-7035800D01*
X16052800Y-6934200D02*
X15951200Y-7035800D01*
X16052800Y-6985000D02*
G75*
G03*
X16052800Y-6985000I-50800J0D01*
G01*
X16205200Y-6934200D02*
X16306800Y-7035800D01*
X16306800Y-6934200D02*
X16205200Y-7035800D01*
X16306800Y-6985000D02*
G75*
G03*
X16306800Y-6985000I-50800J0D01*
G01*
X18491200Y-6934200D02*
X18592800Y-7035800D01*
X18592800Y-6934200D02*
X18491200Y-7035800D01*
X18592800Y-6985000D02*
G75*
G03*
X18592800Y-6985000I-50800J0D01*
G01*
X18745200Y-6934200D02*
X18846800Y-7035800D01*
X18846800Y-6934200D02*
X18745200Y-7035800D01*
X18846800Y-6985000D02*
G75*
G03*
X18846800Y-6985000I-50800J0D01*
G01*
D18*
X12630000Y-12849150D02*
X12770000Y-12989150D01*
X12770000Y-12849150D02*
X12630000Y-12989150D01*
X12700000Y-12849150D02*
X12700000Y-12989150D01*
X12630000Y-12919150D02*
X12770000Y-12919150D01*
X13138000Y-12849150D02*
X13278000Y-12989150D01*
X13278000Y-12849150D02*
X13138000Y-12989150D01*
X13208000Y-12849150D02*
X13208000Y-12989150D01*
X13138000Y-12919150D02*
X13278000Y-12919150D01*
X13646000Y-12849150D02*
X13786000Y-12989150D01*
X13786000Y-12849150D02*
X13646000Y-12989150D01*
X13716000Y-12849150D02*
X13716000Y-12989150D01*
X13646000Y-12919150D02*
X13786000Y-12919150D01*
X14154000Y-12849150D02*
X14294000Y-12989150D01*
X14294000Y-12849150D02*
X14154000Y-12989150D01*
X14224000Y-12849150D02*
X14224000Y-12989150D01*
X14154000Y-12919150D02*
X14294000Y-12919150D01*
X15170000Y-12849150D02*
X15310000Y-12989150D01*
X15310000Y-12849150D02*
X15170000Y-12989150D01*
X15240000Y-12849150D02*
X15240000Y-12989150D01*
X15170000Y-12919150D02*
X15310000Y-12919150D01*
X15678000Y-12849150D02*
X15818000Y-12989150D01*
X15818000Y-12849150D02*
X15678000Y-12989150D01*
X15748000Y-12849150D02*
X15748000Y-12989150D01*
X15678000Y-12919150D02*
X15818000Y-12919150D01*
X16186000Y-12849150D02*
X16326000Y-12989150D01*
X16326000Y-12849150D02*
X16186000Y-12989150D01*
X16256000Y-12849150D02*
X16256000Y-12989150D01*
X16186000Y-12919150D02*
X16326000Y-12919150D01*
X16694000Y-12849150D02*
X16834000Y-12989150D01*
X16834000Y-12849150D02*
X16694000Y-12989150D01*
X16764000Y-12849150D02*
X16764000Y-12989150D01*
X16694000Y-12919150D02*
X16834000Y-12919150D01*
X17710000Y-12849150D02*
X17850000Y-12989150D01*
X17850000Y-12849150D02*
X17710000Y-12989150D01*
X17780000Y-12849150D02*
X17780000Y-12989150D01*
X17710000Y-12919150D02*
X17850000Y-12919150D01*
X18218000Y-12849150D02*
X18358000Y-12989150D01*
X18358000Y-12849150D02*
X18218000Y-12989150D01*
X18288000Y-12849150D02*
X18288000Y-12989150D01*
X18218000Y-12919150D02*
X18358000Y-12919150D01*
X18726000Y-12849150D02*
X18866000Y-12989150D01*
X18866000Y-12849150D02*
X18726000Y-12989150D01*
X18796000Y-12849150D02*
X18796000Y-12989150D01*
X18726000Y-12919150D02*
X18866000Y-12919150D01*
X19234000Y-12849150D02*
X19374000Y-12989150D01*
X19374000Y-12849150D02*
X19234000Y-12989150D01*
X19304000Y-12849150D02*
X19304000Y-12989150D01*
X19234000Y-12919150D02*
X19374000Y-12919150D01*
X20250000Y-12849150D02*
X20390000Y-12989150D01*
X20390000Y-12849150D02*
X20250000Y-12989150D01*
X20320000Y-12849150D02*
X20320000Y-12989150D01*
X20250000Y-12919150D02*
X20390000Y-12919150D01*
X20758000Y-12849150D02*
X20898000Y-12989150D01*
X20898000Y-12849150D02*
X20758000Y-12989150D01*
X20828000Y-12849150D02*
X20828000Y-12989150D01*
X20758000Y-12919150D02*
X20898000Y-12919150D01*
D19*
X13113000Y-6830000D02*
X13363000Y-7080000D01*
X13363000Y-6830000D02*
X13113000Y-7080000D01*
X13326389Y-7043389D02*
X13326389Y-6866611D01*
X13149611Y-6866611D01*
X13149611Y-7043389D01*
X13326389Y-7043389D01*
X13113000Y-10700000D02*
X13363000Y-10950000D01*
X13363000Y-10700000D02*
X13113000Y-10950000D01*
X13326389Y-10913389D02*
X13326389Y-10736611D01*
X13149611Y-10736611D01*
X13149611Y-10913389D01*
X13326389Y-10913389D01*
D20*
X16002000Y-6477000D02*
X16256000Y-6731000D01*
X16256000Y-6477000D02*
X16002000Y-6731000D01*
X16129000Y-6731000D02*
X16256000Y-6604000D01*
X16129000Y-6477000D01*
X16002000Y-6604000D01*
X16129000Y-6731000D01*
X17780000Y-6477000D02*
X18034000Y-6731000D01*
X18034000Y-6477000D02*
X17780000Y-6731000D01*
X17907000Y-6731000D02*
X18034000Y-6604000D01*
X17907000Y-6477000D01*
X17780000Y-6604000D01*
X17907000Y-6731000D01*
X18542000Y-6477000D02*
X18796000Y-6731000D01*
X18796000Y-6477000D02*
X18542000Y-6731000D01*
X18669000Y-6731000D02*
X18796000Y-6604000D01*
X18669000Y-6477000D01*
X18542000Y-6604000D01*
X18669000Y-6731000D01*
X20320000Y-6477000D02*
X20574000Y-6731000D01*
X20574000Y-6477000D02*
X20320000Y-6731000D01*
X20447000Y-6731000D02*
X20574000Y-6604000D01*
X20447000Y-6477000D01*
X20320000Y-6604000D01*
X20447000Y-6731000D01*
D21*
X9144000Y-5946000D02*
X9144000Y-6246000D01*
X8994000Y-6096000D02*
X9294000Y-6096000D01*
X9294000Y-6096000D02*
G75*
G03*
X9294000Y-6096000I-150000J0D01*
G01*
X9144000Y-13439000D02*
X9144000Y-13739000D01*
X8994000Y-13589000D02*
X9294000Y-13589000D01*
X9294000Y-13589000D02*
G75*
G03*
X9294000Y-13589000I-150000J0D01*
G01*
X21844000Y-5946000D02*
X21844000Y-6246000D01*
X21694000Y-6096000D02*
X21994000Y-6096000D01*
X21994000Y-6096000D02*
G75*
G03*
X21994000Y-6096000I-150000J0D01*
G01*
X21844000Y-13439000D02*
X21844000Y-13739000D01*
X21694000Y-13589000D02*
X21994000Y-13589000D01*
X21994000Y-13589000D02*
G75*
G03*
X21994000Y-13589000I-150000J0D01*
G01*
D11*
X9018119Y-14282976D02*
X9018119Y-14082976D01*
X9065738Y-14082976D01*
X9094310Y-14092500D01*
X9113357Y-14111548D01*
X9122881Y-14130595D01*
X9132405Y-14168690D01*
X9132405Y-14197262D01*
X9122881Y-14235357D01*
X9113357Y-14254405D01*
X9094310Y-14273452D01*
X9065738Y-14282976D01*
X9018119Y-14282976D01*
X9218119Y-14282976D02*
X9218119Y-14149643D01*
X9218119Y-14187738D02*
X9227643Y-14168690D01*
X9237167Y-14159167D01*
X9256214Y-14149643D01*
X9275262Y-14149643D01*
X9341929Y-14282976D02*
X9341929Y-14149643D01*
X9341929Y-14082976D02*
X9332405Y-14092500D01*
X9341929Y-14102024D01*
X9351452Y-14092500D01*
X9341929Y-14082976D01*
X9341929Y-14102024D01*
X9465738Y-14282976D02*
X9446690Y-14273452D01*
X9437167Y-14254405D01*
X9437167Y-14082976D01*
X9570500Y-14282976D02*
X9551452Y-14273452D01*
X9541929Y-14254405D01*
X9541929Y-14082976D01*
X9799071Y-14282976D02*
X9799071Y-14082976D01*
X9865738Y-14225833D01*
X9932405Y-14082976D01*
X9932405Y-14282976D01*
X10113357Y-14282976D02*
X10113357Y-14178214D01*
X10103833Y-14159167D01*
X10084786Y-14149643D01*
X10046690Y-14149643D01*
X10027643Y-14159167D01*
X10113357Y-14273452D02*
X10094310Y-14282976D01*
X10046690Y-14282976D01*
X10027643Y-14273452D01*
X10018119Y-14254405D01*
X10018119Y-14235357D01*
X10027643Y-14216309D01*
X10046690Y-14206786D01*
X10094310Y-14206786D01*
X10113357Y-14197262D01*
X10208595Y-14149643D02*
X10208595Y-14349643D01*
X10208595Y-14159167D02*
X10227643Y-14149643D01*
X10265738Y-14149643D01*
X10284786Y-14159167D01*
X10294310Y-14168690D01*
X10303833Y-14187738D01*
X10303833Y-14244881D01*
X10294310Y-14263928D01*
X10284786Y-14273452D01*
X10265738Y-14282976D01*
X10227643Y-14282976D01*
X10208595Y-14273452D01*
X10389548Y-14263928D02*
X10399071Y-14273452D01*
X10389548Y-14282976D01*
X10380024Y-14273452D01*
X10389548Y-14263928D01*
X10389548Y-14282976D01*
X10389548Y-14159167D02*
X10399071Y-14168690D01*
X10389548Y-14178214D01*
X10380024Y-14168690D01*
X10389548Y-14159167D01*
X10389548Y-14178214D01*
D12*
X8720500Y-14592500D02*
X8760500Y-14632500D01*
X8760500Y-14592500D02*
X8720500Y-14632500D01*
D11*
X9056214Y-14502976D02*
X9075262Y-14502976D01*
X9094310Y-14512500D01*
X9103833Y-14522024D01*
X9113357Y-14541071D01*
X9122881Y-14579167D01*
X9122881Y-14626786D01*
X9113357Y-14664881D01*
X9103833Y-14683928D01*
X9094310Y-14693452D01*
X9075262Y-14702976D01*
X9056214Y-14702976D01*
X9037167Y-14693452D01*
X9027643Y-14683928D01*
X9018119Y-14664881D01*
X9008595Y-14626786D01*
X9008595Y-14579167D01*
X9018119Y-14541071D01*
X9027643Y-14522024D01*
X9037167Y-14512500D01*
X9056214Y-14502976D01*
X9208595Y-14683928D02*
X9218119Y-14693452D01*
X9208595Y-14702976D01*
X9199071Y-14693452D01*
X9208595Y-14683928D01*
X9208595Y-14702976D01*
X9389548Y-14569643D02*
X9389548Y-14702976D01*
X9341929Y-14493452D02*
X9294310Y-14636309D01*
X9418119Y-14636309D01*
X9532405Y-14502976D02*
X9551452Y-14502976D01*
X9570500Y-14512500D01*
X9580024Y-14522024D01*
X9589548Y-14541071D01*
X9599071Y-14579167D01*
X9599071Y-14626786D01*
X9589548Y-14664881D01*
X9580024Y-14683928D01*
X9570500Y-14693452D01*
X9551452Y-14702976D01*
X9532405Y-14702976D01*
X9513357Y-14693452D01*
X9503833Y-14683928D01*
X9494310Y-14664881D01*
X9484786Y-14626786D01*
X9484786Y-14579167D01*
X9494310Y-14541071D01*
X9503833Y-14522024D01*
X9513357Y-14512500D01*
X9532405Y-14502976D01*
X9722881Y-14502976D02*
X9741929Y-14502976D01*
X9760976Y-14512500D01*
X9770500Y-14522024D01*
X9780024Y-14541071D01*
X9789548Y-14579167D01*
X9789548Y-14626786D01*
X9780024Y-14664881D01*
X9770500Y-14683928D01*
X9760976Y-14693452D01*
X9741929Y-14702976D01*
X9722881Y-14702976D01*
X9703833Y-14693452D01*
X9694310Y-14683928D01*
X9684786Y-14664881D01*
X9675262Y-14626786D01*
X9675262Y-14579167D01*
X9684786Y-14541071D01*
X9694310Y-14522024D01*
X9703833Y-14512500D01*
X9722881Y-14502976D01*
X9875262Y-14702976D02*
X9875262Y-14569643D01*
X9875262Y-14588690D02*
X9884786Y-14579167D01*
X9903833Y-14569643D01*
X9932405Y-14569643D01*
X9951452Y-14579167D01*
X9960976Y-14598214D01*
X9960976Y-14702976D01*
X9960976Y-14598214D02*
X9970500Y-14579167D01*
X9989548Y-14569643D01*
X10018119Y-14569643D01*
X10037167Y-14579167D01*
X10046690Y-14598214D01*
X10046690Y-14702976D01*
X10141929Y-14702976D02*
X10141929Y-14569643D01*
X10141929Y-14588690D02*
X10151452Y-14579167D01*
X10170500Y-14569643D01*
X10199071Y-14569643D01*
X10218119Y-14579167D01*
X10227643Y-14598214D01*
X10227643Y-14702976D01*
X10227643Y-14598214D02*
X10237167Y-14579167D01*
X10256214Y-14569643D01*
X10284786Y-14569643D01*
X10303833Y-14579167D01*
X10313357Y-14598214D01*
X10313357Y-14702976D01*
X10703833Y-14493452D02*
X10532405Y-14750595D01*
X10960976Y-14502976D02*
X10980024Y-14502976D01*
X10999071Y-14512500D01*
X11008595Y-14522024D01*
X11018119Y-14541071D01*
X11027643Y-14579167D01*
X11027643Y-14626786D01*
X11018119Y-14664881D01*
X11008595Y-14683928D01*
X10999071Y-14693452D01*
X10980024Y-14702976D01*
X10960976Y-14702976D01*
X10941929Y-14693452D01*
X10932405Y-14683928D01*
X10922881Y-14664881D01*
X10913357Y-14626786D01*
X10913357Y-14579167D01*
X10922881Y-14541071D01*
X10932405Y-14522024D01*
X10941929Y-14512500D01*
X10960976Y-14502976D01*
X11113357Y-14683928D02*
X11122881Y-14693452D01*
X11113357Y-14702976D01*
X11103833Y-14693452D01*
X11113357Y-14683928D01*
X11113357Y-14702976D01*
X11246690Y-14502976D02*
X11265738Y-14502976D01*
X11284786Y-14512500D01*
X11294309Y-14522024D01*
X11303833Y-14541071D01*
X11313357Y-14579167D01*
X11313357Y-14626786D01*
X11303833Y-14664881D01*
X11294309Y-14683928D01*
X11284786Y-14693452D01*
X11265738Y-14702976D01*
X11246690Y-14702976D01*
X11227643Y-14693452D01*
X11218119Y-14683928D01*
X11208595Y-14664881D01*
X11199071Y-14626786D01*
X11199071Y-14579167D01*
X11208595Y-14541071D01*
X11218119Y-14522024D01*
X11227643Y-14512500D01*
X11246690Y-14502976D01*
X11503833Y-14702976D02*
X11389548Y-14702976D01*
X11446690Y-14702976D02*
X11446690Y-14502976D01*
X11427643Y-14531548D01*
X11408595Y-14550595D01*
X11389548Y-14560119D01*
X11684786Y-14502976D02*
X11589548Y-14502976D01*
X11580024Y-14598214D01*
X11589548Y-14588690D01*
X11608595Y-14579167D01*
X11656214Y-14579167D01*
X11675262Y-14588690D01*
X11684786Y-14598214D01*
X11694309Y-14617262D01*
X11694309Y-14664881D01*
X11684786Y-14683928D01*
X11675262Y-14693452D01*
X11656214Y-14702976D01*
X11608595Y-14702976D01*
X11589548Y-14693452D01*
X11580024Y-14683928D01*
X11760976Y-14502976D02*
X11894309Y-14502976D01*
X11808595Y-14702976D01*
X11960976Y-14502976D02*
X11960976Y-14541071D01*
X12037167Y-14502976D02*
X12037167Y-14541071D01*
X12332405Y-14779167D02*
X12322881Y-14769643D01*
X12303833Y-14741071D01*
X12294309Y-14722024D01*
X12284786Y-14693452D01*
X12275262Y-14645833D01*
X12275262Y-14607738D01*
X12284786Y-14560119D01*
X12294309Y-14531548D01*
X12303833Y-14512500D01*
X12322881Y-14483928D01*
X12332405Y-14474405D01*
X12494309Y-14502976D02*
X12456214Y-14502976D01*
X12437167Y-14512500D01*
X12427643Y-14522024D01*
X12408595Y-14550595D01*
X12399071Y-14588690D01*
X12399071Y-14664881D01*
X12408595Y-14683928D01*
X12418119Y-14693452D01*
X12437167Y-14702976D01*
X12475262Y-14702976D01*
X12494309Y-14693452D01*
X12503833Y-14683928D01*
X12513357Y-14664881D01*
X12513357Y-14617262D01*
X12503833Y-14598214D01*
X12494309Y-14588690D01*
X12475262Y-14579167D01*
X12437167Y-14579167D01*
X12418119Y-14588690D01*
X12408595Y-14598214D01*
X12399071Y-14617262D01*
X12684786Y-14502976D02*
X12646690Y-14502976D01*
X12627643Y-14512500D01*
X12618119Y-14522024D01*
X12599071Y-14550595D01*
X12589548Y-14588690D01*
X12589548Y-14664881D01*
X12599071Y-14683928D01*
X12608595Y-14693452D01*
X12627643Y-14702976D01*
X12665738Y-14702976D01*
X12684786Y-14693452D01*
X12694309Y-14683928D01*
X12703833Y-14664881D01*
X12703833Y-14617262D01*
X12694309Y-14598214D01*
X12684786Y-14588690D01*
X12665738Y-14579167D01*
X12627643Y-14579167D01*
X12608595Y-14588690D01*
X12599071Y-14598214D01*
X12589548Y-14617262D01*
X12941928Y-14702976D02*
X12941928Y-14502976D01*
X13027643Y-14702976D02*
X13027643Y-14598214D01*
X13018119Y-14579167D01*
X12999071Y-14569643D01*
X12970500Y-14569643D01*
X12951452Y-14579167D01*
X12941928Y-14588690D01*
X13151452Y-14702976D02*
X13132405Y-14693452D01*
X13122881Y-14683928D01*
X13113357Y-14664881D01*
X13113357Y-14607738D01*
X13122881Y-14588690D01*
X13132405Y-14579167D01*
X13151452Y-14569643D01*
X13180024Y-14569643D01*
X13199071Y-14579167D01*
X13208595Y-14588690D01*
X13218119Y-14607738D01*
X13218119Y-14664881D01*
X13208595Y-14683928D01*
X13199071Y-14693452D01*
X13180024Y-14702976D01*
X13151452Y-14702976D01*
X13332405Y-14702976D02*
X13313357Y-14693452D01*
X13303833Y-14674405D01*
X13303833Y-14502976D01*
X13484786Y-14693452D02*
X13465738Y-14702976D01*
X13427643Y-14702976D01*
X13408595Y-14693452D01*
X13399071Y-14674405D01*
X13399071Y-14598214D01*
X13408595Y-14579167D01*
X13427643Y-14569643D01*
X13465738Y-14569643D01*
X13484786Y-14579167D01*
X13494309Y-14598214D01*
X13494309Y-14617262D01*
X13399071Y-14636309D01*
X13570500Y-14693452D02*
X13589548Y-14702976D01*
X13627643Y-14702976D01*
X13646690Y-14693452D01*
X13656214Y-14674405D01*
X13656214Y-14664881D01*
X13646690Y-14645833D01*
X13627643Y-14636309D01*
X13599071Y-14636309D01*
X13580024Y-14626786D01*
X13570500Y-14607738D01*
X13570500Y-14598214D01*
X13580024Y-14579167D01*
X13599071Y-14569643D01*
X13627643Y-14569643D01*
X13646690Y-14579167D01*
X13722881Y-14779167D02*
X13732405Y-14769643D01*
X13751452Y-14741071D01*
X13760976Y-14722024D01*
X13770500Y-14693452D01*
X13780024Y-14645833D01*
X13780024Y-14607738D01*
X13770500Y-14560119D01*
X13760976Y-14531548D01*
X13751452Y-14512500D01*
X13732405Y-14483928D01*
X13722881Y-14474405D01*
D13*
X8760500Y-14876500D02*
G75*
G03*
X8760500Y-14876500I-25000J0D01*
G01*
D11*
X9056214Y-14766976D02*
X9075262Y-14766976D01*
X9094310Y-14776500D01*
X9103833Y-14786024D01*
X9113357Y-14805071D01*
X9122881Y-14843167D01*
X9122881Y-14890786D01*
X9113357Y-14928881D01*
X9103833Y-14947928D01*
X9094310Y-14957452D01*
X9075262Y-14966976D01*
X9056214Y-14966976D01*
X9037167Y-14957452D01*
X9027643Y-14947928D01*
X9018119Y-14928881D01*
X9008595Y-14890786D01*
X9008595Y-14843167D01*
X9018119Y-14805071D01*
X9027643Y-14786024D01*
X9037167Y-14776500D01*
X9056214Y-14766976D01*
X9208595Y-14947928D02*
X9218119Y-14957452D01*
X9208595Y-14966976D01*
X9199071Y-14957452D01*
X9208595Y-14947928D01*
X9208595Y-14966976D01*
X9399071Y-14766976D02*
X9303833Y-14766976D01*
X9294310Y-14862214D01*
X9303833Y-14852690D01*
X9322881Y-14843167D01*
X9370500Y-14843167D01*
X9389548Y-14852690D01*
X9399071Y-14862214D01*
X9408595Y-14881262D01*
X9408595Y-14928881D01*
X9399071Y-14947928D01*
X9389548Y-14957452D01*
X9370500Y-14966976D01*
X9322881Y-14966976D01*
X9303833Y-14957452D01*
X9294310Y-14947928D01*
X9532405Y-14766976D02*
X9551452Y-14766976D01*
X9570500Y-14776500D01*
X9580024Y-14786024D01*
X9589548Y-14805071D01*
X9599071Y-14843167D01*
X9599071Y-14890786D01*
X9589548Y-14928881D01*
X9580024Y-14947928D01*
X9570500Y-14957452D01*
X9551452Y-14966976D01*
X9532405Y-14966976D01*
X9513357Y-14957452D01*
X9503833Y-14947928D01*
X9494310Y-14928881D01*
X9484786Y-14890786D01*
X9484786Y-14843167D01*
X9494310Y-14805071D01*
X9503833Y-14786024D01*
X9513357Y-14776500D01*
X9532405Y-14766976D01*
X9722881Y-14766976D02*
X9741929Y-14766976D01*
X9760976Y-14776500D01*
X9770500Y-14786024D01*
X9780024Y-14805071D01*
X9789548Y-14843167D01*
X9789548Y-14890786D01*
X9780024Y-14928881D01*
X9770500Y-14947928D01*
X9760976Y-14957452D01*
X9741929Y-14966976D01*
X9722881Y-14966976D01*
X9703833Y-14957452D01*
X9694310Y-14947928D01*
X9684786Y-14928881D01*
X9675262Y-14890786D01*
X9675262Y-14843167D01*
X9684786Y-14805071D01*
X9694310Y-14786024D01*
X9703833Y-14776500D01*
X9722881Y-14766976D01*
X9875262Y-14966976D02*
X9875262Y-14833643D01*
X9875262Y-14852690D02*
X9884786Y-14843167D01*
X9903833Y-14833643D01*
X9932405Y-14833643D01*
X9951452Y-14843167D01*
X9960976Y-14862214D01*
X9960976Y-14966976D01*
X9960976Y-14862214D02*
X9970500Y-14843167D01*
X9989548Y-14833643D01*
X10018119Y-14833643D01*
X10037167Y-14843167D01*
X10046690Y-14862214D01*
X10046690Y-14966976D01*
X10141929Y-14966976D02*
X10141929Y-14833643D01*
X10141929Y-14852690D02*
X10151452Y-14843167D01*
X10170500Y-14833643D01*
X10199071Y-14833643D01*
X10218119Y-14843167D01*
X10227643Y-14862214D01*
X10227643Y-14966976D01*
X10227643Y-14862214D02*
X10237167Y-14843167D01*
X10256214Y-14833643D01*
X10284786Y-14833643D01*
X10303833Y-14843167D01*
X10313357Y-14862214D01*
X10313357Y-14966976D01*
X10703833Y-14757452D02*
X10532405Y-15014595D01*
X10960976Y-14766976D02*
X10980024Y-14766976D01*
X10999071Y-14776500D01*
X11008595Y-14786024D01*
X11018119Y-14805071D01*
X11027643Y-14843167D01*
X11027643Y-14890786D01*
X11018119Y-14928881D01*
X11008595Y-14947928D01*
X10999071Y-14957452D01*
X10980024Y-14966976D01*
X10960976Y-14966976D01*
X10941929Y-14957452D01*
X10932405Y-14947928D01*
X10922881Y-14928881D01*
X10913357Y-14890786D01*
X10913357Y-14843167D01*
X10922881Y-14805071D01*
X10932405Y-14786024D01*
X10941929Y-14776500D01*
X10960976Y-14766976D01*
X11113357Y-14947928D02*
X11122881Y-14957452D01*
X11113357Y-14966976D01*
X11103833Y-14957452D01*
X11113357Y-14947928D01*
X11113357Y-14966976D01*
X11246690Y-14766976D02*
X11265738Y-14766976D01*
X11284786Y-14776500D01*
X11294309Y-14786024D01*
X11303833Y-14805071D01*
X11313357Y-14843167D01*
X11313357Y-14890786D01*
X11303833Y-14928881D01*
X11294309Y-14947928D01*
X11284786Y-14957452D01*
X11265738Y-14966976D01*
X11246690Y-14966976D01*
X11227643Y-14957452D01*
X11218119Y-14947928D01*
X11208595Y-14928881D01*
X11199071Y-14890786D01*
X11199071Y-14843167D01*
X11208595Y-14805071D01*
X11218119Y-14786024D01*
X11227643Y-14776500D01*
X11246690Y-14766976D01*
X11503833Y-14966976D02*
X11389548Y-14966976D01*
X11446690Y-14966976D02*
X11446690Y-14766976D01*
X11427643Y-14795548D01*
X11408595Y-14814595D01*
X11389548Y-14824119D01*
X11599071Y-14966976D02*
X11637167Y-14966976D01*
X11656214Y-14957452D01*
X11665738Y-14947928D01*
X11684786Y-14919357D01*
X11694309Y-14881262D01*
X11694309Y-14805071D01*
X11684786Y-14786024D01*
X11675262Y-14776500D01*
X11656214Y-14766976D01*
X11618119Y-14766976D01*
X11599071Y-14776500D01*
X11589548Y-14786024D01*
X11580024Y-14805071D01*
X11580024Y-14852690D01*
X11589548Y-14871738D01*
X11599071Y-14881262D01*
X11618119Y-14890786D01*
X11656214Y-14890786D01*
X11675262Y-14881262D01*
X11684786Y-14871738D01*
X11694309Y-14852690D01*
X11760976Y-14766976D02*
X11894309Y-14766976D01*
X11808595Y-14966976D01*
X11960976Y-14766976D02*
X11960976Y-14805071D01*
X12037167Y-14766976D02*
X12037167Y-14805071D01*
X12332405Y-15043167D02*
X12322881Y-15033643D01*
X12303833Y-15005071D01*
X12294309Y-14986024D01*
X12284786Y-14957452D01*
X12275262Y-14909833D01*
X12275262Y-14871738D01*
X12284786Y-14824119D01*
X12294309Y-14795548D01*
X12303833Y-14776500D01*
X12322881Y-14747928D01*
X12332405Y-14738405D01*
X12513357Y-14966976D02*
X12399071Y-14966976D01*
X12456214Y-14966976D02*
X12456214Y-14766976D01*
X12437167Y-14795548D01*
X12418119Y-14814595D01*
X12399071Y-14824119D01*
X12637167Y-14766976D02*
X12656214Y-14766976D01*
X12675262Y-14776500D01*
X12684786Y-14786024D01*
X12694309Y-14805071D01*
X12703833Y-14843167D01*
X12703833Y-14890786D01*
X12694309Y-14928881D01*
X12684786Y-14947928D01*
X12675262Y-14957452D01*
X12656214Y-14966976D01*
X12637167Y-14966976D01*
X12618119Y-14957452D01*
X12608595Y-14947928D01*
X12599071Y-14928881D01*
X12589548Y-14890786D01*
X12589548Y-14843167D01*
X12599071Y-14805071D01*
X12608595Y-14786024D01*
X12618119Y-14776500D01*
X12637167Y-14766976D01*
X12941928Y-14966976D02*
X12941928Y-14766976D01*
X13027643Y-14966976D02*
X13027643Y-14862214D01*
X13018119Y-14843167D01*
X12999071Y-14833643D01*
X12970500Y-14833643D01*
X12951452Y-14843167D01*
X12941928Y-14852690D01*
X13151452Y-14966976D02*
X13132405Y-14957452D01*
X13122881Y-14947928D01*
X13113357Y-14928881D01*
X13113357Y-14871738D01*
X13122881Y-14852690D01*
X13132405Y-14843167D01*
X13151452Y-14833643D01*
X13180024Y-14833643D01*
X13199071Y-14843167D01*
X13208595Y-14852690D01*
X13218119Y-14871738D01*
X13218119Y-14928881D01*
X13208595Y-14947928D01*
X13199071Y-14957452D01*
X13180024Y-14966976D01*
X13151452Y-14966976D01*
X13332405Y-14966976D02*
X13313357Y-14957452D01*
X13303833Y-14938405D01*
X13303833Y-14766976D01*
X13484786Y-14957452D02*
X13465738Y-14966976D01*
X13427643Y-14966976D01*
X13408595Y-14957452D01*
X13399071Y-14938405D01*
X13399071Y-14862214D01*
X13408595Y-14843167D01*
X13427643Y-14833643D01*
X13465738Y-14833643D01*
X13484786Y-14843167D01*
X13494309Y-14862214D01*
X13494309Y-14881262D01*
X13399071Y-14900309D01*
X13570500Y-14957452D02*
X13589548Y-14966976D01*
X13627643Y-14966976D01*
X13646690Y-14957452D01*
X13656214Y-14938405D01*
X13656214Y-14928881D01*
X13646690Y-14909833D01*
X13627643Y-14900309D01*
X13599071Y-14900309D01*
X13580024Y-14890786D01*
X13570500Y-14871738D01*
X13570500Y-14862214D01*
X13580024Y-14843167D01*
X13599071Y-14833643D01*
X13627643Y-14833643D01*
X13646690Y-14843167D01*
X13722881Y-15043167D02*
X13732405Y-15033643D01*
X13751452Y-15005071D01*
X13760976Y-14986024D01*
X13770500Y-14957452D01*
X13780024Y-14909833D01*
X13780024Y-14871738D01*
X13770500Y-14824119D01*
X13760976Y-14795548D01*
X13751452Y-14776500D01*
X13732405Y-14747928D01*
X13722881Y-14738405D01*
D14*
X8722400Y-15102400D02*
X8722400Y-15178600D01*
X8684300Y-15140500D02*
X8760500Y-15140500D01*
D11*
X9056214Y-15030976D02*
X9075262Y-15030976D01*
X9094310Y-15040500D01*
X9103833Y-15050024D01*
X9113357Y-15069071D01*
X9122881Y-15107167D01*
X9122881Y-15154786D01*
X9113357Y-15192881D01*
X9103833Y-15211928D01*
X9094310Y-15221452D01*
X9075262Y-15230976D01*
X9056214Y-15230976D01*
X9037167Y-15221452D01*
X9027643Y-15211928D01*
X9018119Y-15192881D01*
X9008595Y-15154786D01*
X9008595Y-15107167D01*
X9018119Y-15069071D01*
X9027643Y-15050024D01*
X9037167Y-15040500D01*
X9056214Y-15030976D01*
X9208595Y-15211928D02*
X9218119Y-15221452D01*
X9208595Y-15230976D01*
X9199071Y-15221452D01*
X9208595Y-15211928D01*
X9208595Y-15230976D01*
X9284786Y-15030976D02*
X9418119Y-15030976D01*
X9332405Y-15230976D01*
X9580024Y-15030976D02*
X9541929Y-15030976D01*
X9522881Y-15040500D01*
X9513357Y-15050024D01*
X9494310Y-15078595D01*
X9484786Y-15116690D01*
X9484786Y-15192881D01*
X9494310Y-15211928D01*
X9503833Y-15221452D01*
X9522881Y-15230976D01*
X9560976Y-15230976D01*
X9580024Y-15221452D01*
X9589548Y-15211928D01*
X9599071Y-15192881D01*
X9599071Y-15145262D01*
X9589548Y-15126214D01*
X9580024Y-15116690D01*
X9560976Y-15107167D01*
X9522881Y-15107167D01*
X9503833Y-15116690D01*
X9494310Y-15126214D01*
X9484786Y-15145262D01*
X9675262Y-15050024D02*
X9684786Y-15040500D01*
X9703833Y-15030976D01*
X9751452Y-15030976D01*
X9770500Y-15040500D01*
X9780024Y-15050024D01*
X9789548Y-15069071D01*
X9789548Y-15088119D01*
X9780024Y-15116690D01*
X9665738Y-15230976D01*
X9789548Y-15230976D01*
X9875262Y-15230976D02*
X9875262Y-15097643D01*
X9875262Y-15116690D02*
X9884786Y-15107167D01*
X9903833Y-15097643D01*
X9932405Y-15097643D01*
X9951452Y-15107167D01*
X9960976Y-15126214D01*
X9960976Y-15230976D01*
X9960976Y-15126214D02*
X9970500Y-15107167D01*
X9989548Y-15097643D01*
X10018119Y-15097643D01*
X10037167Y-15107167D01*
X10046690Y-15126214D01*
X10046690Y-15230976D01*
X10141929Y-15230976D02*
X10141929Y-15097643D01*
X10141929Y-15116690D02*
X10151452Y-15107167D01*
X10170500Y-15097643D01*
X10199071Y-15097643D01*
X10218119Y-15107167D01*
X10227643Y-15126214D01*
X10227643Y-15230976D01*
X10227643Y-15126214D02*
X10237167Y-15107167D01*
X10256214Y-15097643D01*
X10284786Y-15097643D01*
X10303833Y-15107167D01*
X10313357Y-15126214D01*
X10313357Y-15230976D01*
X10703833Y-15021452D02*
X10532405Y-15278595D01*
X10960976Y-15030976D02*
X10980024Y-15030976D01*
X10999071Y-15040500D01*
X11008595Y-15050024D01*
X11018119Y-15069071D01*
X11027643Y-15107167D01*
X11027643Y-15154786D01*
X11018119Y-15192881D01*
X11008595Y-15211928D01*
X10999071Y-15221452D01*
X10980024Y-15230976D01*
X10960976Y-15230976D01*
X10941929Y-15221452D01*
X10932405Y-15211928D01*
X10922881Y-15192881D01*
X10913357Y-15154786D01*
X10913357Y-15107167D01*
X10922881Y-15069071D01*
X10932405Y-15050024D01*
X10941929Y-15040500D01*
X10960976Y-15030976D01*
X11113357Y-15211928D02*
X11122881Y-15221452D01*
X11113357Y-15230976D01*
X11103833Y-15221452D01*
X11113357Y-15211928D01*
X11113357Y-15230976D01*
X11246690Y-15030976D02*
X11265738Y-15030976D01*
X11284786Y-15040500D01*
X11294309Y-15050024D01*
X11303833Y-15069071D01*
X11313357Y-15107167D01*
X11313357Y-15154786D01*
X11303833Y-15192881D01*
X11294309Y-15211928D01*
X11284786Y-15221452D01*
X11265738Y-15230976D01*
X11246690Y-15230976D01*
X11227643Y-15221452D01*
X11218119Y-15211928D01*
X11208595Y-15192881D01*
X11199071Y-15154786D01*
X11199071Y-15107167D01*
X11208595Y-15069071D01*
X11218119Y-15050024D01*
X11227643Y-15040500D01*
X11246690Y-15030976D01*
X11380024Y-15030976D02*
X11503833Y-15030976D01*
X11437167Y-15107167D01*
X11465738Y-15107167D01*
X11484786Y-15116690D01*
X11494309Y-15126214D01*
X11503833Y-15145262D01*
X11503833Y-15192881D01*
X11494309Y-15211928D01*
X11484786Y-15221452D01*
X11465738Y-15230976D01*
X11408595Y-15230976D01*
X11389548Y-15221452D01*
X11380024Y-15211928D01*
X11627643Y-15030976D02*
X11646690Y-15030976D01*
X11665738Y-15040500D01*
X11675262Y-15050024D01*
X11684786Y-15069071D01*
X11694309Y-15107167D01*
X11694309Y-15154786D01*
X11684786Y-15192881D01*
X11675262Y-15211928D01*
X11665738Y-15221452D01*
X11646690Y-15230976D01*
X11627643Y-15230976D01*
X11608595Y-15221452D01*
X11599071Y-15211928D01*
X11589548Y-15192881D01*
X11580024Y-15154786D01*
X11580024Y-15107167D01*
X11589548Y-15069071D01*
X11599071Y-15050024D01*
X11608595Y-15040500D01*
X11627643Y-15030976D01*
X11818119Y-15030976D02*
X11837167Y-15030976D01*
X11856214Y-15040500D01*
X11865738Y-15050024D01*
X11875262Y-15069071D01*
X11884786Y-15107167D01*
X11884786Y-15154786D01*
X11875262Y-15192881D01*
X11865738Y-15211928D01*
X11856214Y-15221452D01*
X11837167Y-15230976D01*
X11818119Y-15230976D01*
X11799071Y-15221452D01*
X11789548Y-15211928D01*
X11780024Y-15192881D01*
X11770500Y-15154786D01*
X11770500Y-15107167D01*
X11780024Y-15069071D01*
X11789548Y-15050024D01*
X11799071Y-15040500D01*
X11818119Y-15030976D01*
X11960976Y-15030976D02*
X11960976Y-15069071D01*
X12037167Y-15030976D02*
X12037167Y-15069071D01*
X12332405Y-15307167D02*
X12322881Y-15297643D01*
X12303833Y-15269071D01*
X12294309Y-15250024D01*
X12284786Y-15221452D01*
X12275262Y-15173833D01*
X12275262Y-15135738D01*
X12284786Y-15088119D01*
X12294309Y-15059548D01*
X12303833Y-15040500D01*
X12322881Y-15011928D01*
X12332405Y-15002405D01*
X12513357Y-15230976D02*
X12399071Y-15230976D01*
X12456214Y-15230976D02*
X12456214Y-15030976D01*
X12437167Y-15059548D01*
X12418119Y-15078595D01*
X12399071Y-15088119D01*
X12627643Y-15116690D02*
X12608595Y-15107167D01*
X12599071Y-15097643D01*
X12589548Y-15078595D01*
X12589548Y-15069071D01*
X12599071Y-15050024D01*
X12608595Y-15040500D01*
X12627643Y-15030976D01*
X12665738Y-15030976D01*
X12684786Y-15040500D01*
X12694309Y-15050024D01*
X12703833Y-15069071D01*
X12703833Y-15078595D01*
X12694309Y-15097643D01*
X12684786Y-15107167D01*
X12665738Y-15116690D01*
X12627643Y-15116690D01*
X12608595Y-15126214D01*
X12599071Y-15135738D01*
X12589548Y-15154786D01*
X12589548Y-15192881D01*
X12599071Y-15211928D01*
X12608595Y-15221452D01*
X12627643Y-15230976D01*
X12665738Y-15230976D01*
X12684786Y-15221452D01*
X12694309Y-15211928D01*
X12703833Y-15192881D01*
X12703833Y-15154786D01*
X12694309Y-15135738D01*
X12684786Y-15126214D01*
X12665738Y-15116690D01*
X12941928Y-15230976D02*
X12941928Y-15030976D01*
X13027643Y-15230976D02*
X13027643Y-15126214D01*
X13018119Y-15107167D01*
X12999071Y-15097643D01*
X12970500Y-15097643D01*
X12951452Y-15107167D01*
X12941928Y-15116690D01*
X13151452Y-15230976D02*
X13132405Y-15221452D01*
X13122881Y-15211928D01*
X13113357Y-15192881D01*
X13113357Y-15135738D01*
X13122881Y-15116690D01*
X13132405Y-15107167D01*
X13151452Y-15097643D01*
X13180024Y-15097643D01*
X13199071Y-15107167D01*
X13208595Y-15116690D01*
X13218119Y-15135738D01*
X13218119Y-15192881D01*
X13208595Y-15211928D01*
X13199071Y-15221452D01*
X13180024Y-15230976D01*
X13151452Y-15230976D01*
X13332405Y-15230976D02*
X13313357Y-15221452D01*
X13303833Y-15202405D01*
X13303833Y-15030976D01*
X13484786Y-15221452D02*
X13465738Y-15230976D01*
X13427643Y-15230976D01*
X13408595Y-15221452D01*
X13399071Y-15202405D01*
X13399071Y-15126214D01*
X13408595Y-15107167D01*
X13427643Y-15097643D01*
X13465738Y-15097643D01*
X13484786Y-15107167D01*
X13494309Y-15126214D01*
X13494309Y-15145262D01*
X13399071Y-15164309D01*
X13570500Y-15221452D02*
X13589548Y-15230976D01*
X13627643Y-15230976D01*
X13646690Y-15221452D01*
X13656214Y-15202405D01*
X13656214Y-15192881D01*
X13646690Y-15173833D01*
X13627643Y-15164309D01*
X13599071Y-15164309D01*
X13580024Y-15154786D01*
X13570500Y-15135738D01*
X13570500Y-15126214D01*
X13580024Y-15107167D01*
X13599071Y-15097643D01*
X13627643Y-15097643D01*
X13646690Y-15107167D01*
X13722881Y-15307167D02*
X13732405Y-15297643D01*
X13751452Y-15269071D01*
X13760976Y-15250024D01*
X13770500Y-15221452D01*
X13780024Y-15173833D01*
X13780024Y-15135738D01*
X13770500Y-15088119D01*
X13760976Y-15059548D01*
X13751452Y-15040500D01*
X13732405Y-15011928D01*
X13722881Y-15002405D01*
D15*
X8748785Y-15432784D02*
X8748785Y-15376215D01*
X8692216Y-15376215D01*
X8692216Y-15432784D01*
X8748785Y-15432784D01*
D11*
X9056214Y-15294976D02*
X9075262Y-15294976D01*
X9094310Y-15304500D01*
X9103833Y-15314024D01*
X9113357Y-15333071D01*
X9122881Y-15371167D01*
X9122881Y-15418786D01*
X9113357Y-15456881D01*
X9103833Y-15475928D01*
X9094310Y-15485452D01*
X9075262Y-15494976D01*
X9056214Y-15494976D01*
X9037167Y-15485452D01*
X9027643Y-15475928D01*
X9018119Y-15456881D01*
X9008595Y-15418786D01*
X9008595Y-15371167D01*
X9018119Y-15333071D01*
X9027643Y-15314024D01*
X9037167Y-15304500D01*
X9056214Y-15294976D01*
X9208595Y-15475928D02*
X9218119Y-15485452D01*
X9208595Y-15494976D01*
X9199071Y-15485452D01*
X9208595Y-15475928D01*
X9208595Y-15494976D01*
X9332405Y-15380690D02*
X9313357Y-15371167D01*
X9303833Y-15361643D01*
X9294310Y-15342595D01*
X9294310Y-15333071D01*
X9303833Y-15314024D01*
X9313357Y-15304500D01*
X9332405Y-15294976D01*
X9370500Y-15294976D01*
X9389548Y-15304500D01*
X9399071Y-15314024D01*
X9408595Y-15333071D01*
X9408595Y-15342595D01*
X9399071Y-15361643D01*
X9389548Y-15371167D01*
X9370500Y-15380690D01*
X9332405Y-15380690D01*
X9313357Y-15390214D01*
X9303833Y-15399738D01*
X9294310Y-15418786D01*
X9294310Y-15456881D01*
X9303833Y-15475928D01*
X9313357Y-15485452D01*
X9332405Y-15494976D01*
X9370500Y-15494976D01*
X9389548Y-15485452D01*
X9399071Y-15475928D01*
X9408595Y-15456881D01*
X9408595Y-15418786D01*
X9399071Y-15399738D01*
X9389548Y-15390214D01*
X9370500Y-15380690D01*
X9532405Y-15294976D02*
X9551452Y-15294976D01*
X9570500Y-15304500D01*
X9580024Y-15314024D01*
X9589548Y-15333071D01*
X9599071Y-15371167D01*
X9599071Y-15418786D01*
X9589548Y-15456881D01*
X9580024Y-15475928D01*
X9570500Y-15485452D01*
X9551452Y-15494976D01*
X9532405Y-15494976D01*
X9513357Y-15485452D01*
X9503833Y-15475928D01*
X9494310Y-15456881D01*
X9484786Y-15418786D01*
X9484786Y-15371167D01*
X9494310Y-15333071D01*
X9503833Y-15314024D01*
X9513357Y-15304500D01*
X9532405Y-15294976D01*
X9722881Y-15294976D02*
X9741929Y-15294976D01*
X9760976Y-15304500D01*
X9770500Y-15314024D01*
X9780024Y-15333071D01*
X9789548Y-15371167D01*
X9789548Y-15418786D01*
X9780024Y-15456881D01*
X9770500Y-15475928D01*
X9760976Y-15485452D01*
X9741929Y-15494976D01*
X9722881Y-15494976D01*
X9703833Y-15485452D01*
X9694310Y-15475928D01*
X9684786Y-15456881D01*
X9675262Y-15418786D01*
X9675262Y-15371167D01*
X9684786Y-15333071D01*
X9694310Y-15314024D01*
X9703833Y-15304500D01*
X9722881Y-15294976D01*
X9875262Y-15494976D02*
X9875262Y-15361643D01*
X9875262Y-15380690D02*
X9884786Y-15371167D01*
X9903833Y-15361643D01*
X9932405Y-15361643D01*
X9951452Y-15371167D01*
X9960976Y-15390214D01*
X9960976Y-15494976D01*
X9960976Y-15390214D02*
X9970500Y-15371167D01*
X9989548Y-15361643D01*
X10018119Y-15361643D01*
X10037167Y-15371167D01*
X10046690Y-15390214D01*
X10046690Y-15494976D01*
X10141929Y-15494976D02*
X10141929Y-15361643D01*
X10141929Y-15380690D02*
X10151452Y-15371167D01*
X10170500Y-15361643D01*
X10199071Y-15361643D01*
X10218119Y-15371167D01*
X10227643Y-15390214D01*
X10227643Y-15494976D01*
X10227643Y-15390214D02*
X10237167Y-15371167D01*
X10256214Y-15361643D01*
X10284786Y-15361643D01*
X10303833Y-15371167D01*
X10313357Y-15390214D01*
X10313357Y-15494976D01*
X10703833Y-15285452D02*
X10532405Y-15542595D01*
X10960976Y-15294976D02*
X10980024Y-15294976D01*
X10999071Y-15304500D01*
X11008595Y-15314024D01*
X11018119Y-15333071D01*
X11027643Y-15371167D01*
X11027643Y-15418786D01*
X11018119Y-15456881D01*
X11008595Y-15475928D01*
X10999071Y-15485452D01*
X10980024Y-15494976D01*
X10960976Y-15494976D01*
X10941929Y-15485452D01*
X10932405Y-15475928D01*
X10922881Y-15456881D01*
X10913357Y-15418786D01*
X10913357Y-15371167D01*
X10922881Y-15333071D01*
X10932405Y-15314024D01*
X10941929Y-15304500D01*
X10960976Y-15294976D01*
X11113357Y-15475928D02*
X11122881Y-15485452D01*
X11113357Y-15494976D01*
X11103833Y-15485452D01*
X11113357Y-15475928D01*
X11113357Y-15494976D01*
X11246690Y-15294976D02*
X11265738Y-15294976D01*
X11284786Y-15304500D01*
X11294309Y-15314024D01*
X11303833Y-15333071D01*
X11313357Y-15371167D01*
X11313357Y-15418786D01*
X11303833Y-15456881D01*
X11294309Y-15475928D01*
X11284786Y-15485452D01*
X11265738Y-15494976D01*
X11246690Y-15494976D01*
X11227643Y-15485452D01*
X11218119Y-15475928D01*
X11208595Y-15456881D01*
X11199071Y-15418786D01*
X11199071Y-15371167D01*
X11208595Y-15333071D01*
X11218119Y-15314024D01*
X11227643Y-15304500D01*
X11246690Y-15294976D01*
X11380024Y-15294976D02*
X11503833Y-15294976D01*
X11437167Y-15371167D01*
X11465738Y-15371167D01*
X11484786Y-15380690D01*
X11494309Y-15390214D01*
X11503833Y-15409262D01*
X11503833Y-15456881D01*
X11494309Y-15475928D01*
X11484786Y-15485452D01*
X11465738Y-15494976D01*
X11408595Y-15494976D01*
X11389548Y-15485452D01*
X11380024Y-15475928D01*
X11694309Y-15494976D02*
X11580024Y-15494976D01*
X11637167Y-15494976D02*
X11637167Y-15294976D01*
X11618119Y-15323548D01*
X11599071Y-15342595D01*
X11580024Y-15352119D01*
X11875262Y-15294976D02*
X11780024Y-15294976D01*
X11770500Y-15390214D01*
X11780024Y-15380690D01*
X11799071Y-15371167D01*
X11846690Y-15371167D01*
X11865738Y-15380690D01*
X11875262Y-15390214D01*
X11884786Y-15409262D01*
X11884786Y-15456881D01*
X11875262Y-15475928D01*
X11865738Y-15485452D01*
X11846690Y-15494976D01*
X11799071Y-15494976D01*
X11780024Y-15485452D01*
X11770500Y-15475928D01*
X11960976Y-15294976D02*
X11960976Y-15333071D01*
X12037167Y-15294976D02*
X12037167Y-15333071D01*
X12332405Y-15571167D02*
X12322881Y-15561643D01*
X12303833Y-15533071D01*
X12294309Y-15514024D01*
X12284786Y-15485452D01*
X12275262Y-15437833D01*
X12275262Y-15399738D01*
X12284786Y-15352119D01*
X12294309Y-15323548D01*
X12303833Y-15304500D01*
X12322881Y-15275928D01*
X12332405Y-15266405D01*
X12513357Y-15494976D02*
X12399071Y-15494976D01*
X12456214Y-15494976D02*
X12456214Y-15294976D01*
X12437167Y-15323548D01*
X12418119Y-15342595D01*
X12399071Y-15352119D01*
X12637167Y-15294976D02*
X12656214Y-15294976D01*
X12675262Y-15304500D01*
X12684786Y-15314024D01*
X12694309Y-15333071D01*
X12703833Y-15371167D01*
X12703833Y-15418786D01*
X12694309Y-15456881D01*
X12684786Y-15475928D01*
X12675262Y-15485452D01*
X12656214Y-15494976D01*
X12637167Y-15494976D01*
X12618119Y-15485452D01*
X12608595Y-15475928D01*
X12599071Y-15456881D01*
X12589548Y-15418786D01*
X12589548Y-15371167D01*
X12599071Y-15333071D01*
X12608595Y-15314024D01*
X12618119Y-15304500D01*
X12637167Y-15294976D01*
X12941928Y-15494976D02*
X12941928Y-15294976D01*
X13027643Y-15494976D02*
X13027643Y-15390214D01*
X13018119Y-15371167D01*
X12999071Y-15361643D01*
X12970500Y-15361643D01*
X12951452Y-15371167D01*
X12941928Y-15380690D01*
X13151452Y-15494976D02*
X13132405Y-15485452D01*
X13122881Y-15475928D01*
X13113357Y-15456881D01*
X13113357Y-15399738D01*
X13122881Y-15380690D01*
X13132405Y-15371167D01*
X13151452Y-15361643D01*
X13180024Y-15361643D01*
X13199071Y-15371167D01*
X13208595Y-15380690D01*
X13218119Y-15399738D01*
X13218119Y-15456881D01*
X13208595Y-15475928D01*
X13199071Y-15485452D01*
X13180024Y-15494976D01*
X13151452Y-15494976D01*
X13332405Y-15494976D02*
X13313357Y-15485452D01*
X13303833Y-15466405D01*
X13303833Y-15294976D01*
X13484786Y-15485452D02*
X13465738Y-15494976D01*
X13427643Y-15494976D01*
X13408595Y-15485452D01*
X13399071Y-15466405D01*
X13399071Y-15390214D01*
X13408595Y-15371167D01*
X13427643Y-15361643D01*
X13465738Y-15361643D01*
X13484786Y-15371167D01*
X13494309Y-15390214D01*
X13494309Y-15409262D01*
X13399071Y-15428309D01*
X13570500Y-15485452D02*
X13589548Y-15494976D01*
X13627643Y-15494976D01*
X13646690Y-15485452D01*
X13656214Y-15466405D01*
X13656214Y-15456881D01*
X13646690Y-15437833D01*
X13627643Y-15428309D01*
X13599071Y-15428309D01*
X13580024Y-15418786D01*
X13570500Y-15399738D01*
X13570500Y-15390214D01*
X13580024Y-15371167D01*
X13599071Y-15361643D01*
X13627643Y-15361643D01*
X13646690Y-15371167D01*
X13722881Y-15571167D02*
X13732405Y-15561643D01*
X13751452Y-15533071D01*
X13760976Y-15514024D01*
X13770500Y-15485452D01*
X13780024Y-15437833D01*
X13780024Y-15399738D01*
X13770500Y-15352119D01*
X13760976Y-15323548D01*
X13751452Y-15304500D01*
X13732405Y-15275928D01*
X13722881Y-15266405D01*
D16*
X8710500Y-15718500D02*
X8760500Y-15668500D01*
X8710500Y-15618500D01*
X8660500Y-15668500D01*
X8710500Y-15718500D01*
D11*
X9122881Y-15758976D02*
X9008595Y-15758976D01*
X9065738Y-15758976D02*
X9065738Y-15558976D01*
X9046690Y-15587548D01*
X9027643Y-15606595D01*
X9008595Y-15616119D01*
X9208595Y-15739928D02*
X9218119Y-15749452D01*
X9208595Y-15758976D01*
X9199071Y-15749452D01*
X9208595Y-15739928D01*
X9208595Y-15758976D01*
X9341929Y-15558976D02*
X9360976Y-15558976D01*
X9380024Y-15568500D01*
X9389548Y-15578024D01*
X9399071Y-15597071D01*
X9408595Y-15635167D01*
X9408595Y-15682786D01*
X9399071Y-15720881D01*
X9389548Y-15739928D01*
X9380024Y-15749452D01*
X9360976Y-15758976D01*
X9341929Y-15758976D01*
X9322881Y-15749452D01*
X9313357Y-15739928D01*
X9303833Y-15720881D01*
X9294310Y-15682786D01*
X9294310Y-15635167D01*
X9303833Y-15597071D01*
X9313357Y-15578024D01*
X9322881Y-15568500D01*
X9341929Y-15558976D01*
X9532405Y-15558976D02*
X9551452Y-15558976D01*
X9570500Y-15568500D01*
X9580024Y-15578024D01*
X9589548Y-15597071D01*
X9599071Y-15635167D01*
X9599071Y-15682786D01*
X9589548Y-15720881D01*
X9580024Y-15739928D01*
X9570500Y-15749452D01*
X9551452Y-15758976D01*
X9532405Y-15758976D01*
X9513357Y-15749452D01*
X9503833Y-15739928D01*
X9494310Y-15720881D01*
X9484786Y-15682786D01*
X9484786Y-15635167D01*
X9494310Y-15597071D01*
X9503833Y-15578024D01*
X9513357Y-15568500D01*
X9532405Y-15558976D01*
X9722881Y-15558976D02*
X9741929Y-15558976D01*
X9760976Y-15568500D01*
X9770500Y-15578024D01*
X9780024Y-15597071D01*
X9789548Y-15635167D01*
X9789548Y-15682786D01*
X9780024Y-15720881D01*
X9770500Y-15739928D01*
X9760976Y-15749452D01*
X9741929Y-15758976D01*
X9722881Y-15758976D01*
X9703833Y-15749452D01*
X9694310Y-15739928D01*
X9684786Y-15720881D01*
X9675262Y-15682786D01*
X9675262Y-15635167D01*
X9684786Y-15597071D01*
X9694310Y-15578024D01*
X9703833Y-15568500D01*
X9722881Y-15558976D01*
X9875262Y-15758976D02*
X9875262Y-15625643D01*
X9875262Y-15644690D02*
X9884786Y-15635167D01*
X9903833Y-15625643D01*
X9932405Y-15625643D01*
X9951452Y-15635167D01*
X9960976Y-15654214D01*
X9960976Y-15758976D01*
X9960976Y-15654214D02*
X9970500Y-15635167D01*
X9989548Y-15625643D01*
X10018119Y-15625643D01*
X10037167Y-15635167D01*
X10046690Y-15654214D01*
X10046690Y-15758976D01*
X10141929Y-15758976D02*
X10141929Y-15625643D01*
X10141929Y-15644690D02*
X10151452Y-15635167D01*
X10170500Y-15625643D01*
X10199071Y-15625643D01*
X10218119Y-15635167D01*
X10227643Y-15654214D01*
X10227643Y-15758976D01*
X10227643Y-15654214D02*
X10237167Y-15635167D01*
X10256214Y-15625643D01*
X10284786Y-15625643D01*
X10303833Y-15635167D01*
X10313357Y-15654214D01*
X10313357Y-15758976D01*
X10703833Y-15549452D02*
X10532405Y-15806595D01*
X10960976Y-15558976D02*
X10980024Y-15558976D01*
X10999071Y-15568500D01*
X11008595Y-15578024D01*
X11018119Y-15597071D01*
X11027643Y-15635167D01*
X11027643Y-15682786D01*
X11018119Y-15720881D01*
X11008595Y-15739928D01*
X10999071Y-15749452D01*
X10980024Y-15758976D01*
X10960976Y-15758976D01*
X10941929Y-15749452D01*
X10932405Y-15739928D01*
X10922881Y-15720881D01*
X10913357Y-15682786D01*
X10913357Y-15635167D01*
X10922881Y-15597071D01*
X10932405Y-15578024D01*
X10941929Y-15568500D01*
X10960976Y-15558976D01*
X11113357Y-15739928D02*
X11122881Y-15749452D01*
X11113357Y-15758976D01*
X11103833Y-15749452D01*
X11113357Y-15739928D01*
X11113357Y-15758976D01*
X11246690Y-15558976D02*
X11265738Y-15558976D01*
X11284786Y-15568500D01*
X11294309Y-15578024D01*
X11303833Y-15597071D01*
X11313357Y-15635167D01*
X11313357Y-15682786D01*
X11303833Y-15720881D01*
X11294309Y-15739928D01*
X11284786Y-15749452D01*
X11265738Y-15758976D01*
X11246690Y-15758976D01*
X11227643Y-15749452D01*
X11218119Y-15739928D01*
X11208595Y-15720881D01*
X11199071Y-15682786D01*
X11199071Y-15635167D01*
X11208595Y-15597071D01*
X11218119Y-15578024D01*
X11227643Y-15568500D01*
X11246690Y-15558976D01*
X11380024Y-15558976D02*
X11503833Y-15558976D01*
X11437167Y-15635167D01*
X11465738Y-15635167D01*
X11484786Y-15644690D01*
X11494309Y-15654214D01*
X11503833Y-15673262D01*
X11503833Y-15720881D01*
X11494309Y-15739928D01*
X11484786Y-15749452D01*
X11465738Y-15758976D01*
X11408595Y-15758976D01*
X11389548Y-15749452D01*
X11380024Y-15739928D01*
X11599071Y-15758976D02*
X11637167Y-15758976D01*
X11656214Y-15749452D01*
X11665738Y-15739928D01*
X11684786Y-15711357D01*
X11694309Y-15673262D01*
X11694309Y-15597071D01*
X11684786Y-15578024D01*
X11675262Y-15568500D01*
X11656214Y-15558976D01*
X11618119Y-15558976D01*
X11599071Y-15568500D01*
X11589548Y-15578024D01*
X11580024Y-15597071D01*
X11580024Y-15644690D01*
X11589548Y-15663738D01*
X11599071Y-15673262D01*
X11618119Y-15682786D01*
X11656214Y-15682786D01*
X11675262Y-15673262D01*
X11684786Y-15663738D01*
X11694309Y-15644690D01*
X11865738Y-15625643D02*
X11865738Y-15758976D01*
X11818119Y-15549452D02*
X11770500Y-15692309D01*
X11894309Y-15692309D01*
X11960976Y-15558976D02*
X11960976Y-15597071D01*
X12037167Y-15558976D02*
X12037167Y-15597071D01*
X12332405Y-15835167D02*
X12322881Y-15825643D01*
X12303833Y-15797071D01*
X12294309Y-15778024D01*
X12284786Y-15749452D01*
X12275262Y-15701833D01*
X12275262Y-15663738D01*
X12284786Y-15616119D01*
X12294309Y-15587548D01*
X12303833Y-15568500D01*
X12322881Y-15539928D01*
X12332405Y-15530405D01*
X12513357Y-15758976D02*
X12399071Y-15758976D01*
X12456214Y-15758976D02*
X12456214Y-15558976D01*
X12437167Y-15587548D01*
X12418119Y-15606595D01*
X12399071Y-15616119D01*
X12637167Y-15558976D02*
X12656214Y-15558976D01*
X12675262Y-15568500D01*
X12684786Y-15578024D01*
X12694309Y-15597071D01*
X12703833Y-15635167D01*
X12703833Y-15682786D01*
X12694309Y-15720881D01*
X12684786Y-15739928D01*
X12675262Y-15749452D01*
X12656214Y-15758976D01*
X12637167Y-15758976D01*
X12618119Y-15749452D01*
X12608595Y-15739928D01*
X12599071Y-15720881D01*
X12589548Y-15682786D01*
X12589548Y-15635167D01*
X12599071Y-15597071D01*
X12608595Y-15578024D01*
X12618119Y-15568500D01*
X12637167Y-15558976D01*
X12818119Y-15644690D02*
X12799071Y-15635167D01*
X12789548Y-15625643D01*
X12780024Y-15606595D01*
X12780024Y-15597071D01*
X12789548Y-15578024D01*
X12799071Y-15568500D01*
X12818119Y-15558976D01*
X12856214Y-15558976D01*
X12875262Y-15568500D01*
X12884786Y-15578024D01*
X12894309Y-15597071D01*
X12894309Y-15606595D01*
X12884786Y-15625643D01*
X12875262Y-15635167D01*
X12856214Y-15644690D01*
X12818119Y-15644690D01*
X12799071Y-15654214D01*
X12789548Y-15663738D01*
X12780024Y-15682786D01*
X12780024Y-15720881D01*
X12789548Y-15739928D01*
X12799071Y-15749452D01*
X12818119Y-15758976D01*
X12856214Y-15758976D01*
X12875262Y-15749452D01*
X12884786Y-15739928D01*
X12894309Y-15720881D01*
X12894309Y-15682786D01*
X12884786Y-15663738D01*
X12875262Y-15654214D01*
X12856214Y-15644690D01*
X13132405Y-15758976D02*
X13132405Y-15558976D01*
X13218119Y-15758976D02*
X13218119Y-15654214D01*
X13208595Y-15635167D01*
X13189548Y-15625643D01*
X13160976Y-15625643D01*
X13141928Y-15635167D01*
X13132405Y-15644690D01*
X13341928Y-15758976D02*
X13322881Y-15749452D01*
X13313357Y-15739928D01*
X13303833Y-15720881D01*
X13303833Y-15663738D01*
X13313357Y-15644690D01*
X13322881Y-15635167D01*
X13341928Y-15625643D01*
X13370500Y-15625643D01*
X13389548Y-15635167D01*
X13399071Y-15644690D01*
X13408595Y-15663738D01*
X13408595Y-15720881D01*
X13399071Y-15739928D01*
X13389548Y-15749452D01*
X13370500Y-15758976D01*
X13341928Y-15758976D01*
X13522881Y-15758976D02*
X13503833Y-15749452D01*
X13494309Y-15730405D01*
X13494309Y-15558976D01*
X13675262Y-15749452D02*
X13656214Y-15758976D01*
X13618119Y-15758976D01*
X13599071Y-15749452D01*
X13589548Y-15730405D01*
X13589548Y-15654214D01*
X13599071Y-15635167D01*
X13618119Y-15625643D01*
X13656214Y-15625643D01*
X13675262Y-15635167D01*
X13684786Y-15654214D01*
X13684786Y-15673262D01*
X13589548Y-15692309D01*
X13760976Y-15749452D02*
X13780024Y-15758976D01*
X13818119Y-15758976D01*
X13837167Y-15749452D01*
X13846690Y-15730405D01*
X13846690Y-15720881D01*
X13837167Y-15701833D01*
X13818119Y-15692309D01*
X13789548Y-15692309D01*
X13770500Y-15682786D01*
X13760976Y-15663738D01*
X13760976Y-15654214D01*
X13770500Y-15635167D01*
X13789548Y-15625643D01*
X13818119Y-15625643D01*
X13837167Y-15635167D01*
X13913357Y-15835167D02*
X13922881Y-15825643D01*
X13941928Y-15797071D01*
X13951452Y-15778024D01*
X13960976Y-15749452D01*
X13970500Y-15701833D01*
X13970500Y-15663738D01*
X13960976Y-15616119D01*
X13951452Y-15587548D01*
X13941928Y-15568500D01*
X13922881Y-15539928D01*
X13913357Y-15530405D01*
D17*
X8658900Y-15881700D02*
X8760500Y-15983300D01*
X8760500Y-15881700D02*
X8658900Y-15983300D01*
X8760500Y-15932500D02*
G75*
G03*
X8760500Y-15932500I-50800J0D01*
G01*
D11*
X9122881Y-16022976D02*
X9008595Y-16022976D01*
X9065738Y-16022976D02*
X9065738Y-15822976D01*
X9046690Y-15851548D01*
X9027643Y-15870595D01*
X9008595Y-15880119D01*
X9208595Y-16003928D02*
X9218119Y-16013452D01*
X9208595Y-16022976D01*
X9199071Y-16013452D01*
X9208595Y-16003928D01*
X9208595Y-16022976D01*
X9341929Y-15822976D02*
X9360976Y-15822976D01*
X9380024Y-15832500D01*
X9389548Y-15842024D01*
X9399071Y-15861071D01*
X9408595Y-15899167D01*
X9408595Y-15946786D01*
X9399071Y-15984881D01*
X9389548Y-16003928D01*
X9380024Y-16013452D01*
X9360976Y-16022976D01*
X9341929Y-16022976D01*
X9322881Y-16013452D01*
X9313357Y-16003928D01*
X9303833Y-15984881D01*
X9294310Y-15946786D01*
X9294310Y-15899167D01*
X9303833Y-15861071D01*
X9313357Y-15842024D01*
X9322881Y-15832500D01*
X9341929Y-15822976D01*
X9599071Y-16022976D02*
X9484786Y-16022976D01*
X9541929Y-16022976D02*
X9541929Y-15822976D01*
X9522881Y-15851548D01*
X9503833Y-15870595D01*
X9484786Y-15880119D01*
X9770500Y-15822976D02*
X9732405Y-15822976D01*
X9713357Y-15832500D01*
X9703833Y-15842024D01*
X9684786Y-15870595D01*
X9675262Y-15908690D01*
X9675262Y-15984881D01*
X9684786Y-16003928D01*
X9694310Y-16013452D01*
X9713357Y-16022976D01*
X9751452Y-16022976D01*
X9770500Y-16013452D01*
X9780024Y-16003928D01*
X9789548Y-15984881D01*
X9789548Y-15937262D01*
X9780024Y-15918214D01*
X9770500Y-15908690D01*
X9751452Y-15899167D01*
X9713357Y-15899167D01*
X9694310Y-15908690D01*
X9684786Y-15918214D01*
X9675262Y-15937262D01*
X9875262Y-16022976D02*
X9875262Y-15889643D01*
X9875262Y-15908690D02*
X9884786Y-15899167D01*
X9903833Y-15889643D01*
X9932405Y-15889643D01*
X9951452Y-15899167D01*
X9960976Y-15918214D01*
X9960976Y-16022976D01*
X9960976Y-15918214D02*
X9970500Y-15899167D01*
X9989548Y-15889643D01*
X10018119Y-15889643D01*
X10037167Y-15899167D01*
X10046690Y-15918214D01*
X10046690Y-16022976D01*
X10141929Y-16022976D02*
X10141929Y-15889643D01*
X10141929Y-15908690D02*
X10151452Y-15899167D01*
X10170500Y-15889643D01*
X10199071Y-15889643D01*
X10218119Y-15899167D01*
X10227643Y-15918214D01*
X10227643Y-16022976D01*
X10227643Y-15918214D02*
X10237167Y-15899167D01*
X10256214Y-15889643D01*
X10284786Y-15889643D01*
X10303833Y-15899167D01*
X10313357Y-15918214D01*
X10313357Y-16022976D01*
X10703833Y-15813452D02*
X10532405Y-16070595D01*
X10960976Y-15822976D02*
X10980024Y-15822976D01*
X10999071Y-15832500D01*
X11008595Y-15842024D01*
X11018119Y-15861071D01*
X11027643Y-15899167D01*
X11027643Y-15946786D01*
X11018119Y-15984881D01*
X11008595Y-16003928D01*
X10999071Y-16013452D01*
X10980024Y-16022976D01*
X10960976Y-16022976D01*
X10941929Y-16013452D01*
X10932405Y-16003928D01*
X10922881Y-15984881D01*
X10913357Y-15946786D01*
X10913357Y-15899167D01*
X10922881Y-15861071D01*
X10932405Y-15842024D01*
X10941929Y-15832500D01*
X10960976Y-15822976D01*
X11113357Y-16003928D02*
X11122881Y-16013452D01*
X11113357Y-16022976D01*
X11103833Y-16013452D01*
X11113357Y-16003928D01*
X11113357Y-16022976D01*
X11246690Y-15822976D02*
X11265738Y-15822976D01*
X11284786Y-15832500D01*
X11294309Y-15842024D01*
X11303833Y-15861071D01*
X11313357Y-15899167D01*
X11313357Y-15946786D01*
X11303833Y-15984881D01*
X11294309Y-16003928D01*
X11284786Y-16013452D01*
X11265738Y-16022976D01*
X11246690Y-16022976D01*
X11227643Y-16013452D01*
X11218119Y-16003928D01*
X11208595Y-15984881D01*
X11199071Y-15946786D01*
X11199071Y-15899167D01*
X11208595Y-15861071D01*
X11218119Y-15842024D01*
X11227643Y-15832500D01*
X11246690Y-15822976D01*
X11484786Y-15889643D02*
X11484786Y-16022976D01*
X11437167Y-15813452D02*
X11389548Y-15956309D01*
X11513357Y-15956309D01*
X11627643Y-15822976D02*
X11646690Y-15822976D01*
X11665738Y-15832500D01*
X11675262Y-15842024D01*
X11684786Y-15861071D01*
X11694309Y-15899167D01*
X11694309Y-15946786D01*
X11684786Y-15984881D01*
X11675262Y-16003928D01*
X11665738Y-16013452D01*
X11646690Y-16022976D01*
X11627643Y-16022976D01*
X11608595Y-16013452D01*
X11599071Y-16003928D01*
X11589548Y-15984881D01*
X11580024Y-15946786D01*
X11580024Y-15899167D01*
X11589548Y-15861071D01*
X11599071Y-15842024D01*
X11608595Y-15832500D01*
X11627643Y-15822976D01*
X11818119Y-15822976D02*
X11837167Y-15822976D01*
X11856214Y-15832500D01*
X11865738Y-15842024D01*
X11875262Y-15861071D01*
X11884786Y-15899167D01*
X11884786Y-15946786D01*
X11875262Y-15984881D01*
X11865738Y-16003928D01*
X11856214Y-16013452D01*
X11837167Y-16022976D01*
X11818119Y-16022976D01*
X11799071Y-16013452D01*
X11789548Y-16003928D01*
X11780024Y-15984881D01*
X11770500Y-15946786D01*
X11770500Y-15899167D01*
X11780024Y-15861071D01*
X11789548Y-15842024D01*
X11799071Y-15832500D01*
X11818119Y-15822976D01*
X11960976Y-15822976D02*
X11960976Y-15861071D01*
X12037167Y-15822976D02*
X12037167Y-15861071D01*
X12332405Y-16099167D02*
X12322881Y-16089643D01*
X12303833Y-16061071D01*
X12294309Y-16042024D01*
X12284786Y-16013452D01*
X12275262Y-15965833D01*
X12275262Y-15927738D01*
X12284786Y-15880119D01*
X12294309Y-15851548D01*
X12303833Y-15832500D01*
X12322881Y-15803928D01*
X12332405Y-15794405D01*
X12399071Y-15842024D02*
X12408595Y-15832500D01*
X12427643Y-15822976D01*
X12475262Y-15822976D01*
X12494309Y-15832500D01*
X12503833Y-15842024D01*
X12513357Y-15861071D01*
X12513357Y-15880119D01*
X12503833Y-15908690D01*
X12389548Y-16022976D01*
X12513357Y-16022976D01*
X12703833Y-16022976D02*
X12589548Y-16022976D01*
X12646690Y-16022976D02*
X12646690Y-15822976D01*
X12627643Y-15851548D01*
X12608595Y-15870595D01*
X12589548Y-15880119D01*
X12941928Y-16022976D02*
X12941928Y-15822976D01*
X13027643Y-16022976D02*
X13027643Y-15918214D01*
X13018119Y-15899167D01*
X12999071Y-15889643D01*
X12970500Y-15889643D01*
X12951452Y-15899167D01*
X12941928Y-15908690D01*
X13151452Y-16022976D02*
X13132405Y-16013452D01*
X13122881Y-16003928D01*
X13113357Y-15984881D01*
X13113357Y-15927738D01*
X13122881Y-15908690D01*
X13132405Y-15899167D01*
X13151452Y-15889643D01*
X13180024Y-15889643D01*
X13199071Y-15899167D01*
X13208595Y-15908690D01*
X13218119Y-15927738D01*
X13218119Y-15984881D01*
X13208595Y-16003928D01*
X13199071Y-16013452D01*
X13180024Y-16022976D01*
X13151452Y-16022976D01*
X13332405Y-16022976D02*
X13313357Y-16013452D01*
X13303833Y-15994405D01*
X13303833Y-15822976D01*
X13484786Y-16013452D02*
X13465738Y-16022976D01*
X13427643Y-16022976D01*
X13408595Y-16013452D01*
X13399071Y-15994405D01*
X13399071Y-15918214D01*
X13408595Y-15899167D01*
X13427643Y-15889643D01*
X13465738Y-15889643D01*
X13484786Y-15899167D01*
X13494309Y-15918214D01*
X13494309Y-15937262D01*
X13399071Y-15956309D01*
X13570500Y-16013452D02*
X13589548Y-16022976D01*
X13627643Y-16022976D01*
X13646690Y-16013452D01*
X13656214Y-15994405D01*
X13656214Y-15984881D01*
X13646690Y-15965833D01*
X13627643Y-15956309D01*
X13599071Y-15956309D01*
X13580024Y-15946786D01*
X13570500Y-15927738D01*
X13570500Y-15918214D01*
X13580024Y-15899167D01*
X13599071Y-15889643D01*
X13627643Y-15889643D01*
X13646690Y-15899167D01*
X13722881Y-16099167D02*
X13732405Y-16089643D01*
X13751452Y-16061071D01*
X13760976Y-16042024D01*
X13770500Y-16013452D01*
X13780024Y-15965833D01*
X13780024Y-15927738D01*
X13770500Y-15880119D01*
X13760976Y-15851548D01*
X13751452Y-15832500D01*
X13732405Y-15803928D01*
X13722881Y-15794405D01*
D18*
X8620500Y-16126500D02*
X8760500Y-16266500D01*
X8760500Y-16126500D02*
X8620500Y-16266500D01*
X8690500Y-16126500D02*
X8690500Y-16266500D01*
X8620500Y-16196500D02*
X8760500Y-16196500D01*
D11*
X9122881Y-16286976D02*
X9008595Y-16286976D01*
X9065738Y-16286976D02*
X9065738Y-16086976D01*
X9046690Y-16115548D01*
X9027643Y-16134595D01*
X9008595Y-16144119D01*
X9208595Y-16267928D02*
X9218119Y-16277452D01*
X9208595Y-16286976D01*
X9199071Y-16277452D01*
X9208595Y-16267928D01*
X9208595Y-16286976D01*
X9389548Y-16153643D02*
X9389548Y-16286976D01*
X9341929Y-16077452D02*
X9294310Y-16220309D01*
X9418119Y-16220309D01*
X9532405Y-16086976D02*
X9551452Y-16086976D01*
X9570500Y-16096500D01*
X9580024Y-16106024D01*
X9589548Y-16125071D01*
X9599071Y-16163167D01*
X9599071Y-16210786D01*
X9589548Y-16248881D01*
X9580024Y-16267928D01*
X9570500Y-16277452D01*
X9551452Y-16286976D01*
X9532405Y-16286976D01*
X9513357Y-16277452D01*
X9503833Y-16267928D01*
X9494310Y-16248881D01*
X9484786Y-16210786D01*
X9484786Y-16163167D01*
X9494310Y-16125071D01*
X9503833Y-16106024D01*
X9513357Y-16096500D01*
X9532405Y-16086976D01*
X9722881Y-16086976D02*
X9741929Y-16086976D01*
X9760976Y-16096500D01*
X9770500Y-16106024D01*
X9780024Y-16125071D01*
X9789548Y-16163167D01*
X9789548Y-16210786D01*
X9780024Y-16248881D01*
X9770500Y-16267928D01*
X9760976Y-16277452D01*
X9741929Y-16286976D01*
X9722881Y-16286976D01*
X9703833Y-16277452D01*
X9694310Y-16267928D01*
X9684786Y-16248881D01*
X9675262Y-16210786D01*
X9675262Y-16163167D01*
X9684786Y-16125071D01*
X9694310Y-16106024D01*
X9703833Y-16096500D01*
X9722881Y-16086976D01*
X9875262Y-16286976D02*
X9875262Y-16153643D01*
X9875262Y-16172690D02*
X9884786Y-16163167D01*
X9903833Y-16153643D01*
X9932405Y-16153643D01*
X9951452Y-16163167D01*
X9960976Y-16182214D01*
X9960976Y-16286976D01*
X9960976Y-16182214D02*
X9970500Y-16163167D01*
X9989548Y-16153643D01*
X10018119Y-16153643D01*
X10037167Y-16163167D01*
X10046690Y-16182214D01*
X10046690Y-16286976D01*
X10141929Y-16286976D02*
X10141929Y-16153643D01*
X10141929Y-16172690D02*
X10151452Y-16163167D01*
X10170500Y-16153643D01*
X10199071Y-16153643D01*
X10218119Y-16163167D01*
X10227643Y-16182214D01*
X10227643Y-16286976D01*
X10227643Y-16182214D02*
X10237167Y-16163167D01*
X10256214Y-16153643D01*
X10284786Y-16153643D01*
X10303833Y-16163167D01*
X10313357Y-16182214D01*
X10313357Y-16286976D01*
X10703833Y-16077452D02*
X10532405Y-16334595D01*
X10960976Y-16086976D02*
X10980024Y-16086976D01*
X10999071Y-16096500D01*
X11008595Y-16106024D01*
X11018119Y-16125071D01*
X11027643Y-16163167D01*
X11027643Y-16210786D01*
X11018119Y-16248881D01*
X11008595Y-16267928D01*
X10999071Y-16277452D01*
X10980024Y-16286976D01*
X10960976Y-16286976D01*
X10941929Y-16277452D01*
X10932405Y-16267928D01*
X10922881Y-16248881D01*
X10913357Y-16210786D01*
X10913357Y-16163167D01*
X10922881Y-16125071D01*
X10932405Y-16106024D01*
X10941929Y-16096500D01*
X10960976Y-16086976D01*
X11113357Y-16267928D02*
X11122881Y-16277452D01*
X11113357Y-16286976D01*
X11103833Y-16277452D01*
X11113357Y-16267928D01*
X11113357Y-16286976D01*
X11246690Y-16086976D02*
X11265738Y-16086976D01*
X11284786Y-16096500D01*
X11294309Y-16106024D01*
X11303833Y-16125071D01*
X11313357Y-16163167D01*
X11313357Y-16210786D01*
X11303833Y-16248881D01*
X11294309Y-16267928D01*
X11284786Y-16277452D01*
X11265738Y-16286976D01*
X11246690Y-16286976D01*
X11227643Y-16277452D01*
X11218119Y-16267928D01*
X11208595Y-16248881D01*
X11199071Y-16210786D01*
X11199071Y-16163167D01*
X11208595Y-16125071D01*
X11218119Y-16106024D01*
X11227643Y-16096500D01*
X11246690Y-16086976D01*
X11494309Y-16086976D02*
X11399071Y-16086976D01*
X11389548Y-16182214D01*
X11399071Y-16172690D01*
X11418119Y-16163167D01*
X11465738Y-16163167D01*
X11484786Y-16172690D01*
X11494309Y-16182214D01*
X11503833Y-16201262D01*
X11503833Y-16248881D01*
X11494309Y-16267928D01*
X11484786Y-16277452D01*
X11465738Y-16286976D01*
X11418119Y-16286976D01*
X11399071Y-16277452D01*
X11389548Y-16267928D01*
X11684786Y-16086976D02*
X11589548Y-16086976D01*
X11580024Y-16182214D01*
X11589548Y-16172690D01*
X11608595Y-16163167D01*
X11656214Y-16163167D01*
X11675262Y-16172690D01*
X11684786Y-16182214D01*
X11694309Y-16201262D01*
X11694309Y-16248881D01*
X11684786Y-16267928D01*
X11675262Y-16277452D01*
X11656214Y-16286976D01*
X11608595Y-16286976D01*
X11589548Y-16277452D01*
X11580024Y-16267928D01*
X11884786Y-16286976D02*
X11770500Y-16286976D01*
X11827643Y-16286976D02*
X11827643Y-16086976D01*
X11808595Y-16115548D01*
X11789548Y-16134595D01*
X11770500Y-16144119D01*
X11960976Y-16086976D02*
X11960976Y-16125071D01*
X12037167Y-16086976D02*
X12037167Y-16125071D01*
X12332405Y-16363167D02*
X12322881Y-16353643D01*
X12303833Y-16325071D01*
X12294309Y-16306024D01*
X12284786Y-16277452D01*
X12275262Y-16229833D01*
X12275262Y-16191738D01*
X12284786Y-16144119D01*
X12294309Y-16115548D01*
X12303833Y-16096500D01*
X12322881Y-16067928D01*
X12332405Y-16058405D01*
X12513357Y-16286976D02*
X12399071Y-16286976D01*
X12456214Y-16286976D02*
X12456214Y-16086976D01*
X12437167Y-16115548D01*
X12418119Y-16134595D01*
X12399071Y-16144119D01*
X12684786Y-16153643D02*
X12684786Y-16286976D01*
X12637167Y-16077452D02*
X12589548Y-16220309D01*
X12713357Y-16220309D01*
X12941928Y-16286976D02*
X12941928Y-16086976D01*
X13027643Y-16286976D02*
X13027643Y-16182214D01*
X13018119Y-16163167D01*
X12999071Y-16153643D01*
X12970500Y-16153643D01*
X12951452Y-16163167D01*
X12941928Y-16172690D01*
X13151452Y-16286976D02*
X13132405Y-16277452D01*
X13122881Y-16267928D01*
X13113357Y-16248881D01*
X13113357Y-16191738D01*
X13122881Y-16172690D01*
X13132405Y-16163167D01*
X13151452Y-16153643D01*
X13180024Y-16153643D01*
X13199071Y-16163167D01*
X13208595Y-16172690D01*
X13218119Y-16191738D01*
X13218119Y-16248881D01*
X13208595Y-16267928D01*
X13199071Y-16277452D01*
X13180024Y-16286976D01*
X13151452Y-16286976D01*
X13332405Y-16286976D02*
X13313357Y-16277452D01*
X13303833Y-16258405D01*
X13303833Y-16086976D01*
X13484786Y-16277452D02*
X13465738Y-16286976D01*
X13427643Y-16286976D01*
X13408595Y-16277452D01*
X13399071Y-16258405D01*
X13399071Y-16182214D01*
X13408595Y-16163167D01*
X13427643Y-16153643D01*
X13465738Y-16153643D01*
X13484786Y-16163167D01*
X13494309Y-16182214D01*
X13494309Y-16201262D01*
X13399071Y-16220309D01*
X13570500Y-16277452D02*
X13589548Y-16286976D01*
X13627643Y-16286976D01*
X13646690Y-16277452D01*
X13656214Y-16258405D01*
X13656214Y-16248881D01*
X13646690Y-16229833D01*
X13627643Y-16220309D01*
X13599071Y-16220309D01*
X13580024Y-16210786D01*
X13570500Y-16191738D01*
X13570500Y-16182214D01*
X13580024Y-16163167D01*
X13599071Y-16153643D01*
X13627643Y-16153643D01*
X13646690Y-16163167D01*
X13722881Y-16363167D02*
X13732405Y-16353643D01*
X13751452Y-16325071D01*
X13760976Y-16306024D01*
X13770500Y-16277452D01*
X13780024Y-16229833D01*
X13780024Y-16191738D01*
X13770500Y-16144119D01*
X13760976Y-16115548D01*
X13751452Y-16096500D01*
X13732405Y-16067928D01*
X13722881Y-16058405D01*
X8560500Y-16360500D02*
X8760500Y-16560500D01*
X8760500Y-16360500D02*
X8560500Y-16560500D01*
X8731211Y-16531211D02*
X8731211Y-16389789D01*
X8589789Y-16389789D01*
X8589789Y-16531211D01*
X8731211Y-16531211D01*
X9008595Y-16370024D02*
X9018119Y-16360500D01*
X9037167Y-16350976D01*
X9084786Y-16350976D01*
X9103833Y-16360500D01*
X9113357Y-16370024D01*
X9122881Y-16389071D01*
X9122881Y-16408119D01*
X9113357Y-16436690D01*
X8999071Y-16550976D01*
X9122881Y-16550976D01*
X9208595Y-16531928D02*
X9218119Y-16541452D01*
X9208595Y-16550976D01*
X9199071Y-16541452D01*
X9208595Y-16531928D01*
X9208595Y-16550976D01*
X9399071Y-16350976D02*
X9303833Y-16350976D01*
X9294310Y-16446214D01*
X9303833Y-16436690D01*
X9322881Y-16427167D01*
X9370500Y-16427167D01*
X9389548Y-16436690D01*
X9399071Y-16446214D01*
X9408595Y-16465262D01*
X9408595Y-16512881D01*
X9399071Y-16531928D01*
X9389548Y-16541452D01*
X9370500Y-16550976D01*
X9322881Y-16550976D01*
X9303833Y-16541452D01*
X9294310Y-16531928D01*
X9532405Y-16350976D02*
X9551452Y-16350976D01*
X9570500Y-16360500D01*
X9580024Y-16370024D01*
X9589548Y-16389071D01*
X9599071Y-16427167D01*
X9599071Y-16474786D01*
X9589548Y-16512881D01*
X9580024Y-16531928D01*
X9570500Y-16541452D01*
X9551452Y-16550976D01*
X9532405Y-16550976D01*
X9513357Y-16541452D01*
X9503833Y-16531928D01*
X9494310Y-16512881D01*
X9484786Y-16474786D01*
X9484786Y-16427167D01*
X9494310Y-16389071D01*
X9503833Y-16370024D01*
X9513357Y-16360500D01*
X9532405Y-16350976D01*
X9722881Y-16350976D02*
X9741929Y-16350976D01*
X9760976Y-16360500D01*
X9770500Y-16370024D01*
X9780024Y-16389071D01*
X9789548Y-16427167D01*
X9789548Y-16474786D01*
X9780024Y-16512881D01*
X9770500Y-16531928D01*
X9760976Y-16541452D01*
X9741929Y-16550976D01*
X9722881Y-16550976D01*
X9703833Y-16541452D01*
X9694310Y-16531928D01*
X9684786Y-16512881D01*
X9675262Y-16474786D01*
X9675262Y-16427167D01*
X9684786Y-16389071D01*
X9694310Y-16370024D01*
X9703833Y-16360500D01*
X9722881Y-16350976D01*
X9875262Y-16550976D02*
X9875262Y-16417643D01*
X9875262Y-16436690D02*
X9884786Y-16427167D01*
X9903833Y-16417643D01*
X9932405Y-16417643D01*
X9951452Y-16427167D01*
X9960976Y-16446214D01*
X9960976Y-16550976D01*
X9960976Y-16446214D02*
X9970500Y-16427167D01*
X9989548Y-16417643D01*
X10018119Y-16417643D01*
X10037167Y-16427167D01*
X10046690Y-16446214D01*
X10046690Y-16550976D01*
X10141929Y-16550976D02*
X10141929Y-16417643D01*
X10141929Y-16436690D02*
X10151452Y-16427167D01*
X10170500Y-16417643D01*
X10199071Y-16417643D01*
X10218119Y-16427167D01*
X10227643Y-16446214D01*
X10227643Y-16550976D01*
X10227643Y-16446214D02*
X10237167Y-16427167D01*
X10256214Y-16417643D01*
X10284786Y-16417643D01*
X10303833Y-16427167D01*
X10313357Y-16446214D01*
X10313357Y-16550976D01*
X10703833Y-16341452D02*
X10532405Y-16598595D01*
X10960976Y-16350976D02*
X10980024Y-16350976D01*
X10999071Y-16360500D01*
X11008595Y-16370024D01*
X11018119Y-16389071D01*
X11027643Y-16427167D01*
X11027643Y-16474786D01*
X11018119Y-16512881D01*
X11008595Y-16531928D01*
X10999071Y-16541452D01*
X10980024Y-16550976D01*
X10960976Y-16550976D01*
X10941929Y-16541452D01*
X10932405Y-16531928D01*
X10922881Y-16512881D01*
X10913357Y-16474786D01*
X10913357Y-16427167D01*
X10922881Y-16389071D01*
X10932405Y-16370024D01*
X10941929Y-16360500D01*
X10960976Y-16350976D01*
X11113357Y-16531928D02*
X11122881Y-16541452D01*
X11113357Y-16550976D01*
X11103833Y-16541452D01*
X11113357Y-16531928D01*
X11113357Y-16550976D01*
X11246690Y-16350976D02*
X11265738Y-16350976D01*
X11284786Y-16360500D01*
X11294309Y-16370024D01*
X11303833Y-16389071D01*
X11313357Y-16427167D01*
X11313357Y-16474786D01*
X11303833Y-16512881D01*
X11294309Y-16531928D01*
X11284786Y-16541452D01*
X11265738Y-16550976D01*
X11246690Y-16550976D01*
X11227643Y-16541452D01*
X11218119Y-16531928D01*
X11208595Y-16512881D01*
X11199071Y-16474786D01*
X11199071Y-16427167D01*
X11208595Y-16389071D01*
X11218119Y-16370024D01*
X11227643Y-16360500D01*
X11246690Y-16350976D01*
X11408595Y-16550976D02*
X11446690Y-16550976D01*
X11465738Y-16541452D01*
X11475262Y-16531928D01*
X11494309Y-16503357D01*
X11503833Y-16465262D01*
X11503833Y-16389071D01*
X11494309Y-16370024D01*
X11484786Y-16360500D01*
X11465738Y-16350976D01*
X11427643Y-16350976D01*
X11408595Y-16360500D01*
X11399071Y-16370024D01*
X11389548Y-16389071D01*
X11389548Y-16436690D01*
X11399071Y-16455738D01*
X11408595Y-16465262D01*
X11427643Y-16474786D01*
X11465738Y-16474786D01*
X11484786Y-16465262D01*
X11494309Y-16455738D01*
X11503833Y-16436690D01*
X11618119Y-16436690D02*
X11599071Y-16427167D01*
X11589548Y-16417643D01*
X11580024Y-16398595D01*
X11580024Y-16389071D01*
X11589548Y-16370024D01*
X11599071Y-16360500D01*
X11618119Y-16350976D01*
X11656214Y-16350976D01*
X11675262Y-16360500D01*
X11684786Y-16370024D01*
X11694309Y-16389071D01*
X11694309Y-16398595D01*
X11684786Y-16417643D01*
X11675262Y-16427167D01*
X11656214Y-16436690D01*
X11618119Y-16436690D01*
X11599071Y-16446214D01*
X11589548Y-16455738D01*
X11580024Y-16474786D01*
X11580024Y-16512881D01*
X11589548Y-16531928D01*
X11599071Y-16541452D01*
X11618119Y-16550976D01*
X11656214Y-16550976D01*
X11675262Y-16541452D01*
X11684786Y-16531928D01*
X11694309Y-16512881D01*
X11694309Y-16474786D01*
X11684786Y-16455738D01*
X11675262Y-16446214D01*
X11656214Y-16436690D01*
X11865738Y-16417643D02*
X11865738Y-16550976D01*
X11818119Y-16341452D02*
X11770500Y-16484309D01*
X11894309Y-16484309D01*
X11960976Y-16350976D02*
X11960976Y-16389071D01*
X12037167Y-16350976D02*
X12037167Y-16389071D01*
X12332405Y-16627167D02*
X12322881Y-16617643D01*
X12303833Y-16589071D01*
X12294309Y-16570024D01*
X12284786Y-16541452D01*
X12275262Y-16493833D01*
X12275262Y-16455738D01*
X12284786Y-16408119D01*
X12294309Y-16379548D01*
X12303833Y-16360500D01*
X12322881Y-16331928D01*
X12332405Y-16322405D01*
X12399071Y-16370024D02*
X12408595Y-16360500D01*
X12427643Y-16350976D01*
X12475262Y-16350976D01*
X12494309Y-16360500D01*
X12503833Y-16370024D01*
X12513357Y-16389071D01*
X12513357Y-16408119D01*
X12503833Y-16436690D01*
X12389548Y-16550976D01*
X12513357Y-16550976D01*
X12751452Y-16550976D02*
X12751452Y-16350976D01*
X12837167Y-16550976D02*
X12837167Y-16446214D01*
X12827643Y-16427167D01*
X12808595Y-16417643D01*
X12780024Y-16417643D01*
X12760976Y-16427167D01*
X12751452Y-16436690D01*
X12960976Y-16550976D02*
X12941928Y-16541452D01*
X12932405Y-16531928D01*
X12922881Y-16512881D01*
X12922881Y-16455738D01*
X12932405Y-16436690D01*
X12941928Y-16427167D01*
X12960976Y-16417643D01*
X12989548Y-16417643D01*
X13008595Y-16427167D01*
X13018119Y-16436690D01*
X13027643Y-16455738D01*
X13027643Y-16512881D01*
X13018119Y-16531928D01*
X13008595Y-16541452D01*
X12989548Y-16550976D01*
X12960976Y-16550976D01*
X13141928Y-16550976D02*
X13122881Y-16541452D01*
X13113357Y-16522405D01*
X13113357Y-16350976D01*
X13294309Y-16541452D02*
X13275262Y-16550976D01*
X13237167Y-16550976D01*
X13218119Y-16541452D01*
X13208595Y-16522405D01*
X13208595Y-16446214D01*
X13218119Y-16427167D01*
X13237167Y-16417643D01*
X13275262Y-16417643D01*
X13294309Y-16427167D01*
X13303833Y-16446214D01*
X13303833Y-16465262D01*
X13208595Y-16484309D01*
X13380024Y-16541452D02*
X13399071Y-16550976D01*
X13437167Y-16550976D01*
X13456214Y-16541452D01*
X13465738Y-16522405D01*
X13465738Y-16512881D01*
X13456214Y-16493833D01*
X13437167Y-16484309D01*
X13408595Y-16484309D01*
X13389548Y-16474786D01*
X13380024Y-16455738D01*
X13380024Y-16446214D01*
X13389548Y-16427167D01*
X13408595Y-16417643D01*
X13437167Y-16417643D01*
X13456214Y-16427167D01*
X13532405Y-16627167D02*
X13541928Y-16617643D01*
X13560976Y-16589071D01*
X13570500Y-16570024D01*
X13580024Y-16541452D01*
X13589548Y-16493833D01*
X13589548Y-16455738D01*
X13580024Y-16408119D01*
X13570500Y-16379548D01*
X13560976Y-16360500D01*
X13541928Y-16331928D01*
X13532405Y-16322405D01*
X8560500Y-16680500D02*
X8760500Y-16880500D01*
X8760500Y-16680500D02*
X8560500Y-16880500D01*
X8660500Y-16880500D02*
X8760500Y-16780500D01*
X8660500Y-16680500D01*
X8560500Y-16780500D01*
X8660500Y-16880500D01*
X9008595Y-16690024D02*
X9018119Y-16680500D01*
X9037167Y-16670976D01*
X9084786Y-16670976D01*
X9103833Y-16680500D01*
X9113357Y-16690024D01*
X9122881Y-16709071D01*
X9122881Y-16728119D01*
X9113357Y-16756690D01*
X8999071Y-16870976D01*
X9122881Y-16870976D01*
X9208595Y-16851929D02*
X9218119Y-16861452D01*
X9208595Y-16870976D01*
X9199071Y-16861452D01*
X9208595Y-16851929D01*
X9208595Y-16870976D01*
X9399071Y-16670976D02*
X9303833Y-16670976D01*
X9294310Y-16766214D01*
X9303833Y-16756690D01*
X9322881Y-16747167D01*
X9370500Y-16747167D01*
X9389548Y-16756690D01*
X9399071Y-16766214D01*
X9408595Y-16785262D01*
X9408595Y-16832881D01*
X9399071Y-16851929D01*
X9389548Y-16861452D01*
X9370500Y-16870976D01*
X9322881Y-16870976D01*
X9303833Y-16861452D01*
X9294310Y-16851929D01*
X9580024Y-16737643D02*
X9580024Y-16870976D01*
X9532405Y-16661452D02*
X9484786Y-16804310D01*
X9608595Y-16804310D01*
X9722881Y-16670976D02*
X9741929Y-16670976D01*
X9760976Y-16680500D01*
X9770500Y-16690024D01*
X9780024Y-16709071D01*
X9789548Y-16747167D01*
X9789548Y-16794786D01*
X9780024Y-16832881D01*
X9770500Y-16851929D01*
X9760976Y-16861452D01*
X9741929Y-16870976D01*
X9722881Y-16870976D01*
X9703833Y-16861452D01*
X9694310Y-16851929D01*
X9684786Y-16832881D01*
X9675262Y-16794786D01*
X9675262Y-16747167D01*
X9684786Y-16709071D01*
X9694310Y-16690024D01*
X9703833Y-16680500D01*
X9722881Y-16670976D01*
X9875262Y-16870976D02*
X9875262Y-16737643D01*
X9875262Y-16756690D02*
X9884786Y-16747167D01*
X9903833Y-16737643D01*
X9932405Y-16737643D01*
X9951452Y-16747167D01*
X9960976Y-16766214D01*
X9960976Y-16870976D01*
X9960976Y-16766214D02*
X9970500Y-16747167D01*
X9989548Y-16737643D01*
X10018119Y-16737643D01*
X10037167Y-16747167D01*
X10046690Y-16766214D01*
X10046690Y-16870976D01*
X10141929Y-16870976D02*
X10141929Y-16737643D01*
X10141929Y-16756690D02*
X10151452Y-16747167D01*
X10170500Y-16737643D01*
X10199071Y-16737643D01*
X10218119Y-16747167D01*
X10227643Y-16766214D01*
X10227643Y-16870976D01*
X10227643Y-16766214D02*
X10237167Y-16747167D01*
X10256214Y-16737643D01*
X10284786Y-16737643D01*
X10303833Y-16747167D01*
X10313357Y-16766214D01*
X10313357Y-16870976D01*
X10703833Y-16661452D02*
X10532405Y-16918595D01*
X10960976Y-16670976D02*
X10980024Y-16670976D01*
X10999071Y-16680500D01*
X11008595Y-16690024D01*
X11018119Y-16709071D01*
X11027643Y-16747167D01*
X11027643Y-16794786D01*
X11018119Y-16832881D01*
X11008595Y-16851929D01*
X10999071Y-16861452D01*
X10980024Y-16870976D01*
X10960976Y-16870976D01*
X10941929Y-16861452D01*
X10932405Y-16851929D01*
X10922881Y-16832881D01*
X10913357Y-16794786D01*
X10913357Y-16747167D01*
X10922881Y-16709071D01*
X10932405Y-16690024D01*
X10941929Y-16680500D01*
X10960976Y-16670976D01*
X11113357Y-16851929D02*
X11122881Y-16861452D01*
X11113357Y-16870976D01*
X11103833Y-16861452D01*
X11113357Y-16851929D01*
X11113357Y-16870976D01*
X11313357Y-16870976D02*
X11199071Y-16870976D01*
X11256214Y-16870976D02*
X11256214Y-16670976D01*
X11237167Y-16699548D01*
X11218119Y-16718595D01*
X11199071Y-16728119D01*
X11437167Y-16670976D02*
X11456214Y-16670976D01*
X11475262Y-16680500D01*
X11484786Y-16690024D01*
X11494309Y-16709071D01*
X11503833Y-16747167D01*
X11503833Y-16794786D01*
X11494309Y-16832881D01*
X11484786Y-16851929D01*
X11475262Y-16861452D01*
X11456214Y-16870976D01*
X11437167Y-16870976D01*
X11418119Y-16861452D01*
X11408595Y-16851929D01*
X11399071Y-16832881D01*
X11389548Y-16794786D01*
X11389548Y-16747167D01*
X11399071Y-16709071D01*
X11408595Y-16690024D01*
X11418119Y-16680500D01*
X11437167Y-16670976D01*
X11627643Y-16670976D02*
X11646690Y-16670976D01*
X11665738Y-16680500D01*
X11675262Y-16690024D01*
X11684786Y-16709071D01*
X11694309Y-16747167D01*
X11694309Y-16794786D01*
X11684786Y-16832881D01*
X11675262Y-16851929D01*
X11665738Y-16861452D01*
X11646690Y-16870976D01*
X11627643Y-16870976D01*
X11608595Y-16861452D01*
X11599071Y-16851929D01*
X11589548Y-16832881D01*
X11580024Y-16794786D01*
X11580024Y-16747167D01*
X11589548Y-16709071D01*
X11599071Y-16690024D01*
X11608595Y-16680500D01*
X11627643Y-16670976D01*
X11818119Y-16670976D02*
X11837167Y-16670976D01*
X11856214Y-16680500D01*
X11865738Y-16690024D01*
X11875262Y-16709071D01*
X11884786Y-16747167D01*
X11884786Y-16794786D01*
X11875262Y-16832881D01*
X11865738Y-16851929D01*
X11856214Y-16861452D01*
X11837167Y-16870976D01*
X11818119Y-16870976D01*
X11799071Y-16861452D01*
X11789548Y-16851929D01*
X11780024Y-16832881D01*
X11770500Y-16794786D01*
X11770500Y-16747167D01*
X11780024Y-16709071D01*
X11789548Y-16690024D01*
X11799071Y-16680500D01*
X11818119Y-16670976D01*
X11960976Y-16670976D02*
X11960976Y-16709071D01*
X12037167Y-16670976D02*
X12037167Y-16709071D01*
X12332405Y-16947167D02*
X12322881Y-16937643D01*
X12303833Y-16909071D01*
X12294309Y-16890024D01*
X12284786Y-16861452D01*
X12275262Y-16813833D01*
X12275262Y-16775738D01*
X12284786Y-16728119D01*
X12294309Y-16699548D01*
X12303833Y-16680500D01*
X12322881Y-16651928D01*
X12332405Y-16642405D01*
X12494309Y-16737643D02*
X12494309Y-16870976D01*
X12446690Y-16661452D02*
X12399071Y-16804310D01*
X12522881Y-16804310D01*
X12751452Y-16870976D02*
X12751452Y-16670976D01*
X12837167Y-16870976D02*
X12837167Y-16766214D01*
X12827643Y-16747167D01*
X12808595Y-16737643D01*
X12780024Y-16737643D01*
X12760976Y-16747167D01*
X12751452Y-16756690D01*
X12960976Y-16870976D02*
X12941928Y-16861452D01*
X12932405Y-16851929D01*
X12922881Y-16832881D01*
X12922881Y-16775738D01*
X12932405Y-16756690D01*
X12941928Y-16747167D01*
X12960976Y-16737643D01*
X12989548Y-16737643D01*
X13008595Y-16747167D01*
X13018119Y-16756690D01*
X13027643Y-16775738D01*
X13027643Y-16832881D01*
X13018119Y-16851929D01*
X13008595Y-16861452D01*
X12989548Y-16870976D01*
X12960976Y-16870976D01*
X13141928Y-16870976D02*
X13122881Y-16861452D01*
X13113357Y-16842405D01*
X13113357Y-16670976D01*
X13294309Y-16861452D02*
X13275262Y-16870976D01*
X13237167Y-16870976D01*
X13218119Y-16861452D01*
X13208595Y-16842405D01*
X13208595Y-16766214D01*
X13218119Y-16747167D01*
X13237167Y-16737643D01*
X13275262Y-16737643D01*
X13294309Y-16747167D01*
X13303833Y-16766214D01*
X13303833Y-16785262D01*
X13208595Y-16804310D01*
X13380024Y-16861452D02*
X13399071Y-16870976D01*
X13437167Y-16870976D01*
X13456214Y-16861452D01*
X13465738Y-16842405D01*
X13465738Y-16832881D01*
X13456214Y-16813833D01*
X13437167Y-16804310D01*
X13408595Y-16804310D01*
X13389548Y-16794786D01*
X13380024Y-16775738D01*
X13380024Y-16766214D01*
X13389548Y-16747167D01*
X13408595Y-16737643D01*
X13437167Y-16737643D01*
X13456214Y-16747167D01*
X13532405Y-16947167D02*
X13541928Y-16937643D01*
X13560976Y-16909071D01*
X13570500Y-16890024D01*
X13580024Y-16861452D01*
X13589548Y-16813833D01*
X13589548Y-16775738D01*
X13580024Y-16728119D01*
X13570500Y-16699548D01*
X13560976Y-16680500D01*
X13541928Y-16651928D01*
X13532405Y-16642405D01*
X8660500Y-17000500D02*
X8660500Y-17200500D01*
X8560500Y-17100500D02*
X8760500Y-17100500D01*
X8760500Y-17100500D02*
G75*
G03*
X8760500Y-17100500I-100000J0D01*
G01*
X8999071Y-16990976D02*
X9122881Y-16990976D01*
X9056214Y-17067167D01*
X9084786Y-17067167D01*
X9103833Y-17076690D01*
X9113357Y-17086214D01*
X9122881Y-17105262D01*
X9122881Y-17152881D01*
X9113357Y-17171929D01*
X9103833Y-17181452D01*
X9084786Y-17190976D01*
X9027643Y-17190976D01*
X9008595Y-17181452D01*
X8999071Y-17171929D01*
X9208595Y-17171929D02*
X9218119Y-17181452D01*
X9208595Y-17190976D01*
X9199071Y-17181452D01*
X9208595Y-17171929D01*
X9208595Y-17190976D01*
X9341929Y-16990976D02*
X9360976Y-16990976D01*
X9380024Y-17000500D01*
X9389548Y-17010024D01*
X9399071Y-17029071D01*
X9408595Y-17067167D01*
X9408595Y-17114786D01*
X9399071Y-17152881D01*
X9389548Y-17171929D01*
X9380024Y-17181452D01*
X9360976Y-17190976D01*
X9341929Y-17190976D01*
X9322881Y-17181452D01*
X9313357Y-17171929D01*
X9303833Y-17152881D01*
X9294310Y-17114786D01*
X9294310Y-17067167D01*
X9303833Y-17029071D01*
X9313357Y-17010024D01*
X9322881Y-17000500D01*
X9341929Y-16990976D01*
X9532405Y-16990976D02*
X9551452Y-16990976D01*
X9570500Y-17000500D01*
X9580024Y-17010024D01*
X9589548Y-17029071D01*
X9599071Y-17067167D01*
X9599071Y-17114786D01*
X9589548Y-17152881D01*
X9580024Y-17171929D01*
X9570500Y-17181452D01*
X9551452Y-17190976D01*
X9532405Y-17190976D01*
X9513357Y-17181452D01*
X9503833Y-17171929D01*
X9494310Y-17152881D01*
X9484786Y-17114786D01*
X9484786Y-17067167D01*
X9494310Y-17029071D01*
X9503833Y-17010024D01*
X9513357Y-17000500D01*
X9532405Y-16990976D01*
X9722881Y-16990976D02*
X9741929Y-16990976D01*
X9760976Y-17000500D01*
X9770500Y-17010024D01*
X9780024Y-17029071D01*
X9789548Y-17067167D01*
X9789548Y-17114786D01*
X9780024Y-17152881D01*
X9770500Y-17171929D01*
X9760976Y-17181452D01*
X9741929Y-17190976D01*
X9722881Y-17190976D01*
X9703833Y-17181452D01*
X9694310Y-17171929D01*
X9684786Y-17152881D01*
X9675262Y-17114786D01*
X9675262Y-17067167D01*
X9684786Y-17029071D01*
X9694310Y-17010024D01*
X9703833Y-17000500D01*
X9722881Y-16990976D01*
X9875262Y-17190976D02*
X9875262Y-17057643D01*
X9875262Y-17076690D02*
X9884786Y-17067167D01*
X9903833Y-17057643D01*
X9932405Y-17057643D01*
X9951452Y-17067167D01*
X9960976Y-17086214D01*
X9960976Y-17190976D01*
X9960976Y-17086214D02*
X9970500Y-17067167D01*
X9989548Y-17057643D01*
X10018119Y-17057643D01*
X10037167Y-17067167D01*
X10046690Y-17086214D01*
X10046690Y-17190976D01*
X10141929Y-17190976D02*
X10141929Y-17057643D01*
X10141929Y-17076690D02*
X10151452Y-17067167D01*
X10170500Y-17057643D01*
X10199071Y-17057643D01*
X10218119Y-17067167D01*
X10227643Y-17086214D01*
X10227643Y-17190976D01*
X10227643Y-17086214D02*
X10237167Y-17067167D01*
X10256214Y-17057643D01*
X10284786Y-17057643D01*
X10303833Y-17067167D01*
X10313357Y-17086214D01*
X10313357Y-17190976D01*
X10703833Y-16981452D02*
X10532405Y-17238595D01*
X10960976Y-16990976D02*
X10980024Y-16990976D01*
X10999071Y-17000500D01*
X11008595Y-17010024D01*
X11018119Y-17029071D01*
X11027643Y-17067167D01*
X11027643Y-17114786D01*
X11018119Y-17152881D01*
X11008595Y-17171929D01*
X10999071Y-17181452D01*
X10980024Y-17190976D01*
X10960976Y-17190976D01*
X10941929Y-17181452D01*
X10932405Y-17171929D01*
X10922881Y-17152881D01*
X10913357Y-17114786D01*
X10913357Y-17067167D01*
X10922881Y-17029071D01*
X10932405Y-17010024D01*
X10941929Y-17000500D01*
X10960976Y-16990976D01*
X11113357Y-17171929D02*
X11122881Y-17181452D01*
X11113357Y-17190976D01*
X11103833Y-17181452D01*
X11113357Y-17171929D01*
X11113357Y-17190976D01*
X11313357Y-17190976D02*
X11199071Y-17190976D01*
X11256214Y-17190976D02*
X11256214Y-16990976D01*
X11237167Y-17019548D01*
X11218119Y-17038595D01*
X11199071Y-17048119D01*
X11503833Y-17190976D02*
X11389548Y-17190976D01*
X11446690Y-17190976D02*
X11446690Y-16990976D01*
X11427643Y-17019548D01*
X11408595Y-17038595D01*
X11389548Y-17048119D01*
X11618119Y-17076690D02*
X11599071Y-17067167D01*
X11589548Y-17057643D01*
X11580024Y-17038595D01*
X11580024Y-17029071D01*
X11589548Y-17010024D01*
X11599071Y-17000500D01*
X11618119Y-16990976D01*
X11656214Y-16990976D01*
X11675262Y-17000500D01*
X11684786Y-17010024D01*
X11694309Y-17029071D01*
X11694309Y-17038595D01*
X11684786Y-17057643D01*
X11675262Y-17067167D01*
X11656214Y-17076690D01*
X11618119Y-17076690D01*
X11599071Y-17086214D01*
X11589548Y-17095738D01*
X11580024Y-17114786D01*
X11580024Y-17152881D01*
X11589548Y-17171929D01*
X11599071Y-17181452D01*
X11618119Y-17190976D01*
X11656214Y-17190976D01*
X11675262Y-17181452D01*
X11684786Y-17171929D01*
X11694309Y-17152881D01*
X11694309Y-17114786D01*
X11684786Y-17095738D01*
X11675262Y-17086214D01*
X11656214Y-17076690D01*
X11884786Y-17190976D02*
X11770500Y-17190976D01*
X11827643Y-17190976D02*
X11827643Y-16990976D01*
X11808595Y-17019548D01*
X11789548Y-17038595D01*
X11770500Y-17048119D01*
X11960976Y-16990976D02*
X11960976Y-17029071D01*
X12037167Y-16990976D02*
X12037167Y-17029071D01*
X12332405Y-17267167D02*
X12322881Y-17257643D01*
X12303833Y-17229071D01*
X12294309Y-17210024D01*
X12284786Y-17181452D01*
X12275262Y-17133833D01*
X12275262Y-17095738D01*
X12284786Y-17048119D01*
X12294309Y-17019548D01*
X12303833Y-17000500D01*
X12322881Y-16971929D01*
X12332405Y-16962405D01*
X12494309Y-17057643D02*
X12494309Y-17190976D01*
X12446690Y-16981452D02*
X12399071Y-17124310D01*
X12522881Y-17124310D01*
X12751452Y-17190976D02*
X12751452Y-16990976D01*
X12837167Y-17190976D02*
X12837167Y-17086214D01*
X12827643Y-17067167D01*
X12808595Y-17057643D01*
X12780024Y-17057643D01*
X12760976Y-17067167D01*
X12751452Y-17076690D01*
X12960976Y-17190976D02*
X12941928Y-17181452D01*
X12932405Y-17171929D01*
X12922881Y-17152881D01*
X12922881Y-17095738D01*
X12932405Y-17076690D01*
X12941928Y-17067167D01*
X12960976Y-17057643D01*
X12989548Y-17057643D01*
X13008595Y-17067167D01*
X13018119Y-17076690D01*
X13027643Y-17095738D01*
X13027643Y-17152881D01*
X13018119Y-17171929D01*
X13008595Y-17181452D01*
X12989548Y-17190976D01*
X12960976Y-17190976D01*
X13141928Y-17190976D02*
X13122881Y-17181452D01*
X13113357Y-17162405D01*
X13113357Y-16990976D01*
X13294309Y-17181452D02*
X13275262Y-17190976D01*
X13237167Y-17190976D01*
X13218119Y-17181452D01*
X13208595Y-17162405D01*
X13208595Y-17086214D01*
X13218119Y-17067167D01*
X13237167Y-17057643D01*
X13275262Y-17057643D01*
X13294309Y-17067167D01*
X13303833Y-17086214D01*
X13303833Y-17105262D01*
X13208595Y-17124310D01*
X13380024Y-17181452D02*
X13399071Y-17190976D01*
X13437167Y-17190976D01*
X13456214Y-17181452D01*
X13465738Y-17162405D01*
X13465738Y-17152881D01*
X13456214Y-17133833D01*
X13437167Y-17124310D01*
X13408595Y-17124310D01*
X13389548Y-17114786D01*
X13380024Y-17095738D01*
X13380024Y-17086214D01*
X13389548Y-17067167D01*
X13408595Y-17057643D01*
X13437167Y-17057643D01*
X13456214Y-17067167D01*
X13532405Y-17267167D02*
X13541928Y-17257643D01*
X13560976Y-17229071D01*
X13570500Y-17210024D01*
X13580024Y-17181452D01*
X13589548Y-17133833D01*
X13589548Y-17095738D01*
X13580024Y-17048119D01*
X13570500Y-17019548D01*
X13560976Y-17000500D01*
X13541928Y-16971929D01*
X13532405Y-16962405D01*
M02*
