M48
; DRILL file {KiCad (6.0.2-0)} date Sunday, April 17, 2022 at 10:51:51 pm
; FORMAT={-:-/ absolute / metric / decimal}
; #@! TF.CreationDate,2022-04-17T22:51:51-04:00
; #@! TF.GenerationSoftware,Kicad,Pcbnew,(6.0.2-0)
; #@! TF.FileFunction,Plated,1,2,PTH
FMAT,2
METRIC
; #@! TA.AperFunction,Plated,PTH,ViaDrill
T1C0.400
; #@! TA.AperFunction,Plated,PTH,ComponentDrill
T2C0.500
; #@! TA.AperFunction,Plated,PTH,ComponentDrill
T3C0.762
; #@! TA.AperFunction,Plated,PTH,ComponentDrill
T4C0.800
; #@! TA.AperFunction,Plated,PTH,ComponentDrill
T5C1.000
; #@! TA.AperFunction,Plated,PTH,ComponentDrill
T6C1.016
; #@! TA.AperFunction,Plated,PTH,ComponentDrill
T7C1.400
; #@! TA.AperFunction,Plated,PTH,ComponentDrill
T8C2.500
; #@! TA.AperFunction,Plated,PTH,ComponentDrill
T9C2.540
; #@! TA.AperFunction,Plated,PTH,ComponentDrill
T10C3.000
%
G90
G05
T1
X91.44Y-67.31
X91.44Y-88.9
X91.44Y-110.49
X102.87Y-78.74
X102.87Y-99.06
X104.775Y-135.89
X113.03Y-67.31
X113.03Y-88.9
X113.03Y-110.49
X120.015Y-125.73
X123.19Y-78.74
X123.19Y-100.33
X134.62Y-88.9
X134.62Y-128.905
X134.62Y-134.62
X139.7Y-74.93
X139.7Y-120.015
X147.32Y-66.04
X147.32Y-74.93
X147.32Y-83.82
X147.32Y-95.25
X147.32Y-102.87
X147.32Y-110.49
X147.32Y-125.476
X156.21Y-100.33
X156.21Y-119.888
X160.02Y-128.905
X160.02Y-134.62
X170.18Y-66.04
X170.18Y-76.2
X170.18Y-85.09
X170.18Y-92.71
X170.18Y-100.33
X170.18Y-111.76
X170.18Y-120.015
X171.45Y-105.41
X173.228Y-107.95
X182.626Y-107.95
X182.695Y-114.132
X182.88Y-80.01
X182.88Y-100.33
X185.42Y-128.905
X185.42Y-134.62
X192.405Y-113.665
X193.04Y-87.63
X193.04Y-90.17
X193.04Y-92.71
X193.04Y-95.25
X193.675Y-112.395
X194.945Y-113.665
X195.58Y-66.04
X195.58Y-76.2
X195.58Y-82.55
X195.58Y-85.09
X196.215Y-112.395
X197.485Y-113.665
X198.12Y-121.285
X200.025Y-100.33
X200.025Y-102.87
X205.74Y-134.62
X208.915Y-73.025
X212.09Y-88.265
X212.09Y-97.79
X217.17Y-126.365
X218.44Y-112.395
X219.075Y-78.105
T2
X121.285Y-115.57
X122.535Y-115.57
X123.785Y-115.57
X125.035Y-115.57
X126.285Y-115.57
X127.535Y-115.57
X128.785Y-115.57
X130.035Y-115.57
X131.285Y-115.57
X132.535Y-115.57
T3
X207.01Y-119.38
X209.55Y-119.38
X210.82Y-83.82
X210.82Y-93.98
X210.82Y-104.14
X212.09Y-119.38
X213.36Y-83.82
X213.36Y-93.98
X213.36Y-104.14
X214.63Y-119.38
X215.9Y-83.82
X215.9Y-93.98
X215.9Y-104.14
X217.17Y-119.38
X218.44Y-83.82
X218.44Y-93.98
X218.44Y-104.14
X219.71Y-119.38
T4
X181.61Y-118.11
X181.61Y-121.285
X191.77Y-118.11
X191.77Y-121.285
X212.725Y-67.925
X212.725Y-78.085
X215.9Y-67.925
X215.9Y-78.085
X219.075Y-71.775
X219.075Y-74.275
T5
X160.02Y-72.39
X160.02Y-74.93
X160.02Y-77.47
X160.02Y-80.01
X160.02Y-82.55
X160.02Y-85.09
X160.02Y-87.63
X160.02Y-90.17
X160.02Y-92.71
X160.02Y-95.25
X160.02Y-97.79
X160.02Y-100.33
X160.02Y-102.87
X160.02Y-105.41
X160.02Y-107.95
X162.56Y-72.39
X162.56Y-74.93
X162.56Y-77.47
X162.56Y-80.01
X162.56Y-82.55
X162.56Y-85.09
X162.56Y-87.63
X162.56Y-90.17
X162.56Y-92.71
X162.56Y-95.25
X162.56Y-97.79
X162.56Y-100.33
X162.56Y-102.87
X162.56Y-105.41
X162.56Y-107.95
X177.8Y-80.01
X177.8Y-82.55
X177.8Y-85.09
X177.8Y-87.63
X177.8Y-90.17
X177.8Y-92.71
X177.8Y-95.25
X177.8Y-97.79
X177.8Y-100.33
X177.8Y-102.87
X177.8Y-105.41
X177.8Y-107.95
X180.34Y-80.01
X180.34Y-82.55
X180.34Y-85.09
X180.34Y-87.63
X180.34Y-90.17
X180.34Y-92.71
X180.34Y-95.25
X180.34Y-97.79
X180.34Y-100.33
X180.34Y-102.87
X180.34Y-105.41
X180.34Y-107.95
X185.42Y-72.39
X185.42Y-74.93
X185.42Y-77.47
X185.42Y-80.01
X185.42Y-82.55
X185.42Y-85.09
X185.42Y-87.63
X185.42Y-90.17
X185.42Y-92.71
X185.42Y-95.25
X185.42Y-97.79
X185.42Y-100.33
X185.42Y-102.87
X185.42Y-105.41
X185.42Y-107.95
X187.96Y-72.39
X187.96Y-74.93
X187.96Y-77.47
X187.96Y-80.01
X187.96Y-82.55
X187.96Y-85.09
X187.96Y-87.63
X187.96Y-90.17
X187.96Y-92.71
X187.96Y-95.25
X187.96Y-97.79
X187.96Y-100.33
X187.96Y-102.87
X187.96Y-105.41
X187.96Y-107.95
X203.2Y-80.01
X203.2Y-82.55
X203.2Y-85.09
X203.2Y-87.63
X203.2Y-90.17
X203.2Y-92.71
X203.2Y-95.25
X203.2Y-97.79
X203.2Y-100.33
X203.2Y-102.87
X203.2Y-105.41
X203.2Y-107.95
X205.74Y-80.01
X205.74Y-82.55
X205.74Y-85.09
X205.74Y-87.63
X205.74Y-90.17
X205.74Y-92.71
X205.74Y-95.25
X205.74Y-97.79
X205.74Y-100.33
X205.74Y-102.87
X205.74Y-105.41
X205.74Y-107.95
T6
X140.97Y-99.06
X140.97Y-101.6
X140.97Y-104.14
X140.97Y-106.68
X153.67Y-67.31
X153.67Y-69.85
X153.67Y-72.39
X153.67Y-74.93
X153.67Y-77.47
X153.67Y-80.01
X153.67Y-82.55
X153.67Y-96.52
X153.67Y-99.06
X153.67Y-101.6
X153.67Y-104.14
X153.67Y-106.68
X153.67Y-109.22
X160.02Y-69.85
X162.56Y-69.85
X185.42Y-69.85
X187.96Y-69.85
T7
X127.0Y-129.191
X132.08Y-129.191
X137.16Y-129.191
X142.24Y-129.191
X152.4Y-129.191
X157.48Y-129.191
X162.56Y-129.191
X167.64Y-129.191
X177.8Y-129.191
X182.88Y-129.191
X187.96Y-129.191
X193.04Y-129.191
X203.2Y-129.191
X208.28Y-129.191
T8
X132.38Y-69.55
X132.38Y-108.25
T9
X161.29Y-66.04
X179.07Y-66.04
X186.69Y-66.04
X204.47Y-66.04
T10
X91.44Y-60.96
X91.44Y-135.89
X218.44Y-60.96
X218.44Y-135.89
T0
M30
