%FSLAX45Y45*%
G04 Gerber Fmt 4.5, Leading zero omitted, Abs format (unit mm)*
G04 Created by KiCad (PCBNEW (6.0.2-0)) date 2022-04-17 22:51:51*
%MOMM*%
%LPD*%
G01*
G04 APERTURE LIST*
%TA.AperFunction,Profile*%
%ADD10C,0.050000*%
%TD*%
%ADD11C,0.200000*%
%ADD12C,0.254000*%
G04 APERTURE END LIST*
D10*
X8763000Y-13589000D02*
X8763000Y-6096000D01*
X8763000Y-13589000D02*
G75*
G03*
X9144000Y-13970000I381000J0D01*
G01*
X22225000Y-6096000D02*
X22225000Y-13589000D01*
X9144000Y-13970000D02*
X21844000Y-13970000D01*
X9144000Y-5715000D02*
X21844000Y-5715000D01*
X22225000Y-6096000D02*
G75*
G03*
X21844000Y-5715000I-381000J0D01*
G01*
X21844000Y-13970000D02*
G75*
G03*
X22225000Y-13589000I0J381000D01*
G01*
X9144000Y-5715000D02*
G75*
G03*
X8763000Y-6096000I0J-381000D01*
G01*
D11*
D12*
X13970000Y-6350000D02*
X14224000Y-6604000D01*
X14224000Y-6350000D02*
X13970000Y-6604000D01*
X13970000Y-8382000D02*
X14224000Y-8636000D01*
X14224000Y-8382000D02*
X13970000Y-8636000D01*
X13970000Y-9144000D02*
X14224000Y-9398000D01*
X14224000Y-9144000D02*
X13970000Y-9398000D01*
X13970000Y-11176000D02*
X14224000Y-11430000D01*
X14224000Y-11176000D02*
X13970000Y-11430000D01*
X15240000Y-6350000D02*
X15494000Y-6604000D01*
X15494000Y-6350000D02*
X15240000Y-6604000D01*
X15240000Y-8382000D02*
X15494000Y-8636000D01*
X15494000Y-8382000D02*
X15240000Y-8636000D01*
X15240000Y-9144000D02*
X15494000Y-9398000D01*
X15494000Y-9144000D02*
X15240000Y-9398000D01*
X15240000Y-11176000D02*
X15494000Y-11430000D01*
X15494000Y-11176000D02*
X15240000Y-11430000D01*
X16002000Y-11049000D02*
X16256000Y-11303000D01*
X16256000Y-11049000D02*
X16002000Y-11303000D01*
X17780000Y-11049000D02*
X18034000Y-11303000D01*
X18034000Y-11049000D02*
X17780000Y-11303000D01*
X18542000Y-11049000D02*
X18796000Y-11303000D01*
X18796000Y-11049000D02*
X18542000Y-11303000D01*
X20320000Y-11049000D02*
X20574000Y-11303000D01*
X20574000Y-11049000D02*
X20320000Y-11303000D01*
D11*
X9018119Y-14282976D02*
X9018119Y-14082976D01*
X9065738Y-14082976D01*
X9094310Y-14092500D01*
X9113357Y-14111548D01*
X9122881Y-14130595D01*
X9132405Y-14168690D01*
X9132405Y-14197262D01*
X9122881Y-14235357D01*
X9113357Y-14254405D01*
X9094310Y-14273452D01*
X9065738Y-14282976D01*
X9018119Y-14282976D01*
X9218119Y-14282976D02*
X9218119Y-14149643D01*
X9218119Y-14187738D02*
X9227643Y-14168690D01*
X9237167Y-14159167D01*
X9256214Y-14149643D01*
X9275262Y-14149643D01*
X9341929Y-14282976D02*
X9341929Y-14149643D01*
X9341929Y-14082976D02*
X9332405Y-14092500D01*
X9341929Y-14102024D01*
X9351452Y-14092500D01*
X9341929Y-14082976D01*
X9341929Y-14102024D01*
X9465738Y-14282976D02*
X9446690Y-14273452D01*
X9437167Y-14254405D01*
X9437167Y-14082976D01*
X9570500Y-14282976D02*
X9551452Y-14273452D01*
X9541929Y-14254405D01*
X9541929Y-14082976D01*
X9799071Y-14282976D02*
X9799071Y-14082976D01*
X9865738Y-14225833D01*
X9932405Y-14082976D01*
X9932405Y-14282976D01*
X10113357Y-14282976D02*
X10113357Y-14178214D01*
X10103833Y-14159167D01*
X10084786Y-14149643D01*
X10046690Y-14149643D01*
X10027643Y-14159167D01*
X10113357Y-14273452D02*
X10094310Y-14282976D01*
X10046690Y-14282976D01*
X10027643Y-14273452D01*
X10018119Y-14254405D01*
X10018119Y-14235357D01*
X10027643Y-14216309D01*
X10046690Y-14206786D01*
X10094310Y-14206786D01*
X10113357Y-14197262D01*
X10208595Y-14149643D02*
X10208595Y-14349643D01*
X10208595Y-14159167D02*
X10227643Y-14149643D01*
X10265738Y-14149643D01*
X10284786Y-14159167D01*
X10294310Y-14168690D01*
X10303833Y-14187738D01*
X10303833Y-14244881D01*
X10294310Y-14263928D01*
X10284786Y-14273452D01*
X10265738Y-14282976D01*
X10227643Y-14282976D01*
X10208595Y-14273452D01*
X10389548Y-14263928D02*
X10399071Y-14273452D01*
X10389548Y-14282976D01*
X10380024Y-14273452D01*
X10389548Y-14263928D01*
X10389548Y-14282976D01*
X10389548Y-14159167D02*
X10399071Y-14168690D01*
X10389548Y-14178214D01*
X10380024Y-14168690D01*
X10389548Y-14159167D01*
X10389548Y-14178214D01*
X8560500Y-14512500D02*
X8760500Y-14712500D01*
X8760500Y-14512500D02*
X8560500Y-14712500D01*
X9008595Y-14522024D02*
X9018119Y-14512500D01*
X9037167Y-14502976D01*
X9084786Y-14502976D01*
X9103833Y-14512500D01*
X9113357Y-14522024D01*
X9122881Y-14541071D01*
X9122881Y-14560119D01*
X9113357Y-14588690D01*
X8999071Y-14702976D01*
X9122881Y-14702976D01*
X9208595Y-14683928D02*
X9218119Y-14693452D01*
X9208595Y-14702976D01*
X9199071Y-14693452D01*
X9208595Y-14683928D01*
X9208595Y-14702976D01*
X9399071Y-14502976D02*
X9303833Y-14502976D01*
X9294310Y-14598214D01*
X9303833Y-14588690D01*
X9322881Y-14579167D01*
X9370500Y-14579167D01*
X9389548Y-14588690D01*
X9399071Y-14598214D01*
X9408595Y-14617262D01*
X9408595Y-14664881D01*
X9399071Y-14683928D01*
X9389548Y-14693452D01*
X9370500Y-14702976D01*
X9322881Y-14702976D01*
X9303833Y-14693452D01*
X9294310Y-14683928D01*
X9580024Y-14569643D02*
X9580024Y-14702976D01*
X9532405Y-14493452D02*
X9484786Y-14636309D01*
X9608595Y-14636309D01*
X9722881Y-14502976D02*
X9741929Y-14502976D01*
X9760976Y-14512500D01*
X9770500Y-14522024D01*
X9780024Y-14541071D01*
X9789548Y-14579167D01*
X9789548Y-14626786D01*
X9780024Y-14664881D01*
X9770500Y-14683928D01*
X9760976Y-14693452D01*
X9741929Y-14702976D01*
X9722881Y-14702976D01*
X9703833Y-14693452D01*
X9694310Y-14683928D01*
X9684786Y-14664881D01*
X9675262Y-14626786D01*
X9675262Y-14579167D01*
X9684786Y-14541071D01*
X9694310Y-14522024D01*
X9703833Y-14512500D01*
X9722881Y-14502976D01*
X9875262Y-14702976D02*
X9875262Y-14569643D01*
X9875262Y-14588690D02*
X9884786Y-14579167D01*
X9903833Y-14569643D01*
X9932405Y-14569643D01*
X9951452Y-14579167D01*
X9960976Y-14598214D01*
X9960976Y-14702976D01*
X9960976Y-14598214D02*
X9970500Y-14579167D01*
X9989548Y-14569643D01*
X10018119Y-14569643D01*
X10037167Y-14579167D01*
X10046690Y-14598214D01*
X10046690Y-14702976D01*
X10141929Y-14702976D02*
X10141929Y-14569643D01*
X10141929Y-14588690D02*
X10151452Y-14579167D01*
X10170500Y-14569643D01*
X10199071Y-14569643D01*
X10218119Y-14579167D01*
X10227643Y-14598214D01*
X10227643Y-14702976D01*
X10227643Y-14598214D02*
X10237167Y-14579167D01*
X10256214Y-14569643D01*
X10284786Y-14569643D01*
X10303833Y-14579167D01*
X10313357Y-14598214D01*
X10313357Y-14702976D01*
X10703833Y-14493452D02*
X10532405Y-14750595D01*
X10960976Y-14502976D02*
X10980024Y-14502976D01*
X10999071Y-14512500D01*
X11008595Y-14522024D01*
X11018119Y-14541071D01*
X11027643Y-14579167D01*
X11027643Y-14626786D01*
X11018119Y-14664881D01*
X11008595Y-14683928D01*
X10999071Y-14693452D01*
X10980024Y-14702976D01*
X10960976Y-14702976D01*
X10941929Y-14693452D01*
X10932405Y-14683928D01*
X10922881Y-14664881D01*
X10913357Y-14626786D01*
X10913357Y-14579167D01*
X10922881Y-14541071D01*
X10932405Y-14522024D01*
X10941929Y-14512500D01*
X10960976Y-14502976D01*
X11113357Y-14683928D02*
X11122881Y-14693452D01*
X11113357Y-14702976D01*
X11103833Y-14693452D01*
X11113357Y-14683928D01*
X11113357Y-14702976D01*
X11313357Y-14702976D02*
X11199071Y-14702976D01*
X11256214Y-14702976D02*
X11256214Y-14502976D01*
X11237167Y-14531548D01*
X11218119Y-14550595D01*
X11199071Y-14560119D01*
X11437167Y-14502976D02*
X11456214Y-14502976D01*
X11475262Y-14512500D01*
X11484786Y-14522024D01*
X11494309Y-14541071D01*
X11503833Y-14579167D01*
X11503833Y-14626786D01*
X11494309Y-14664881D01*
X11484786Y-14683928D01*
X11475262Y-14693452D01*
X11456214Y-14702976D01*
X11437167Y-14702976D01*
X11418119Y-14693452D01*
X11408595Y-14683928D01*
X11399071Y-14664881D01*
X11389548Y-14626786D01*
X11389548Y-14579167D01*
X11399071Y-14541071D01*
X11408595Y-14522024D01*
X11418119Y-14512500D01*
X11437167Y-14502976D01*
X11627643Y-14502976D02*
X11646690Y-14502976D01*
X11665738Y-14512500D01*
X11675262Y-14522024D01*
X11684786Y-14541071D01*
X11694309Y-14579167D01*
X11694309Y-14626786D01*
X11684786Y-14664881D01*
X11675262Y-14683928D01*
X11665738Y-14693452D01*
X11646690Y-14702976D01*
X11627643Y-14702976D01*
X11608595Y-14693452D01*
X11599071Y-14683928D01*
X11589548Y-14664881D01*
X11580024Y-14626786D01*
X11580024Y-14579167D01*
X11589548Y-14541071D01*
X11599071Y-14522024D01*
X11608595Y-14512500D01*
X11627643Y-14502976D01*
X11818119Y-14502976D02*
X11837167Y-14502976D01*
X11856214Y-14512500D01*
X11865738Y-14522024D01*
X11875262Y-14541071D01*
X11884786Y-14579167D01*
X11884786Y-14626786D01*
X11875262Y-14664881D01*
X11865738Y-14683928D01*
X11856214Y-14693452D01*
X11837167Y-14702976D01*
X11818119Y-14702976D01*
X11799071Y-14693452D01*
X11789548Y-14683928D01*
X11780024Y-14664881D01*
X11770500Y-14626786D01*
X11770500Y-14579167D01*
X11780024Y-14541071D01*
X11789548Y-14522024D01*
X11799071Y-14512500D01*
X11818119Y-14502976D01*
X11960976Y-14502976D02*
X11960976Y-14541071D01*
X12037167Y-14502976D02*
X12037167Y-14541071D01*
X12332405Y-14779167D02*
X12322881Y-14769643D01*
X12303833Y-14741071D01*
X12294309Y-14722024D01*
X12284786Y-14693452D01*
X12275262Y-14645833D01*
X12275262Y-14607738D01*
X12284786Y-14560119D01*
X12294309Y-14531548D01*
X12303833Y-14512500D01*
X12322881Y-14483928D01*
X12332405Y-14474405D01*
X12513357Y-14702976D02*
X12399071Y-14702976D01*
X12456214Y-14702976D02*
X12456214Y-14502976D01*
X12437167Y-14531548D01*
X12418119Y-14550595D01*
X12399071Y-14560119D01*
X12589548Y-14522024D02*
X12599071Y-14512500D01*
X12618119Y-14502976D01*
X12665738Y-14502976D01*
X12684786Y-14512500D01*
X12694309Y-14522024D01*
X12703833Y-14541071D01*
X12703833Y-14560119D01*
X12694309Y-14588690D01*
X12580024Y-14702976D01*
X12703833Y-14702976D01*
X12941928Y-14702976D02*
X12941928Y-14502976D01*
X13027643Y-14702976D02*
X13027643Y-14598214D01*
X13018119Y-14579167D01*
X12999071Y-14569643D01*
X12970500Y-14569643D01*
X12951452Y-14579167D01*
X12941928Y-14588690D01*
X13151452Y-14702976D02*
X13132405Y-14693452D01*
X13122881Y-14683928D01*
X13113357Y-14664881D01*
X13113357Y-14607738D01*
X13122881Y-14588690D01*
X13132405Y-14579167D01*
X13151452Y-14569643D01*
X13180024Y-14569643D01*
X13199071Y-14579167D01*
X13208595Y-14588690D01*
X13218119Y-14607738D01*
X13218119Y-14664881D01*
X13208595Y-14683928D01*
X13199071Y-14693452D01*
X13180024Y-14702976D01*
X13151452Y-14702976D01*
X13332405Y-14702976D02*
X13313357Y-14693452D01*
X13303833Y-14674405D01*
X13303833Y-14502976D01*
X13484786Y-14693452D02*
X13465738Y-14702976D01*
X13427643Y-14702976D01*
X13408595Y-14693452D01*
X13399071Y-14674405D01*
X13399071Y-14598214D01*
X13408595Y-14579167D01*
X13427643Y-14569643D01*
X13465738Y-14569643D01*
X13484786Y-14579167D01*
X13494309Y-14598214D01*
X13494309Y-14617262D01*
X13399071Y-14636309D01*
X13570500Y-14693452D02*
X13589548Y-14702976D01*
X13627643Y-14702976D01*
X13646690Y-14693452D01*
X13656214Y-14674405D01*
X13656214Y-14664881D01*
X13646690Y-14645833D01*
X13627643Y-14636309D01*
X13599071Y-14636309D01*
X13580024Y-14626786D01*
X13570500Y-14607738D01*
X13570500Y-14598214D01*
X13580024Y-14579167D01*
X13599071Y-14569643D01*
X13627643Y-14569643D01*
X13646690Y-14579167D01*
X13722881Y-14779167D02*
X13732405Y-14769643D01*
X13751452Y-14741071D01*
X13760976Y-14722024D01*
X13770500Y-14693452D01*
X13780024Y-14645833D01*
X13780024Y-14607738D01*
X13770500Y-14560119D01*
X13760976Y-14531548D01*
X13751452Y-14512500D01*
X13732405Y-14483928D01*
X13722881Y-14474405D01*
X14084786Y-14779167D02*
X14075262Y-14769643D01*
X14056214Y-14741071D01*
X14046690Y-14722024D01*
X14037167Y-14693452D01*
X14027643Y-14645833D01*
X14027643Y-14607738D01*
X14037167Y-14560119D01*
X14046690Y-14531548D01*
X14056214Y-14512500D01*
X14075262Y-14483928D01*
X14084786Y-14474405D01*
X14160976Y-14569643D02*
X14160976Y-14702976D01*
X14160976Y-14588690D02*
X14170500Y-14579167D01*
X14189548Y-14569643D01*
X14218119Y-14569643D01*
X14237167Y-14579167D01*
X14246690Y-14598214D01*
X14246690Y-14702976D01*
X14370500Y-14702976D02*
X14351452Y-14693452D01*
X14341928Y-14683928D01*
X14332405Y-14664881D01*
X14332405Y-14607738D01*
X14341928Y-14588690D01*
X14351452Y-14579167D01*
X14370500Y-14569643D01*
X14399071Y-14569643D01*
X14418119Y-14579167D01*
X14427643Y-14588690D01*
X14437167Y-14607738D01*
X14437167Y-14664881D01*
X14427643Y-14683928D01*
X14418119Y-14693452D01*
X14399071Y-14702976D01*
X14370500Y-14702976D01*
X14494309Y-14569643D02*
X14570500Y-14569643D01*
X14522881Y-14502976D02*
X14522881Y-14674405D01*
X14532405Y-14693452D01*
X14551452Y-14702976D01*
X14570500Y-14702976D01*
X14789548Y-14569643D02*
X14789548Y-14769643D01*
X14789548Y-14579167D02*
X14808595Y-14569643D01*
X14846690Y-14569643D01*
X14865738Y-14579167D01*
X14875262Y-14588690D01*
X14884786Y-14607738D01*
X14884786Y-14664881D01*
X14875262Y-14683928D01*
X14865738Y-14693452D01*
X14846690Y-14702976D01*
X14808595Y-14702976D01*
X14789548Y-14693452D01*
X14999071Y-14702976D02*
X14980024Y-14693452D01*
X14970500Y-14674405D01*
X14970500Y-14502976D01*
X15160976Y-14702976D02*
X15160976Y-14598214D01*
X15151452Y-14579167D01*
X15132405Y-14569643D01*
X15094309Y-14569643D01*
X15075262Y-14579167D01*
X15160976Y-14693452D02*
X15141928Y-14702976D01*
X15094309Y-14702976D01*
X15075262Y-14693452D01*
X15065738Y-14674405D01*
X15065738Y-14655357D01*
X15075262Y-14636309D01*
X15094309Y-14626786D01*
X15141928Y-14626786D01*
X15160976Y-14617262D01*
X15227643Y-14569643D02*
X15303833Y-14569643D01*
X15256214Y-14502976D02*
X15256214Y-14674405D01*
X15265738Y-14693452D01*
X15284786Y-14702976D01*
X15303833Y-14702976D01*
X15446690Y-14693452D02*
X15427643Y-14702976D01*
X15389548Y-14702976D01*
X15370500Y-14693452D01*
X15360976Y-14674405D01*
X15360976Y-14598214D01*
X15370500Y-14579167D01*
X15389548Y-14569643D01*
X15427643Y-14569643D01*
X15446690Y-14579167D01*
X15456214Y-14598214D01*
X15456214Y-14617262D01*
X15360976Y-14636309D01*
X15627643Y-14702976D02*
X15627643Y-14502976D01*
X15627643Y-14693452D02*
X15608595Y-14702976D01*
X15570500Y-14702976D01*
X15551452Y-14693452D01*
X15541928Y-14683928D01*
X15532405Y-14664881D01*
X15532405Y-14607738D01*
X15541928Y-14588690D01*
X15551452Y-14579167D01*
X15570500Y-14569643D01*
X15608595Y-14569643D01*
X15627643Y-14579167D01*
X15703833Y-14779167D02*
X15713357Y-14769643D01*
X15732405Y-14741071D01*
X15741928Y-14722024D01*
X15751452Y-14693452D01*
X15760976Y-14645833D01*
X15760976Y-14607738D01*
X15751452Y-14560119D01*
X15741928Y-14531548D01*
X15732405Y-14512500D01*
X15713357Y-14483928D01*
X15703833Y-14474405D01*
M02*
