G04 #@! TF.GenerationSoftware,KiCad,Pcbnew,(6.0.5-0)*
G04 #@! TF.CreationDate,2022-09-02T11:49:07-04:00*
G04 #@! TF.ProjectId,Cryologger AWS,4372796f-6c6f-4676-9765-72204157532e,rev?*
G04 #@! TF.SameCoordinates,Original*
G04 #@! TF.FileFunction,Soldermask,Top*
G04 #@! TF.FilePolarity,Negative*
%FSLAX46Y46*%
G04 Gerber Fmt 4.6, Leading zero omitted, Abs format (unit mm)*
G04 Created by KiCad (PCBNEW (6.0.5-0)) date 2022-09-02 11:49:07*
%MOMM*%
%LPD*%
G01*
G04 APERTURE LIST*
G04 Aperture macros list*
%AMRoundRect*
0 Rectangle with rounded corners*
0 $1 Rounding radius*
0 $2 $3 $4 $5 $6 $7 $8 $9 X,Y pos of 4 corners*
0 Add a 4 corners polygon primitive as box body*
4,1,4,$2,$3,$4,$5,$6,$7,$8,$9,$2,$3,0*
0 Add four circle primitives for the rounded corners*
1,1,$1+$1,$2,$3*
1,1,$1+$1,$4,$5*
1,1,$1+$1,$6,$7*
1,1,$1+$1,$8,$9*
0 Add four rect primitives between the rounded corners*
20,1,$1+$1,$2,$3,$4,$5,0*
20,1,$1+$1,$4,$5,$6,$7,0*
20,1,$1+$1,$6,$7,$8,$9,0*
20,1,$1+$1,$8,$9,$2,$3,0*%
G04 Aperture macros list end*
%ADD10C,2.600000*%
%ADD11R,2.600000X2.600000*%
%ADD12C,2.000000*%
%ADD13C,6.000000*%
%ADD14C,1.778000*%
%ADD15C,2.540000*%
%ADD16C,3.810000*%
%ADD17O,0.800000X1.300000*%
%ADD18RoundRect,0.200000X-0.200000X-0.450000X0.200000X-0.450000X0.200000X0.450000X-0.200000X0.450000X0*%
%ADD19C,1.600000*%
%ADD20O,1.600000X1.600000*%
%ADD21C,4.999990*%
%ADD22RoundRect,0.249999X-0.790001X-1.550001X0.790001X-1.550001X0.790001X1.550001X-0.790001X1.550001X0*%
%ADD23O,2.080000X3.600000*%
%ADD24C,1.524000*%
G04 APERTURE END LIST*
D10*
X195580000Y-131445000D03*
X190500000Y-131445000D03*
X185420000Y-131445000D03*
X180340000Y-131445000D03*
X175260000Y-131445000D03*
X170180000Y-131445000D03*
X165100000Y-131445000D03*
X160020000Y-131445000D03*
X154940000Y-131445000D03*
D11*
X149860000Y-131445000D03*
D12*
X99060000Y-123849000D03*
X104140000Y-123849000D03*
X109220000Y-123849000D03*
X114300000Y-123849000D03*
X119380000Y-123849000D03*
X124460000Y-123849000D03*
X129540000Y-123849000D03*
X134620000Y-123849000D03*
X139700000Y-123849000D03*
X144780000Y-123849000D03*
X149860000Y-123849000D03*
X154940000Y-123849000D03*
X160020000Y-123849000D03*
X165100000Y-123849000D03*
X170180000Y-123849000D03*
X175260000Y-123849000D03*
X180340000Y-123849000D03*
X185420000Y-123849000D03*
X190500000Y-123849000D03*
X195580000Y-123849000D03*
D10*
X144780000Y-131445000D03*
X139700000Y-131445000D03*
X134620000Y-131445000D03*
X129540000Y-131445000D03*
X124460000Y-131445000D03*
X119380000Y-131445000D03*
X114300000Y-131445000D03*
X109220000Y-131445000D03*
X104140000Y-131445000D03*
D11*
X99060000Y-131445000D03*
D13*
X91440000Y-60960000D03*
D14*
X176530000Y-107950000D03*
X179070000Y-107950000D03*
X176530000Y-105410000D03*
X179070000Y-105410000D03*
X179070000Y-102870000D03*
X176530000Y-102870000D03*
X176530000Y-100330000D03*
X179070000Y-100330000D03*
X179070000Y-97790000D03*
X176530000Y-97790000D03*
X179070000Y-95250000D03*
X176530000Y-95250000D03*
X176530000Y-92710000D03*
X179070000Y-92710000D03*
X176530000Y-90170000D03*
X179070000Y-90170000D03*
X179070000Y-87630000D03*
X176530000Y-87630000D03*
X179070000Y-85090000D03*
X176530000Y-85090000D03*
X179070000Y-82550000D03*
X176530000Y-82550000D03*
X179070000Y-80010000D03*
X176530000Y-80010000D03*
X158750000Y-107950000D03*
X161290000Y-107950000D03*
X158750000Y-105410000D03*
X161290000Y-105410000D03*
X158750000Y-102870000D03*
X161290000Y-102870000D03*
X161290000Y-100330000D03*
X158750000Y-100330000D03*
X161290000Y-97790000D03*
X158750000Y-97790000D03*
X161290000Y-95250000D03*
X158750000Y-95250000D03*
X158750000Y-92710000D03*
X161290000Y-92710000D03*
X161290000Y-90170000D03*
X158750000Y-90170000D03*
X161290000Y-87630000D03*
X158750000Y-87630000D03*
X161290000Y-85090000D03*
X158750000Y-85090000D03*
X158750000Y-82550000D03*
X161290000Y-82550000D03*
X161290000Y-80010000D03*
X158750000Y-80010000D03*
X161290000Y-77470000D03*
X158750000Y-77470000D03*
X158750000Y-74930000D03*
X161290000Y-74930000D03*
X161290000Y-72390000D03*
X158750000Y-72390000D03*
X161290000Y-69850000D03*
X158750000Y-69850000D03*
D15*
X160020000Y-111760000D03*
D16*
X177800000Y-66040000D03*
X160020000Y-66040000D03*
D15*
X177800000Y-111760000D03*
D13*
X217170000Y-132715000D03*
X217170000Y-60960000D03*
D14*
X201930000Y-107950000D03*
X204470000Y-107950000D03*
X201930000Y-105410000D03*
X204470000Y-105410000D03*
X201930000Y-102870000D03*
X204470000Y-102870000D03*
X204470000Y-100330000D03*
X201930000Y-100330000D03*
X201930000Y-97790000D03*
X204470000Y-97790000D03*
X204470000Y-95250000D03*
X201930000Y-95250000D03*
X201930000Y-92710000D03*
X204470000Y-92710000D03*
X201930000Y-90170000D03*
X204470000Y-90170000D03*
X204470000Y-87630000D03*
X201930000Y-87630000D03*
X204470000Y-85090000D03*
X201930000Y-85090000D03*
X201930000Y-82550000D03*
X204470000Y-82550000D03*
X201930000Y-80010000D03*
X204470000Y-80010000D03*
X184150000Y-107950000D03*
X186690000Y-107950000D03*
X184150000Y-105410000D03*
X186690000Y-105410000D03*
X184150000Y-102870000D03*
X186690000Y-102870000D03*
X184150000Y-100330000D03*
X186690000Y-100330000D03*
X186690000Y-97790000D03*
X184150000Y-97790000D03*
X186690000Y-95250000D03*
X184150000Y-95250000D03*
X184150000Y-92710000D03*
X186690000Y-92710000D03*
X184150000Y-90170000D03*
X186690000Y-90170000D03*
X184150000Y-87630000D03*
X186690000Y-87630000D03*
X186690000Y-85090000D03*
X184150000Y-85090000D03*
X186690000Y-82550000D03*
X184150000Y-82550000D03*
X186690000Y-80010000D03*
X184150000Y-80010000D03*
X186690000Y-77470000D03*
X184150000Y-77470000D03*
X186690000Y-74930000D03*
X184150000Y-74930000D03*
X184150000Y-72390000D03*
X186690000Y-72390000D03*
X184150000Y-69850000D03*
X186690000Y-69850000D03*
D16*
X203200000Y-66040000D03*
D15*
X203200000Y-111760000D03*
D16*
X185420000Y-66040000D03*
D15*
X185420000Y-111760000D03*
D17*
X131265000Y-115570000D03*
X130015000Y-115570000D03*
X128765000Y-115570000D03*
X127515000Y-115570000D03*
X126265000Y-115570000D03*
X125015000Y-115570000D03*
X123765000Y-115570000D03*
X122515000Y-115570000D03*
X121265000Y-115570000D03*
D18*
X120015000Y-115570000D03*
D13*
X91440000Y-132715000D03*
D19*
X214630000Y-78085000D03*
D20*
X214630000Y-67925000D03*
D19*
X217805000Y-71775000D03*
X217805000Y-74275000D03*
D21*
X131110000Y-108250000D03*
X131110000Y-69550000D03*
D19*
X211455000Y-67925000D03*
D20*
X211455000Y-78085000D03*
D22*
X203835000Y-125984000D03*
D23*
X208915000Y-125984000D03*
D14*
X139700000Y-99060000D03*
X139700000Y-101600000D03*
X139700000Y-104140000D03*
X139700000Y-106680000D03*
X152400000Y-96520000D03*
X152400000Y-99060000D03*
X152400000Y-101600000D03*
X152400000Y-104140000D03*
X152400000Y-106680000D03*
X152400000Y-109220000D03*
D16*
X152400000Y-92710000D03*
X139700000Y-92710000D03*
X152400000Y-113030000D03*
X139700000Y-113030000D03*
D14*
X152400000Y-67310000D03*
X152400000Y-69850000D03*
X152400000Y-72390000D03*
X152400000Y-74930000D03*
X152400000Y-77470000D03*
X152400000Y-80010000D03*
X152400000Y-82550000D03*
D16*
X139700000Y-64770000D03*
X139700000Y-85090000D03*
D15*
X152400000Y-64770000D03*
X152400000Y-85090000D03*
D24*
X209550000Y-83820000D03*
X212090000Y-83820000D03*
X214630000Y-83820000D03*
X217170000Y-83820000D03*
X209550000Y-93980000D03*
X212090000Y-93980000D03*
X214630000Y-93980000D03*
X217170000Y-93980000D03*
X214630000Y-116840000D03*
X214630000Y-111760000D03*
X214630000Y-114300000D03*
X214630000Y-109220000D03*
X214630000Y-106680000D03*
X214630000Y-104140000D03*
M02*
