%TF.GenerationSoftware,KiCad,Pcbnew,7.0.5-0*%
%TF.CreationDate,2023-06-10T23:19:52+02:00*%
%TF.ProjectId,Cryologger AWS,4372796f-6c6f-4676-9765-72204157532e,rev?*%
%TF.SameCoordinates,Original*%
%TF.FileFunction,Drillmap*%
%TF.FilePolarity,Positive*%
%FSLAX45Y45*%
G04 Gerber Fmt 4.5, Leading zero omitted, Abs format (unit mm)*
G04 Created by KiCad (PCBNEW 7.0.5-0) date 2023-06-10 23:19:52*
%MOMM*%
%LPD*%
G01*
G04 APERTURE LIST*
%ADD10C,0.050000*%
%ADD11C,0.200000*%
%ADD12C,0.254000*%
G04 APERTURE END LIST*
D10*
X21717000Y-13652500D02*
G75*
G03*
X22098000Y-13271500I0J381000D01*
G01*
X9144000Y-5715000D02*
G75*
G03*
X8763000Y-6096000I0J-381000D01*
G01*
X8763000Y-13271500D02*
X8763000Y-6096000D01*
X8763000Y-13271500D02*
G75*
G03*
X9144000Y-13652500I381000J0D01*
G01*
X22098000Y-6096000D02*
X22098000Y-13271500D01*
X22098000Y-6096000D02*
G75*
G03*
X21717000Y-5715000I-381000J0D01*
G01*
X9144000Y-13652500D02*
X21717000Y-13652500D01*
X9144000Y-5715000D02*
X21717000Y-5715000D01*
D11*
D12*
X13843000Y-6350000D02*
X14097000Y-6604000D01*
X14097000Y-6350000D02*
X13843000Y-6604000D01*
X13843000Y-8382000D02*
X14097000Y-8636000D01*
X14097000Y-8382000D02*
X13843000Y-8636000D01*
X13843000Y-9144000D02*
X14097000Y-9398000D01*
X14097000Y-9144000D02*
X13843000Y-9398000D01*
X13843000Y-11176000D02*
X14097000Y-11430000D01*
X14097000Y-11176000D02*
X13843000Y-11430000D01*
X15113000Y-6350000D02*
X15367000Y-6604000D01*
X15367000Y-6350000D02*
X15113000Y-6604000D01*
X15113000Y-8382000D02*
X15367000Y-8636000D01*
X15367000Y-8382000D02*
X15113000Y-8636000D01*
X15113000Y-9144000D02*
X15367000Y-9398000D01*
X15367000Y-9144000D02*
X15113000Y-9398000D01*
X15113000Y-11176000D02*
X15367000Y-11430000D01*
X15367000Y-11176000D02*
X15113000Y-11430000D01*
X15875000Y-11049000D02*
X16129000Y-11303000D01*
X16129000Y-11049000D02*
X15875000Y-11303000D01*
X17653000Y-11049000D02*
X17907000Y-11303000D01*
X17907000Y-11049000D02*
X17653000Y-11303000D01*
X18415000Y-11049000D02*
X18669000Y-11303000D01*
X18669000Y-11049000D02*
X18415000Y-11303000D01*
X20193000Y-11049000D02*
X20447000Y-11303000D01*
X20447000Y-11049000D02*
X20193000Y-11303000D01*
D11*
X9021277Y-13966484D02*
X9021277Y-13766484D01*
X9021277Y-13766484D02*
X9068896Y-13766484D01*
X9068896Y-13766484D02*
X9097467Y-13776008D01*
X9097467Y-13776008D02*
X9116515Y-13795055D01*
X9116515Y-13795055D02*
X9126039Y-13814103D01*
X9126039Y-13814103D02*
X9135563Y-13852198D01*
X9135563Y-13852198D02*
X9135563Y-13880769D01*
X9135563Y-13880769D02*
X9126039Y-13918865D01*
X9126039Y-13918865D02*
X9116515Y-13937912D01*
X9116515Y-13937912D02*
X9097467Y-13956960D01*
X9097467Y-13956960D02*
X9068896Y-13966484D01*
X9068896Y-13966484D02*
X9021277Y-13966484D01*
X9221277Y-13966484D02*
X9221277Y-13833150D01*
X9221277Y-13871246D02*
X9230801Y-13852198D01*
X9230801Y-13852198D02*
X9240324Y-13842674D01*
X9240324Y-13842674D02*
X9259372Y-13833150D01*
X9259372Y-13833150D02*
X9278420Y-13833150D01*
X9345086Y-13966484D02*
X9345086Y-13833150D01*
X9345086Y-13766484D02*
X9335563Y-13776008D01*
X9335563Y-13776008D02*
X9345086Y-13785531D01*
X9345086Y-13785531D02*
X9354610Y-13776008D01*
X9354610Y-13776008D02*
X9345086Y-13766484D01*
X9345086Y-13766484D02*
X9345086Y-13785531D01*
X9468896Y-13966484D02*
X9449848Y-13956960D01*
X9449848Y-13956960D02*
X9440324Y-13937912D01*
X9440324Y-13937912D02*
X9440324Y-13766484D01*
X9573658Y-13966484D02*
X9554610Y-13956960D01*
X9554610Y-13956960D02*
X9545086Y-13937912D01*
X9545086Y-13937912D02*
X9545086Y-13766484D01*
X9802229Y-13966484D02*
X9802229Y-13766484D01*
X9802229Y-13766484D02*
X9868896Y-13909341D01*
X9868896Y-13909341D02*
X9935563Y-13766484D01*
X9935563Y-13766484D02*
X9935563Y-13966484D01*
X10116515Y-13966484D02*
X10116515Y-13861722D01*
X10116515Y-13861722D02*
X10106991Y-13842674D01*
X10106991Y-13842674D02*
X10087944Y-13833150D01*
X10087944Y-13833150D02*
X10049848Y-13833150D01*
X10049848Y-13833150D02*
X10030801Y-13842674D01*
X10116515Y-13956960D02*
X10097467Y-13966484D01*
X10097467Y-13966484D02*
X10049848Y-13966484D01*
X10049848Y-13966484D02*
X10030801Y-13956960D01*
X10030801Y-13956960D02*
X10021277Y-13937912D01*
X10021277Y-13937912D02*
X10021277Y-13918865D01*
X10021277Y-13918865D02*
X10030801Y-13899817D01*
X10030801Y-13899817D02*
X10049848Y-13890293D01*
X10049848Y-13890293D02*
X10097467Y-13890293D01*
X10097467Y-13890293D02*
X10116515Y-13880769D01*
X10211753Y-13833150D02*
X10211753Y-14033150D01*
X10211753Y-13842674D02*
X10230801Y-13833150D01*
X10230801Y-13833150D02*
X10268896Y-13833150D01*
X10268896Y-13833150D02*
X10287944Y-13842674D01*
X10287944Y-13842674D02*
X10297467Y-13852198D01*
X10297467Y-13852198D02*
X10306991Y-13871246D01*
X10306991Y-13871246D02*
X10306991Y-13928388D01*
X10306991Y-13928388D02*
X10297467Y-13947436D01*
X10297467Y-13947436D02*
X10287944Y-13956960D01*
X10287944Y-13956960D02*
X10268896Y-13966484D01*
X10268896Y-13966484D02*
X10230801Y-13966484D01*
X10230801Y-13966484D02*
X10211753Y-13956960D01*
X10392705Y-13947436D02*
X10402229Y-13956960D01*
X10402229Y-13956960D02*
X10392705Y-13966484D01*
X10392705Y-13966484D02*
X10383182Y-13956960D01*
X10383182Y-13956960D02*
X10392705Y-13947436D01*
X10392705Y-13947436D02*
X10392705Y-13966484D01*
X10392705Y-13842674D02*
X10402229Y-13852198D01*
X10402229Y-13852198D02*
X10392705Y-13861722D01*
X10392705Y-13861722D02*
X10383182Y-13852198D01*
X10383182Y-13852198D02*
X10392705Y-13842674D01*
X10392705Y-13842674D02*
X10392705Y-13861722D01*
X8560500Y-14195000D02*
X8760500Y-14395000D01*
X8760500Y-14195000D02*
X8560500Y-14395000D01*
X9011753Y-14205531D02*
X9021277Y-14196008D01*
X9021277Y-14196008D02*
X9040324Y-14186484D01*
X9040324Y-14186484D02*
X9087944Y-14186484D01*
X9087944Y-14186484D02*
X9106991Y-14196008D01*
X9106991Y-14196008D02*
X9116515Y-14205531D01*
X9116515Y-14205531D02*
X9126039Y-14224579D01*
X9126039Y-14224579D02*
X9126039Y-14243627D01*
X9126039Y-14243627D02*
X9116515Y-14272198D01*
X9116515Y-14272198D02*
X9002229Y-14386484D01*
X9002229Y-14386484D02*
X9126039Y-14386484D01*
X9211753Y-14367436D02*
X9221277Y-14376960D01*
X9221277Y-14376960D02*
X9211753Y-14386484D01*
X9211753Y-14386484D02*
X9202229Y-14376960D01*
X9202229Y-14376960D02*
X9211753Y-14367436D01*
X9211753Y-14367436D02*
X9211753Y-14386484D01*
X9402229Y-14186484D02*
X9306991Y-14186484D01*
X9306991Y-14186484D02*
X9297467Y-14281722D01*
X9297467Y-14281722D02*
X9306991Y-14272198D01*
X9306991Y-14272198D02*
X9326039Y-14262674D01*
X9326039Y-14262674D02*
X9373658Y-14262674D01*
X9373658Y-14262674D02*
X9392705Y-14272198D01*
X9392705Y-14272198D02*
X9402229Y-14281722D01*
X9402229Y-14281722D02*
X9411753Y-14300769D01*
X9411753Y-14300769D02*
X9411753Y-14348388D01*
X9411753Y-14348388D02*
X9402229Y-14367436D01*
X9402229Y-14367436D02*
X9392705Y-14376960D01*
X9392705Y-14376960D02*
X9373658Y-14386484D01*
X9373658Y-14386484D02*
X9326039Y-14386484D01*
X9326039Y-14386484D02*
X9306991Y-14376960D01*
X9306991Y-14376960D02*
X9297467Y-14367436D01*
X9583182Y-14253150D02*
X9583182Y-14386484D01*
X9535563Y-14176960D02*
X9487944Y-14319817D01*
X9487944Y-14319817D02*
X9611753Y-14319817D01*
X9726039Y-14186484D02*
X9745086Y-14186484D01*
X9745086Y-14186484D02*
X9764134Y-14196008D01*
X9764134Y-14196008D02*
X9773658Y-14205531D01*
X9773658Y-14205531D02*
X9783182Y-14224579D01*
X9783182Y-14224579D02*
X9792705Y-14262674D01*
X9792705Y-14262674D02*
X9792705Y-14310293D01*
X9792705Y-14310293D02*
X9783182Y-14348388D01*
X9783182Y-14348388D02*
X9773658Y-14367436D01*
X9773658Y-14367436D02*
X9764134Y-14376960D01*
X9764134Y-14376960D02*
X9745086Y-14386484D01*
X9745086Y-14386484D02*
X9726039Y-14386484D01*
X9726039Y-14386484D02*
X9706991Y-14376960D01*
X9706991Y-14376960D02*
X9697467Y-14367436D01*
X9697467Y-14367436D02*
X9687944Y-14348388D01*
X9687944Y-14348388D02*
X9678420Y-14310293D01*
X9678420Y-14310293D02*
X9678420Y-14262674D01*
X9678420Y-14262674D02*
X9687944Y-14224579D01*
X9687944Y-14224579D02*
X9697467Y-14205531D01*
X9697467Y-14205531D02*
X9706991Y-14196008D01*
X9706991Y-14196008D02*
X9726039Y-14186484D01*
X9878420Y-14386484D02*
X9878420Y-14253150D01*
X9878420Y-14272198D02*
X9887944Y-14262674D01*
X9887944Y-14262674D02*
X9906991Y-14253150D01*
X9906991Y-14253150D02*
X9935563Y-14253150D01*
X9935563Y-14253150D02*
X9954610Y-14262674D01*
X9954610Y-14262674D02*
X9964134Y-14281722D01*
X9964134Y-14281722D02*
X9964134Y-14386484D01*
X9964134Y-14281722D02*
X9973658Y-14262674D01*
X9973658Y-14262674D02*
X9992705Y-14253150D01*
X9992705Y-14253150D02*
X10021277Y-14253150D01*
X10021277Y-14253150D02*
X10040325Y-14262674D01*
X10040325Y-14262674D02*
X10049848Y-14281722D01*
X10049848Y-14281722D02*
X10049848Y-14386484D01*
X10145086Y-14386484D02*
X10145086Y-14253150D01*
X10145086Y-14272198D02*
X10154610Y-14262674D01*
X10154610Y-14262674D02*
X10173658Y-14253150D01*
X10173658Y-14253150D02*
X10202229Y-14253150D01*
X10202229Y-14253150D02*
X10221277Y-14262674D01*
X10221277Y-14262674D02*
X10230801Y-14281722D01*
X10230801Y-14281722D02*
X10230801Y-14386484D01*
X10230801Y-14281722D02*
X10240325Y-14262674D01*
X10240325Y-14262674D02*
X10259372Y-14253150D01*
X10259372Y-14253150D02*
X10287944Y-14253150D01*
X10287944Y-14253150D02*
X10306991Y-14262674D01*
X10306991Y-14262674D02*
X10316515Y-14281722D01*
X10316515Y-14281722D02*
X10316515Y-14386484D01*
X10706991Y-14176960D02*
X10535563Y-14434103D01*
X10964134Y-14186484D02*
X10983182Y-14186484D01*
X10983182Y-14186484D02*
X11002229Y-14196008D01*
X11002229Y-14196008D02*
X11011753Y-14205531D01*
X11011753Y-14205531D02*
X11021277Y-14224579D01*
X11021277Y-14224579D02*
X11030801Y-14262674D01*
X11030801Y-14262674D02*
X11030801Y-14310293D01*
X11030801Y-14310293D02*
X11021277Y-14348388D01*
X11021277Y-14348388D02*
X11011753Y-14367436D01*
X11011753Y-14367436D02*
X11002229Y-14376960D01*
X11002229Y-14376960D02*
X10983182Y-14386484D01*
X10983182Y-14386484D02*
X10964134Y-14386484D01*
X10964134Y-14386484D02*
X10945087Y-14376960D01*
X10945087Y-14376960D02*
X10935563Y-14367436D01*
X10935563Y-14367436D02*
X10926039Y-14348388D01*
X10926039Y-14348388D02*
X10916515Y-14310293D01*
X10916515Y-14310293D02*
X10916515Y-14262674D01*
X10916515Y-14262674D02*
X10926039Y-14224579D01*
X10926039Y-14224579D02*
X10935563Y-14205531D01*
X10935563Y-14205531D02*
X10945087Y-14196008D01*
X10945087Y-14196008D02*
X10964134Y-14186484D01*
X11116515Y-14367436D02*
X11126039Y-14376960D01*
X11126039Y-14376960D02*
X11116515Y-14386484D01*
X11116515Y-14386484D02*
X11106991Y-14376960D01*
X11106991Y-14376960D02*
X11116515Y-14367436D01*
X11116515Y-14367436D02*
X11116515Y-14386484D01*
X11316515Y-14386484D02*
X11202229Y-14386484D01*
X11259372Y-14386484D02*
X11259372Y-14186484D01*
X11259372Y-14186484D02*
X11240325Y-14215055D01*
X11240325Y-14215055D02*
X11221277Y-14234103D01*
X11221277Y-14234103D02*
X11202229Y-14243627D01*
X11440325Y-14186484D02*
X11459372Y-14186484D01*
X11459372Y-14186484D02*
X11478420Y-14196008D01*
X11478420Y-14196008D02*
X11487944Y-14205531D01*
X11487944Y-14205531D02*
X11497467Y-14224579D01*
X11497467Y-14224579D02*
X11506991Y-14262674D01*
X11506991Y-14262674D02*
X11506991Y-14310293D01*
X11506991Y-14310293D02*
X11497467Y-14348388D01*
X11497467Y-14348388D02*
X11487944Y-14367436D01*
X11487944Y-14367436D02*
X11478420Y-14376960D01*
X11478420Y-14376960D02*
X11459372Y-14386484D01*
X11459372Y-14386484D02*
X11440325Y-14386484D01*
X11440325Y-14386484D02*
X11421277Y-14376960D01*
X11421277Y-14376960D02*
X11411753Y-14367436D01*
X11411753Y-14367436D02*
X11402229Y-14348388D01*
X11402229Y-14348388D02*
X11392706Y-14310293D01*
X11392706Y-14310293D02*
X11392706Y-14262674D01*
X11392706Y-14262674D02*
X11402229Y-14224579D01*
X11402229Y-14224579D02*
X11411753Y-14205531D01*
X11411753Y-14205531D02*
X11421277Y-14196008D01*
X11421277Y-14196008D02*
X11440325Y-14186484D01*
X11630801Y-14186484D02*
X11649848Y-14186484D01*
X11649848Y-14186484D02*
X11668896Y-14196008D01*
X11668896Y-14196008D02*
X11678420Y-14205531D01*
X11678420Y-14205531D02*
X11687944Y-14224579D01*
X11687944Y-14224579D02*
X11697467Y-14262674D01*
X11697467Y-14262674D02*
X11697467Y-14310293D01*
X11697467Y-14310293D02*
X11687944Y-14348388D01*
X11687944Y-14348388D02*
X11678420Y-14367436D01*
X11678420Y-14367436D02*
X11668896Y-14376960D01*
X11668896Y-14376960D02*
X11649848Y-14386484D01*
X11649848Y-14386484D02*
X11630801Y-14386484D01*
X11630801Y-14386484D02*
X11611753Y-14376960D01*
X11611753Y-14376960D02*
X11602229Y-14367436D01*
X11602229Y-14367436D02*
X11592706Y-14348388D01*
X11592706Y-14348388D02*
X11583182Y-14310293D01*
X11583182Y-14310293D02*
X11583182Y-14262674D01*
X11583182Y-14262674D02*
X11592706Y-14224579D01*
X11592706Y-14224579D02*
X11602229Y-14205531D01*
X11602229Y-14205531D02*
X11611753Y-14196008D01*
X11611753Y-14196008D02*
X11630801Y-14186484D01*
X11821277Y-14186484D02*
X11840325Y-14186484D01*
X11840325Y-14186484D02*
X11859372Y-14196008D01*
X11859372Y-14196008D02*
X11868896Y-14205531D01*
X11868896Y-14205531D02*
X11878420Y-14224579D01*
X11878420Y-14224579D02*
X11887944Y-14262674D01*
X11887944Y-14262674D02*
X11887944Y-14310293D01*
X11887944Y-14310293D02*
X11878420Y-14348388D01*
X11878420Y-14348388D02*
X11868896Y-14367436D01*
X11868896Y-14367436D02*
X11859372Y-14376960D01*
X11859372Y-14376960D02*
X11840325Y-14386484D01*
X11840325Y-14386484D02*
X11821277Y-14386484D01*
X11821277Y-14386484D02*
X11802229Y-14376960D01*
X11802229Y-14376960D02*
X11792706Y-14367436D01*
X11792706Y-14367436D02*
X11783182Y-14348388D01*
X11783182Y-14348388D02*
X11773658Y-14310293D01*
X11773658Y-14310293D02*
X11773658Y-14262674D01*
X11773658Y-14262674D02*
X11783182Y-14224579D01*
X11783182Y-14224579D02*
X11792706Y-14205531D01*
X11792706Y-14205531D02*
X11802229Y-14196008D01*
X11802229Y-14196008D02*
X11821277Y-14186484D01*
X11964134Y-14186484D02*
X11964134Y-14224579D01*
X12040325Y-14186484D02*
X12040325Y-14224579D01*
X12335563Y-14462674D02*
X12326039Y-14453150D01*
X12326039Y-14453150D02*
X12306991Y-14424579D01*
X12306991Y-14424579D02*
X12297468Y-14405531D01*
X12297468Y-14405531D02*
X12287944Y-14376960D01*
X12287944Y-14376960D02*
X12278420Y-14329341D01*
X12278420Y-14329341D02*
X12278420Y-14291246D01*
X12278420Y-14291246D02*
X12287944Y-14243627D01*
X12287944Y-14243627D02*
X12297468Y-14215055D01*
X12297468Y-14215055D02*
X12306991Y-14196008D01*
X12306991Y-14196008D02*
X12326039Y-14167436D01*
X12326039Y-14167436D02*
X12335563Y-14157912D01*
X12516515Y-14386484D02*
X12402229Y-14386484D01*
X12459372Y-14386484D02*
X12459372Y-14186484D01*
X12459372Y-14186484D02*
X12440325Y-14215055D01*
X12440325Y-14215055D02*
X12421277Y-14234103D01*
X12421277Y-14234103D02*
X12402229Y-14243627D01*
X12592706Y-14205531D02*
X12602229Y-14196008D01*
X12602229Y-14196008D02*
X12621277Y-14186484D01*
X12621277Y-14186484D02*
X12668896Y-14186484D01*
X12668896Y-14186484D02*
X12687944Y-14196008D01*
X12687944Y-14196008D02*
X12697468Y-14205531D01*
X12697468Y-14205531D02*
X12706991Y-14224579D01*
X12706991Y-14224579D02*
X12706991Y-14243627D01*
X12706991Y-14243627D02*
X12697468Y-14272198D01*
X12697468Y-14272198D02*
X12583182Y-14386484D01*
X12583182Y-14386484D02*
X12706991Y-14386484D01*
X12945087Y-14386484D02*
X12945087Y-14186484D01*
X13030801Y-14386484D02*
X13030801Y-14281722D01*
X13030801Y-14281722D02*
X13021277Y-14262674D01*
X13021277Y-14262674D02*
X13002230Y-14253150D01*
X13002230Y-14253150D02*
X12973658Y-14253150D01*
X12973658Y-14253150D02*
X12954610Y-14262674D01*
X12954610Y-14262674D02*
X12945087Y-14272198D01*
X13154610Y-14386484D02*
X13135563Y-14376960D01*
X13135563Y-14376960D02*
X13126039Y-14367436D01*
X13126039Y-14367436D02*
X13116515Y-14348388D01*
X13116515Y-14348388D02*
X13116515Y-14291246D01*
X13116515Y-14291246D02*
X13126039Y-14272198D01*
X13126039Y-14272198D02*
X13135563Y-14262674D01*
X13135563Y-14262674D02*
X13154610Y-14253150D01*
X13154610Y-14253150D02*
X13183182Y-14253150D01*
X13183182Y-14253150D02*
X13202230Y-14262674D01*
X13202230Y-14262674D02*
X13211753Y-14272198D01*
X13211753Y-14272198D02*
X13221277Y-14291246D01*
X13221277Y-14291246D02*
X13221277Y-14348388D01*
X13221277Y-14348388D02*
X13211753Y-14367436D01*
X13211753Y-14367436D02*
X13202230Y-14376960D01*
X13202230Y-14376960D02*
X13183182Y-14386484D01*
X13183182Y-14386484D02*
X13154610Y-14386484D01*
X13335563Y-14386484D02*
X13316515Y-14376960D01*
X13316515Y-14376960D02*
X13306991Y-14357912D01*
X13306991Y-14357912D02*
X13306991Y-14186484D01*
X13487944Y-14376960D02*
X13468896Y-14386484D01*
X13468896Y-14386484D02*
X13430801Y-14386484D01*
X13430801Y-14386484D02*
X13411753Y-14376960D01*
X13411753Y-14376960D02*
X13402230Y-14357912D01*
X13402230Y-14357912D02*
X13402230Y-14281722D01*
X13402230Y-14281722D02*
X13411753Y-14262674D01*
X13411753Y-14262674D02*
X13430801Y-14253150D01*
X13430801Y-14253150D02*
X13468896Y-14253150D01*
X13468896Y-14253150D02*
X13487944Y-14262674D01*
X13487944Y-14262674D02*
X13497468Y-14281722D01*
X13497468Y-14281722D02*
X13497468Y-14300769D01*
X13497468Y-14300769D02*
X13402230Y-14319817D01*
X13573658Y-14376960D02*
X13592706Y-14386484D01*
X13592706Y-14386484D02*
X13630801Y-14386484D01*
X13630801Y-14386484D02*
X13649849Y-14376960D01*
X13649849Y-14376960D02*
X13659372Y-14357912D01*
X13659372Y-14357912D02*
X13659372Y-14348388D01*
X13659372Y-14348388D02*
X13649849Y-14329341D01*
X13649849Y-14329341D02*
X13630801Y-14319817D01*
X13630801Y-14319817D02*
X13602230Y-14319817D01*
X13602230Y-14319817D02*
X13583182Y-14310293D01*
X13583182Y-14310293D02*
X13573658Y-14291246D01*
X13573658Y-14291246D02*
X13573658Y-14281722D01*
X13573658Y-14281722D02*
X13583182Y-14262674D01*
X13583182Y-14262674D02*
X13602230Y-14253150D01*
X13602230Y-14253150D02*
X13630801Y-14253150D01*
X13630801Y-14253150D02*
X13649849Y-14262674D01*
X13726039Y-14462674D02*
X13735563Y-14453150D01*
X13735563Y-14453150D02*
X13754611Y-14424579D01*
X13754611Y-14424579D02*
X13764134Y-14405531D01*
X13764134Y-14405531D02*
X13773658Y-14376960D01*
X13773658Y-14376960D02*
X13783182Y-14329341D01*
X13783182Y-14329341D02*
X13783182Y-14291246D01*
X13783182Y-14291246D02*
X13773658Y-14243627D01*
X13773658Y-14243627D02*
X13764134Y-14215055D01*
X13764134Y-14215055D02*
X13754611Y-14196008D01*
X13754611Y-14196008D02*
X13735563Y-14167436D01*
X13735563Y-14167436D02*
X13726039Y-14157912D01*
X14087944Y-14462674D02*
X14078420Y-14453150D01*
X14078420Y-14453150D02*
X14059372Y-14424579D01*
X14059372Y-14424579D02*
X14049849Y-14405531D01*
X14049849Y-14405531D02*
X14040325Y-14376960D01*
X14040325Y-14376960D02*
X14030801Y-14329341D01*
X14030801Y-14329341D02*
X14030801Y-14291246D01*
X14030801Y-14291246D02*
X14040325Y-14243627D01*
X14040325Y-14243627D02*
X14049849Y-14215055D01*
X14049849Y-14215055D02*
X14059372Y-14196008D01*
X14059372Y-14196008D02*
X14078420Y-14167436D01*
X14078420Y-14167436D02*
X14087944Y-14157912D01*
X14164134Y-14253150D02*
X14164134Y-14386484D01*
X14164134Y-14272198D02*
X14173658Y-14262674D01*
X14173658Y-14262674D02*
X14192706Y-14253150D01*
X14192706Y-14253150D02*
X14221277Y-14253150D01*
X14221277Y-14253150D02*
X14240325Y-14262674D01*
X14240325Y-14262674D02*
X14249849Y-14281722D01*
X14249849Y-14281722D02*
X14249849Y-14386484D01*
X14373658Y-14386484D02*
X14354611Y-14376960D01*
X14354611Y-14376960D02*
X14345087Y-14367436D01*
X14345087Y-14367436D02*
X14335563Y-14348388D01*
X14335563Y-14348388D02*
X14335563Y-14291246D01*
X14335563Y-14291246D02*
X14345087Y-14272198D01*
X14345087Y-14272198D02*
X14354611Y-14262674D01*
X14354611Y-14262674D02*
X14373658Y-14253150D01*
X14373658Y-14253150D02*
X14402230Y-14253150D01*
X14402230Y-14253150D02*
X14421277Y-14262674D01*
X14421277Y-14262674D02*
X14430801Y-14272198D01*
X14430801Y-14272198D02*
X14440325Y-14291246D01*
X14440325Y-14291246D02*
X14440325Y-14348388D01*
X14440325Y-14348388D02*
X14430801Y-14367436D01*
X14430801Y-14367436D02*
X14421277Y-14376960D01*
X14421277Y-14376960D02*
X14402230Y-14386484D01*
X14402230Y-14386484D02*
X14373658Y-14386484D01*
X14497468Y-14253150D02*
X14573658Y-14253150D01*
X14526039Y-14186484D02*
X14526039Y-14357912D01*
X14526039Y-14357912D02*
X14535563Y-14376960D01*
X14535563Y-14376960D02*
X14554611Y-14386484D01*
X14554611Y-14386484D02*
X14573658Y-14386484D01*
X14792706Y-14253150D02*
X14792706Y-14453150D01*
X14792706Y-14262674D02*
X14811753Y-14253150D01*
X14811753Y-14253150D02*
X14849849Y-14253150D01*
X14849849Y-14253150D02*
X14868896Y-14262674D01*
X14868896Y-14262674D02*
X14878420Y-14272198D01*
X14878420Y-14272198D02*
X14887944Y-14291246D01*
X14887944Y-14291246D02*
X14887944Y-14348388D01*
X14887944Y-14348388D02*
X14878420Y-14367436D01*
X14878420Y-14367436D02*
X14868896Y-14376960D01*
X14868896Y-14376960D02*
X14849849Y-14386484D01*
X14849849Y-14386484D02*
X14811753Y-14386484D01*
X14811753Y-14386484D02*
X14792706Y-14376960D01*
X15002230Y-14386484D02*
X14983182Y-14376960D01*
X14983182Y-14376960D02*
X14973658Y-14357912D01*
X14973658Y-14357912D02*
X14973658Y-14186484D01*
X15164134Y-14386484D02*
X15164134Y-14281722D01*
X15164134Y-14281722D02*
X15154611Y-14262674D01*
X15154611Y-14262674D02*
X15135563Y-14253150D01*
X15135563Y-14253150D02*
X15097468Y-14253150D01*
X15097468Y-14253150D02*
X15078420Y-14262674D01*
X15164134Y-14376960D02*
X15145087Y-14386484D01*
X15145087Y-14386484D02*
X15097468Y-14386484D01*
X15097468Y-14386484D02*
X15078420Y-14376960D01*
X15078420Y-14376960D02*
X15068896Y-14357912D01*
X15068896Y-14357912D02*
X15068896Y-14338865D01*
X15068896Y-14338865D02*
X15078420Y-14319817D01*
X15078420Y-14319817D02*
X15097468Y-14310293D01*
X15097468Y-14310293D02*
X15145087Y-14310293D01*
X15145087Y-14310293D02*
X15164134Y-14300769D01*
X15230801Y-14253150D02*
X15306992Y-14253150D01*
X15259373Y-14186484D02*
X15259373Y-14357912D01*
X15259373Y-14357912D02*
X15268896Y-14376960D01*
X15268896Y-14376960D02*
X15287944Y-14386484D01*
X15287944Y-14386484D02*
X15306992Y-14386484D01*
X15449849Y-14376960D02*
X15430801Y-14386484D01*
X15430801Y-14386484D02*
X15392706Y-14386484D01*
X15392706Y-14386484D02*
X15373658Y-14376960D01*
X15373658Y-14376960D02*
X15364134Y-14357912D01*
X15364134Y-14357912D02*
X15364134Y-14281722D01*
X15364134Y-14281722D02*
X15373658Y-14262674D01*
X15373658Y-14262674D02*
X15392706Y-14253150D01*
X15392706Y-14253150D02*
X15430801Y-14253150D01*
X15430801Y-14253150D02*
X15449849Y-14262674D01*
X15449849Y-14262674D02*
X15459373Y-14281722D01*
X15459373Y-14281722D02*
X15459373Y-14300769D01*
X15459373Y-14300769D02*
X15364134Y-14319817D01*
X15630801Y-14386484D02*
X15630801Y-14186484D01*
X15630801Y-14376960D02*
X15611754Y-14386484D01*
X15611754Y-14386484D02*
X15573658Y-14386484D01*
X15573658Y-14386484D02*
X15554611Y-14376960D01*
X15554611Y-14376960D02*
X15545087Y-14367436D01*
X15545087Y-14367436D02*
X15535563Y-14348388D01*
X15535563Y-14348388D02*
X15535563Y-14291246D01*
X15535563Y-14291246D02*
X15545087Y-14272198D01*
X15545087Y-14272198D02*
X15554611Y-14262674D01*
X15554611Y-14262674D02*
X15573658Y-14253150D01*
X15573658Y-14253150D02*
X15611754Y-14253150D01*
X15611754Y-14253150D02*
X15630801Y-14262674D01*
X15706992Y-14462674D02*
X15716515Y-14453150D01*
X15716515Y-14453150D02*
X15735563Y-14424579D01*
X15735563Y-14424579D02*
X15745087Y-14405531D01*
X15745087Y-14405531D02*
X15754611Y-14376960D01*
X15754611Y-14376960D02*
X15764134Y-14329341D01*
X15764134Y-14329341D02*
X15764134Y-14291246D01*
X15764134Y-14291246D02*
X15754611Y-14243627D01*
X15754611Y-14243627D02*
X15745087Y-14215055D01*
X15745087Y-14215055D02*
X15735563Y-14196008D01*
X15735563Y-14196008D02*
X15716515Y-14167436D01*
X15716515Y-14167436D02*
X15706992Y-14157912D01*
M02*
