M48
; DRILL file {KiCad 7.0.5-0} date 2023 June 10, Saturday 23:19:51
; FORMAT={-:-/ absolute / metric / decimal}
; #@! TF.CreationDate,2023-06-10T23:19:51+02:00
; #@! TF.GenerationSoftware,Kicad,Pcbnew,7.0.5-0
; #@! TF.FileFunction,Plated,1,2,PTH
FMAT,2
METRIC
; #@! TA.AperFunction,Plated,PTH,ViaDrill
T1C0.400
; #@! TA.AperFunction,Plated,PTH,ComponentDrill
T2C0.500
; #@! TA.AperFunction,Plated,PTH,ComponentDrill
T3C0.750
; #@! TA.AperFunction,Plated,PTH,ComponentDrill
T4C0.762
; #@! TA.AperFunction,Plated,PTH,ComponentDrill
T5C0.800
; #@! TA.AperFunction,Plated,PTH,ComponentDrill
T6C1.000
; #@! TA.AperFunction,Plated,PTH,ComponentDrill
T7C1.016
; #@! TA.AperFunction,Plated,PTH,ComponentDrill
T8C1.300
; #@! TA.AperFunction,Plated,PTH,ComponentDrill
T9C1.400
; #@! TA.AperFunction,Plated,PTH,ComponentDrill
T10C2.500
; #@! TA.AperFunction,Plated,PTH,ComponentDrill
T11C2.540
; #@! TA.AperFunction,Plated,PTH,ComponentDrill
T12C3.000
%
G90
G05
T1
X90.17Y-123.825
X91.44Y-68.58
X91.44Y-88.9
X91.44Y-109.22
X99.695Y-115.57
X101.6Y-133.985
X111.125Y-123.825
X111.76Y-68.58
X111.76Y-88.9
X111.76Y-110.49
X123.825Y-135.255
X131.445Y-88.9
X133.985Y-135.255
X135.255Y-114.935
X142.24Y-124.46
X144.145Y-135.255
X146.05Y-67.31
X146.05Y-81.915
X146.05Y-95.25
X146.05Y-112.395
X150.495Y-88.9
X154.305Y-97.79
X154.94Y-121.92
X154.94Y-135.255
X156.21Y-60.325
X156.21Y-100.33
X165.1Y-135.255
X168.91Y-66.675
X168.91Y-77.47
X168.91Y-85.09
X168.91Y-92.71
X168.91Y-100.33
X168.91Y-107.95
X170.815Y-105.41
X171.958Y-107.95
X176.168Y-115.726
X180.34Y-135.255
X181.61Y-60.325
X181.61Y-80.01
X181.61Y-87.63
X181.61Y-92.71
X181.61Y-95.25
X182.88Y-124.46
X189.865Y-111.125
X190.5Y-135.255
X193.04Y-115.57
X194.31Y-66.675
X194.31Y-77.47
X194.31Y-85.09
X194.31Y-114.3
X195.58Y-113.03
X196.85Y-111.76
X198.12Y-110.49
X200.025Y-111.125
X205.74Y-60.325
X205.74Y-132.08
X207.01Y-88.9
X207.645Y-107.95
X208.28Y-73.025
X214.63Y-73.66
X218.44Y-78.105
X219.075Y-88.9
X219.71Y-107.95
T2
X120.023Y-115.57
X121.273Y-115.57
X122.523Y-115.57
X123.773Y-115.57
X125.023Y-115.57
X126.273Y-115.57
X127.523Y-115.57
X128.773Y-115.57
X130.023Y-115.57
X131.273Y-115.57
T3
X110.363Y-116.205
X111.633Y-114.935
X112.903Y-116.205
T4
X209.55Y-83.82
X209.55Y-93.98
X212.09Y-83.82
X212.09Y-93.98
X214.63Y-83.82
X214.63Y-93.98
X214.63Y-104.14
X214.63Y-106.68
X214.63Y-109.22
X214.63Y-111.76
X214.63Y-114.3
X214.63Y-116.84
X217.17Y-83.82
X217.17Y-93.98
T5
X211.455Y-67.945
X211.455Y-78.105
X214.63Y-67.945
X214.63Y-78.105
X217.805Y-71.795
X217.805Y-74.295
T6
X99.06Y-123.849
X104.14Y-123.849
X109.22Y-123.849
X114.3Y-123.849
X119.38Y-123.849
X124.46Y-123.849
X129.54Y-123.849
X134.62Y-123.849
X139.7Y-123.849
X144.78Y-123.849
X149.86Y-123.849
X154.94Y-123.849
X158.75Y-72.39
X158.75Y-74.93
X158.75Y-77.47
X158.75Y-80.01
X158.75Y-82.55
X158.75Y-85.09
X158.75Y-87.63
X158.75Y-90.17
X158.75Y-92.71
X158.75Y-95.25
X158.75Y-97.79
X158.75Y-100.33
X158.75Y-102.87
X158.75Y-105.41
X158.75Y-107.95
X160.02Y-123.849
X161.29Y-72.39
X161.29Y-74.93
X161.29Y-77.47
X161.29Y-80.01
X161.29Y-82.55
X161.29Y-85.09
X161.29Y-87.63
X161.29Y-90.17
X161.29Y-92.71
X161.29Y-95.25
X161.29Y-97.79
X161.29Y-100.33
X161.29Y-102.87
X161.29Y-105.41
X161.29Y-107.95
X165.1Y-123.849
X170.18Y-123.849
X175.26Y-123.849
X176.53Y-80.01
X176.53Y-82.55
X176.53Y-85.09
X176.53Y-87.63
X176.53Y-90.17
X176.53Y-92.71
X176.53Y-95.25
X176.53Y-97.79
X176.53Y-100.33
X176.53Y-102.87
X176.53Y-105.41
X176.53Y-107.95
X179.07Y-80.01
X179.07Y-82.55
X179.07Y-85.09
X179.07Y-87.63
X179.07Y-90.17
X179.07Y-92.71
X179.07Y-95.25
X179.07Y-97.79
X179.07Y-100.33
X179.07Y-102.87
X179.07Y-105.41
X179.07Y-107.95
X180.34Y-123.849
X184.15Y-72.39
X184.15Y-74.93
X184.15Y-77.47
X184.15Y-80.01
X184.15Y-82.55
X184.15Y-85.09
X184.15Y-87.63
X184.15Y-90.17
X184.15Y-92.71
X184.15Y-95.25
X184.15Y-97.79
X184.15Y-100.33
X184.15Y-102.87
X184.15Y-105.41
X184.15Y-107.95
X185.42Y-123.849
X186.69Y-72.39
X186.69Y-74.93
X186.69Y-77.47
X186.69Y-80.01
X186.69Y-82.55
X186.69Y-85.09
X186.69Y-87.63
X186.69Y-90.17
X186.69Y-92.71
X186.69Y-95.25
X186.69Y-97.79
X186.69Y-100.33
X186.69Y-102.87
X186.69Y-105.41
X186.69Y-107.95
X190.5Y-123.849
X195.58Y-123.849
X201.93Y-80.01
X201.93Y-82.55
X201.93Y-85.09
X201.93Y-87.63
X201.93Y-90.17
X201.93Y-92.71
X201.93Y-95.25
X201.93Y-97.79
X201.93Y-100.33
X201.93Y-102.87
X201.93Y-105.41
X201.93Y-107.95
X204.47Y-80.01
X204.47Y-82.55
X204.47Y-85.09
X204.47Y-87.63
X204.47Y-90.17
X204.47Y-92.71
X204.47Y-95.25
X204.47Y-97.79
X204.47Y-100.33
X204.47Y-102.87
X204.47Y-105.41
X204.47Y-107.95
T7
X139.7Y-99.06
X139.7Y-101.6
X139.7Y-104.14
X139.7Y-106.68
X152.4Y-67.31
X152.4Y-69.85
X152.4Y-72.39
X152.4Y-74.93
X152.4Y-77.47
X152.4Y-80.01
X152.4Y-82.55
X152.4Y-96.52
X152.4Y-99.06
X152.4Y-101.6
X152.4Y-104.14
X152.4Y-106.68
X152.4Y-109.22
X158.75Y-69.85
X161.29Y-69.85
X184.15Y-69.85
X186.69Y-69.85
T8
X99.06Y-131.445
X104.14Y-131.445
X109.22Y-131.445
X114.3Y-131.445
X119.38Y-131.445
X124.46Y-131.445
X129.54Y-131.445
X134.62Y-131.445
X139.7Y-131.445
X144.78Y-131.445
X149.86Y-131.445
X154.94Y-131.445
X160.02Y-131.445
X165.1Y-131.445
X170.18Y-131.445
X175.26Y-131.445
X180.34Y-131.445
X185.42Y-131.445
X190.5Y-131.445
X195.58Y-131.445
T9
X203.835Y-125.984
X208.915Y-125.984
T10
X131.11Y-69.55
X131.11Y-108.25
T11
X160.02Y-66.04
X177.8Y-66.04
X185.42Y-66.04
X203.2Y-66.04
T12
X91.44Y-60.96
X91.44Y-132.715
X217.17Y-60.96
X217.17Y-132.715
T0
M30
